<ttFont>
    <TTGlyph name=".notdef" xMin="193" yMin="0" xMax="1034" yMax="1462">
      <contour>
        <pt x="193" y="1462" on="1"/>
        <pt x="1034" y="1462" on="1"/>
        <pt x="1034" y="0" on="1"/>
        <pt x="193" y="0" on="1"/>
      </contour>
      <contour>
        <pt x="297" y="104" on="1"/>
        <pt x="930" y="104" on="1"/>
        <pt x="930" y="1358" on="1"/>
        <pt x="297" y="1358" on="1"/>
      </contour>
    </TTGlyph>
    <TTGlyph name="aadeva" xMin="60" yMin="0" xMax="2125" yMax="1295">
      <contour>
        <pt x="299" y="1217" on="1"/>
        <pt x="453" y="1295" on="0"/>
        <pt x="611" y="1295" on="1"/>
        <pt x="715" y="1295" on="0"/>
        <pt x="865" y="1221" on="0"/>
        <pt x="940" y="1094" on="0"/>
        <pt x="940" y="1014" on="1"/>
        <pt x="940" y="933" on="0"/>
        <pt x="866" y="804" on="0"/>
        <pt x="792" y="761" on="1"/>
        <pt x="846" y="705" on="0"/>
        <pt x="957" y="705" on="1"/>
        <pt x="1029" y="705" on="0"/>
        <pt x="1156" y="752" on="0"/>
        <pt x="1217" y="805" on="1"/>
        <pt x="1217" y="1128" on="1"/>
        <pt x="1067" y="1128" on="1"/>
        <pt x="1067" y="1274" on="1"/>
        <pt x="2125" y="1274" on="1"/>
        <pt x="2125" y="1128" on="1"/>
        <pt x="1912" y="1128" on="1"/>
        <pt x="1912" y="0" on="1"/>
        <pt x="1747" y="0" on="1"/>
        <pt x="1747" y="1128" on="1"/>
        <pt x="1382" y="1128" on="1"/>
        <pt x="1382" y="0" on="1"/>
        <pt x="1217" y="0" on="1"/>
        <pt x="1217" y="621" on="1"/>
        <pt x="1109" y="569" on="0"/>
        <pt x="940" y="569" on="1"/>
        <pt x="931" y="569" on="1"/>
        <pt x="962" y="506" on="0"/>
        <pt x="962" y="447" on="1"/>
        <pt x="962" y="353" on="0"/>
        <pt x="875" y="224" on="0"/>
        <pt x="730" y="163" on="0"/>
        <pt x="639" y="163" on="1"/>
        <pt x="519" y="163" on="0"/>
        <pt x="321" y="279" on="0"/>
        <pt x="146" y="526" on="0"/>
        <pt x="60" y="730" on="1"/>
        <pt x="204" y="782" on="1"/>
        <pt x="301" y="543" on="0"/>
        <pt x="507" y="314" on="0"/>
        <pt x="625" y="314" on="1"/>
        <pt x="708" y="314" on="0"/>
        <pt x="800" y="390" on="0"/>
        <pt x="800" y="464" on="1"/>
        <pt x="800" y="530" on="0"/>
        <pt x="728" y="650" on="0"/>
        <pt x="650" y="710" on="1"/>
        <pt x="596" y="700" on="0"/>
        <pt x="532" y="698" on="1"/>
        <pt x="523" y="842" on="1"/>
        <pt x="649" y="845" on="0"/>
        <pt x="779" y="927" on="0"/>
        <pt x="779" y="1012" on="1"/>
        <pt x="779" y="1060" on="0"/>
        <pt x="734" y="1122" on="0"/>
        <pt x="662" y="1150" on="0"/>
        <pt x="619" y="1150" on="1"/>
        <pt x="554" y="1150" on="0"/>
        <pt x="436" y="1118" on="0"/>
        <pt x="351" y="1075" on="1"/>
      </contour>
    </TTGlyph>
    <TTGlyph name="aanuktadeva" xMin="60" yMin="-200" xMax="2125" yMax="1295">
      <component glyphName="aadeva" x="0" y="0" flags="0x204"/>
      <component glyphName="nuktadeva" x="1151" y="194" flags="0x4"/>
    </TTGlyph>
    <TTGlyph name="aavowelsigndeva" xMin="0" yMin="0" xMax="560" yMax="1274">
      <contour>
        <pt x="560" y="1128" on="1"/>
        <pt x="347" y="1128" on="1"/>
        <pt x="347" y="0" on="1"/>
        <pt x="182" y="0" on="1"/>
        <pt x="182" y="1128" on="1"/>
        <pt x="0" y="1128" on="1"/>
        <pt x="0" y="1274" on="1"/>
        <pt x="560" y="1274" on="1"/>
      </contour>
    </TTGlyph>
    <TTGlyph name="abbreviationsigndeva" xMin="132" yMin="572" xMax="740" yMax="1274">
      <contour>
        <pt x="437" y="572" on="1"/>
        <pt x="354" y="572" on="0"/>
        <pt x="215" y="644" on="0"/>
        <pt x="132" y="776" on="0"/>
        <pt x="132" y="858" on="1"/>
        <pt x="132" y="933" on="0"/>
        <pt x="208" y="1064" on="0"/>
        <pt x="348" y="1142" on="0"/>
        <pt x="437" y="1142" on="1"/>
        <pt x="521" y="1142" on="0"/>
        <pt x="660" y="1068" on="0"/>
        <pt x="740" y="937" on="0"/>
        <pt x="740" y="858" on="1"/>
        <pt x="740" y="780" on="0"/>
        <pt x="661" y="648" on="0"/>
        <pt x="522" y="572" on="0"/>
      </contour>
      <contour>
        <pt x="436" y="1008" on="1"/>
        <pt x="387" y="1008" on="0"/>
        <pt x="312" y="967" on="0"/>
        <pt x="274" y="899" on="0"/>
        <pt x="274" y="858" on="1"/>
        <pt x="274" y="813" on="0"/>
        <pt x="317" y="743" on="0"/>
        <pt x="392" y="706" on="0"/>
        <pt x="436" y="706" on="1"/>
        <pt x="482" y="706" on="0"/>
        <pt x="556" y="744" on="0"/>
        <pt x="598" y="814" on="0"/>
        <pt x="598" y="858" on="1"/>
        <pt x="598" y="900" on="0"/>
        <pt x="556" y="970" on="0"/>
        <pt x="482" y="1008" on="0"/>
      </contour>
      <contour>
        <pt x="437" y="1274" on="1"/>
      </contour>
    </TTGlyph>
    <TTGlyph name="acandraanusvaradeva" xMin="60" yMin="0" xMax="1595" yMax="1836">
      <component glyphName="adeva" x="0" y="0" flags="0x204"/>
      <component glyphName="ecandravowelsignanusvaradeva" x="1570" y="0" flags="0x4"/>
    </TTGlyph>
    <TTGlyph name="acandradeva" xMin="60" yMin="0" xMax="1661" yMax="1836">
      <component glyphName="adeva" x="0" y="0" flags="0x204"/>
      <component glyphName="ecandravowelsigndeva" x="1520" y="0" flags="0x4"/>
    </TTGlyph>
    <TTGlyph name="acandranuktaanusvaradeva" xMin="60" yMin="-200" xMax="1595" yMax="1836">
      <component glyphName="adeva" x="0" y="0" flags="0x204"/>
      <component glyphName="ecandravowelsignanusvaradeva" x="1570" y="0" flags="0x4"/>
      <component glyphName="nuktadeva" x="1151" y="194" flags="0x4"/>
    </TTGlyph>
    <TTGlyph name="acandranuktadeva" xMin="60" yMin="-200" xMax="1661" yMax="1836">
      <component glyphName="adeva" x="0" y="0" flags="0x204"/>
      <component glyphName="ecandravowelsigndeva" x="1520" y="0" flags="0x4"/>
      <component glyphName="nuktadeva" x="1151" y="194" flags="0x4"/>
    </TTGlyph>
    <TTGlyph name="adeva" xMin="60" yMin="0" xMax="1595" yMax="1295">
      <contour>
        <pt x="299" y="1217" on="1"/>
        <pt x="453" y="1295" on="0"/>
        <pt x="611" y="1295" on="1"/>
        <pt x="715" y="1295" on="0"/>
        <pt x="865" y="1221" on="0"/>
        <pt x="940" y="1094" on="0"/>
        <pt x="940" y="1014" on="1"/>
        <pt x="940" y="933" on="0"/>
        <pt x="866" y="804" on="0"/>
        <pt x="792" y="761" on="1"/>
        <pt x="846" y="705" on="0"/>
        <pt x="957" y="705" on="1"/>
        <pt x="1029" y="705" on="0"/>
        <pt x="1156" y="752" on="0"/>
        <pt x="1217" y="805" on="1"/>
        <pt x="1217" y="1128" on="1"/>
        <pt x="1067" y="1128" on="1"/>
        <pt x="1067" y="1274" on="1"/>
        <pt x="1595" y="1274" on="1"/>
        <pt x="1595" y="1128" on="1"/>
        <pt x="1382" y="1128" on="1"/>
        <pt x="1382" y="0" on="1"/>
        <pt x="1217" y="0" on="1"/>
        <pt x="1217" y="621" on="1"/>
        <pt x="1109" y="569" on="0"/>
        <pt x="940" y="569" on="1"/>
        <pt x="931" y="569" on="1"/>
        <pt x="962" y="506" on="0"/>
        <pt x="962" y="447" on="1"/>
        <pt x="962" y="353" on="0"/>
        <pt x="875" y="224" on="0"/>
        <pt x="730" y="163" on="0"/>
        <pt x="639" y="163" on="1"/>
        <pt x="519" y="163" on="0"/>
        <pt x="321" y="279" on="0"/>
        <pt x="146" y="526" on="0"/>
        <pt x="60" y="730" on="1"/>
        <pt x="204" y="782" on="1"/>
        <pt x="301" y="543" on="0"/>
        <pt x="507" y="314" on="0"/>
        <pt x="625" y="314" on="1"/>
        <pt x="708" y="314" on="0"/>
        <pt x="800" y="390" on="0"/>
        <pt x="800" y="464" on="1"/>
        <pt x="800" y="530" on="0"/>
        <pt x="728" y="650" on="0"/>
        <pt x="650" y="710" on="1"/>
        <pt x="596" y="700" on="0"/>
        <pt x="532" y="698" on="1"/>
        <pt x="523" y="842" on="1"/>
        <pt x="649" y="845" on="0"/>
        <pt x="779" y="927" on="0"/>
        <pt x="779" y="1012" on="1"/>
        <pt x="779" y="1060" on="0"/>
        <pt x="734" y="1122" on="0"/>
        <pt x="662" y="1150" on="0"/>
        <pt x="619" y="1150" on="1"/>
        <pt x="554" y="1150" on="0"/>
        <pt x="436" y="1118" on="0"/>
        <pt x="351" y="1075" on="1"/>
      </contour>
    </TTGlyph>
    <TTGlyph name="aianusvaradeva" xMin="0" yMin="-376" xMax="1163" yMax="1836">
      <component glyphName="edeva" x="0" y="0" flags="0x204"/>
      <component glyphName="evowelsignanusvaradeva" x="1152" y="0" flags="0x4"/>
    </TTGlyph>
    <TTGlyph name="aideva" xMin="0" yMin="-376" xMax="1163" yMax="1836">
      <component glyphName="edeva" x="0" y="0" flags="0x204"/>
      <component glyphName="evowelsigndeva" x="1152" y="0" flags="0x4"/>
    </TTGlyph>
    <TTGlyph name="ainuktaanusvaradeva" xMin="0" yMin="-376" xMax="1163" yMax="1836">
      <component glyphName="edeva" x="0" y="0" flags="0x204"/>
      <component glyphName="nuktadeva" x="927" y="132" flags="0x4"/>
      <component glyphName="evowelsignanusvaradeva" x="1152" y="0" flags="0x4"/>
    </TTGlyph>
    <TTGlyph name="ainuktadeva" xMin="0" yMin="-376" xMax="1163" yMax="1836">
      <component glyphName="edeva" x="0" y="0" flags="0x204"/>
      <component glyphName="evowelsigndeva" x="1152" y="0" flags="0x4"/>
      <component glyphName="nuktadeva" x="927" y="132" flags="0x4"/>
    </TTGlyph>
    <TTGlyph name="aivowelsignanusvaradeva" xMin="-877" yMin="1259" xMax="-5" yMax="1836">
      <contour>
        <pt x="-366" y="1259" on="1"/>
        <pt x="-411" y="1323" on="0"/>
        <pt x="-483" y="1395" on="0"/>
        <pt x="-546" y="1428" on="0"/>
        <pt x="-607" y="1440" on="0"/>
        <pt x="-656" y="1440" on="1"/>
        <pt x="-729" y="1440" on="0"/>
        <pt x="-823" y="1396" on="1"/>
        <pt x="-877" y="1538" on="1"/>
        <pt x="-830" y="1557" on="0"/>
        <pt x="-728" y="1583" on="0"/>
        <pt x="-667" y="1583" on="1"/>
        <pt x="-626" y="1583" on="0"/>
        <pt x="-554" y="1566" on="0"/>
        <pt x="-488" y="1530" on="0"/>
        <pt x="-435" y="1486" on="0"/>
        <pt x="-401" y="1449" on="0"/>
        <pt x="-383" y="1418" on="1"/>
        <pt x="-374" y="1421" on="1"/>
        <pt x="-417" y="1530" on="0"/>
        <pt x="-495" y="1645" on="0"/>
        <pt x="-583" y="1694" on="0"/>
        <pt x="-648" y="1694" on="1"/>
        <pt x="-683" y="1694" on="0"/>
        <pt x="-747" y="1683" on="0"/>
        <pt x="-790" y="1666" on="1"/>
        <pt x="-838" y="1807" on="1"/>
        <pt x="-789" y="1823" on="0"/>
        <pt x="-706" y="1836" on="0"/>
        <pt x="-652" y="1836" on="1"/>
        <pt x="-565" y="1836" on="0"/>
        <pt x="-436" y="1777" on="0"/>
        <pt x="-331" y="1649" on="0"/>
        <pt x="-238" y="1430" on="0"/>
        <pt x="-192" y="1259" on="1"/>
      </contour>
      <contour>
        <pt x="-118" y="1790" on="1"/>
        <pt x="-88" y="1790" on="0"/>
        <pt x="-37" y="1759" on="0"/>
        <pt x="-5" y="1703" on="0"/>
        <pt x="-5" y="1671" on="1"/>
        <pt x="-5" y="1638" on="0"/>
        <pt x="-38" y="1582" on="0"/>
        <pt x="-89" y="1552" on="0"/>
        <pt x="-118" y="1552" on="1"/>
        <pt x="-148" y="1552" on="0"/>
        <pt x="-199" y="1583" on="0"/>
        <pt x="-231" y="1638" on="0"/>
        <pt x="-231" y="1671" on="1"/>
        <pt x="-231" y="1703" on="0"/>
        <pt x="-200" y="1759" on="0"/>
        <pt x="-148" y="1790" on="0"/>
      </contour>
      <contour>
        <pt x="-348" y="1274" on="1"/>
      </contour>
    </TTGlyph>
    <TTGlyph name="aivowelsigncandrabindudeva" xMin="-877" yMin="1259" xMax="272" yMax="1836">
      <component glyphName="aivowelsigndeva" x="0" y="0" flags="0x204"/>
      <component glyphName="candrabindusmalldeva" x="181" y="0" flags="0x4"/>
    </TTGlyph>
    <TTGlyph name="aivowelsigndeva" xMin="-877" yMin="1259" xMax="-192" yMax="1836">
      <contour>
        <pt x="-366" y="1259" on="1"/>
        <pt x="-411" y="1323" on="0"/>
        <pt x="-483" y="1395" on="0"/>
        <pt x="-546" y="1428" on="0"/>
        <pt x="-607" y="1440" on="0"/>
        <pt x="-656" y="1440" on="1"/>
        <pt x="-729" y="1440" on="0"/>
        <pt x="-823" y="1396" on="1"/>
        <pt x="-877" y="1538" on="1"/>
        <pt x="-830" y="1557" on="0"/>
        <pt x="-728" y="1583" on="0"/>
        <pt x="-667" y="1583" on="1"/>
        <pt x="-626" y="1583" on="0"/>
        <pt x="-554" y="1566" on="0"/>
        <pt x="-488" y="1530" on="0"/>
        <pt x="-435" y="1486" on="0"/>
        <pt x="-401" y="1449" on="0"/>
        <pt x="-383" y="1418" on="1"/>
        <pt x="-374" y="1421" on="1"/>
        <pt x="-417" y="1530" on="0"/>
        <pt x="-495" y="1645" on="0"/>
        <pt x="-583" y="1694" on="0"/>
        <pt x="-648" y="1694" on="1"/>
        <pt x="-683" y="1694" on="0"/>
        <pt x="-747" y="1683" on="0"/>
        <pt x="-790" y="1666" on="1"/>
        <pt x="-838" y="1807" on="1"/>
        <pt x="-789" y="1823" on="0"/>
        <pt x="-706" y="1836" on="0"/>
        <pt x="-652" y="1836" on="1"/>
        <pt x="-565" y="1836" on="0"/>
        <pt x="-436" y="1777" on="0"/>
        <pt x="-331" y="1649" on="0"/>
        <pt x="-238" y="1430" on="0"/>
        <pt x="-192" y="1259" on="1"/>
      </contour>
      <contour>
        <pt x="-348" y="1274" on="1"/>
      </contour>
    </TTGlyph>
    <TTGlyph name="aivowelsignrephanusvaradeva" xMin="-877" yMin="1259" xMax="104" yMax="1836">
      <contour>
        <pt x="-366" y="1259" on="1"/>
        <pt x="-411" y="1323" on="0"/>
        <pt x="-483" y="1395" on="0"/>
        <pt x="-546" y="1428" on="0"/>
        <pt x="-607" y="1440" on="0"/>
        <pt x="-656" y="1440" on="1"/>
        <pt x="-729" y="1440" on="0"/>
        <pt x="-823" y="1396" on="1"/>
        <pt x="-877" y="1538" on="1"/>
        <pt x="-830" y="1557" on="0"/>
        <pt x="-728" y="1583" on="0"/>
        <pt x="-667" y="1583" on="1"/>
        <pt x="-626" y="1583" on="0"/>
        <pt x="-554" y="1566" on="0"/>
        <pt x="-488" y="1530" on="0"/>
        <pt x="-435" y="1486" on="0"/>
        <pt x="-401" y="1449" on="0"/>
        <pt x="-383" y="1418" on="1"/>
        <pt x="-374" y="1421" on="1"/>
        <pt x="-417" y="1530" on="0"/>
        <pt x="-495" y="1645" on="0"/>
        <pt x="-583" y="1694" on="0"/>
        <pt x="-648" y="1694" on="1"/>
        <pt x="-683" y="1694" on="0"/>
        <pt x="-747" y="1683" on="0"/>
        <pt x="-790" y="1666" on="1"/>
        <pt x="-838" y="1807" on="1"/>
        <pt x="-789" y="1823" on="0"/>
        <pt x="-706" y="1836" on="0"/>
        <pt x="-652" y="1836" on="1"/>
        <pt x="-548" y="1836" on="0"/>
        <pt x="-421" y="1758" on="0"/>
        <pt x="-374" y="1681" on="1"/>
        <pt x="-369" y="1681" on="1"/>
        <pt x="-315" y="1836" on="0"/>
        <pt x="-114" y="1836" on="1"/>
        <pt x="-46" y="1836" on="0"/>
        <pt x="62" y="1807" on="0"/>
        <pt x="104" y="1785" on="1"/>
        <pt x="59" y="1650" on="1"/>
        <pt x="24" y="1669" on="0"/>
        <pt x="-53" y="1694" on="0"/>
        <pt x="-98" y="1694" on="1"/>
        <pt x="-178" y="1694" on="0"/>
        <pt x="-267" y="1606" on="0"/>
        <pt x="-267" y="1529" on="1"/>
        <pt x="-267" y="1508" on="0"/>
        <pt x="-264" y="1487" on="1"/>
        <pt x="-229" y="1396" on="0"/>
        <pt x="-192" y="1259" on="1"/>
      </contour>
      <contour>
        <pt x="-61" y="1585" on="1"/>
        <pt x="-20" y="1585" on="0"/>
        <pt x="41" y="1526" on="0"/>
        <pt x="41" y="1483" on="1"/>
        <pt x="41" y="1440" on="0"/>
        <pt x="-20" y="1381" on="0"/>
        <pt x="-61" y="1381" on="1"/>
        <pt x="-102" y="1381" on="0"/>
        <pt x="-163" y="1440" on="0"/>
        <pt x="-163" y="1483" on="1"/>
        <pt x="-163" y="1526" on="0"/>
        <pt x="-102" y="1585" on="0"/>
      </contour>
      <contour>
        <pt x="-348" y="1274" on="1"/>
      </contour>
    </TTGlyph>
    <TTGlyph name="aivowelsignrephdeva" xMin="-877" yMin="1259" xMax="104" yMax="1836">
      <contour>
        <pt x="-366" y="1259" on="1"/>
        <pt x="-411" y="1323" on="0"/>
        <pt x="-483" y="1395" on="0"/>
        <pt x="-546" y="1428" on="0"/>
        <pt x="-607" y="1440" on="0"/>
        <pt x="-656" y="1440" on="1"/>
        <pt x="-729" y="1440" on="0"/>
        <pt x="-823" y="1396" on="1"/>
        <pt x="-877" y="1538" on="1"/>
        <pt x="-830" y="1557" on="0"/>
        <pt x="-728" y="1583" on="0"/>
        <pt x="-667" y="1583" on="1"/>
        <pt x="-626" y="1583" on="0"/>
        <pt x="-554" y="1566" on="0"/>
        <pt x="-488" y="1530" on="0"/>
        <pt x="-435" y="1486" on="0"/>
        <pt x="-401" y="1449" on="0"/>
        <pt x="-383" y="1418" on="1"/>
        <pt x="-374" y="1421" on="1"/>
        <pt x="-417" y="1530" on="0"/>
        <pt x="-495" y="1645" on="0"/>
        <pt x="-583" y="1694" on="0"/>
        <pt x="-648" y="1694" on="1"/>
        <pt x="-683" y="1694" on="0"/>
        <pt x="-747" y="1683" on="0"/>
        <pt x="-790" y="1666" on="1"/>
        <pt x="-838" y="1807" on="1"/>
        <pt x="-789" y="1823" on="0"/>
        <pt x="-706" y="1836" on="0"/>
        <pt x="-652" y="1836" on="1"/>
        <pt x="-548" y="1836" on="0"/>
        <pt x="-421" y="1758" on="0"/>
        <pt x="-374" y="1681" on="1"/>
        <pt x="-369" y="1681" on="1"/>
        <pt x="-315" y="1836" on="0"/>
        <pt x="-114" y="1836" on="1"/>
        <pt x="-46" y="1836" on="0"/>
        <pt x="62" y="1807" on="0"/>
        <pt x="104" y="1785" on="1"/>
        <pt x="59" y="1650" on="1"/>
        <pt x="24" y="1669" on="0"/>
        <pt x="-53" y="1694" on="0"/>
        <pt x="-98" y="1694" on="1"/>
        <pt x="-178" y="1694" on="0"/>
        <pt x="-267" y="1606" on="0"/>
        <pt x="-267" y="1529" on="1"/>
        <pt x="-267" y="1508" on="0"/>
        <pt x="-264" y="1487" on="1"/>
        <pt x="-229" y="1396" on="0"/>
        <pt x="-192" y="1259" on="1"/>
      </contour>
      <contour>
        <pt x="-348" y="1274" on="1"/>
      </contour>
    </TTGlyph>
    <TTGlyph name="anudattadeva" xMin="-845" yMin="-303" xMax="-173" yMax="-157">
      <contour>
        <pt x="-845" y="-303" on="1"/>
        <pt x="-845" y="-157" on="1"/>
        <pt x="-173" y="-157" on="1"/>
        <pt x="-173" y="-303" on="1"/>
      </contour>
    </TTGlyph>
    <TTGlyph name="anuktadeva" xMin="60" yMin="-200" xMax="1595" yMax="1295">
      <component glyphName="adeva" x="0" y="0" flags="0x204"/>
      <component glyphName="nuktadeva" x="1151" y="194" flags="0x4"/>
    </TTGlyph>
    <TTGlyph name="anusvaradeva" xMin="-379" yMin="1274" xMax="-153" yMax="1700">
      <contour>
        <pt x="-266" y="1700" on="1"/>
        <pt x="-236" y="1700" on="0"/>
        <pt x="-185" y="1669" on="0"/>
        <pt x="-153" y="1613" on="0"/>
        <pt x="-153" y="1581" on="1"/>
        <pt x="-153" y="1548" on="0"/>
        <pt x="-186" y="1492" on="0"/>
        <pt x="-237" y="1462" on="0"/>
        <pt x="-266" y="1462" on="1"/>
        <pt x="-296" y="1462" on="0"/>
        <pt x="-347" y="1493" on="0"/>
        <pt x="-379" y="1548" on="0"/>
        <pt x="-379" y="1581" on="1"/>
        <pt x="-379" y="1613" on="0"/>
        <pt x="-348" y="1669" on="0"/>
        <pt x="-296" y="1700" on="0"/>
      </contour>
      <contour>
        <pt x="-348" y="1274" on="1"/>
      </contour>
    </TTGlyph>
    <TTGlyph name="asciicircum.deva" xMin="60" yMin="549" xMax="1068" yMax="1473">
      <contour>
        <pt x="60" y="549" on="1"/>
        <pt x="519" y="1473" on="1"/>
        <pt x="621" y="1473" on="1"/>
        <pt x="1068" y="549" on="1"/>
        <pt x="907" y="549" on="1"/>
        <pt x="570" y="1284" on="1"/>
        <pt x="221" y="549" on="1"/>
      </contour>
    </TTGlyph>
    <TTGlyph name="asciitilde.deva" xMin="102" yMin="525" xMax="1026" yMax="1274">
      <contour>
        <pt x="530" y="590" on="1"/>
        <pt x="493" y="606" on="0"/>
        <pt x="438" y="628" on="0"/>
        <pt x="393" y="641" on="0"/>
        <pt x="352" y="646" on="0"/>
        <pt x="330" y="646" on="1"/>
        <pt x="302" y="646" on="0"/>
        <pt x="242" y="627" on="0"/>
        <pt x="183" y="594" on="0"/>
        <pt x="127" y="550" on="0"/>
        <pt x="102" y="525" on="1"/>
        <pt x="102" y="687" on="1"/>
        <pt x="202" y="795" on="0"/>
        <pt x="350" y="795" on="1"/>
        <pt x="379" y="795" on="0"/>
        <pt x="429" y="790" on="0"/>
        <pt x="484" y="777" on="0"/>
        <pt x="551" y="752" on="0"/>
        <pt x="598" y="732" on="1"/>
        <pt x="635" y="716" on="0"/>
        <pt x="690" y="694" on="0"/>
        <pt x="737" y="681" on="0"/>
        <pt x="777" y="676" on="0"/>
        <pt x="799" y="676" on="1"/>
        <pt x="827" y="676" on="0"/>
        <pt x="887" y="695" on="0"/>
        <pt x="946" y="728" on="0"/>
        <pt x="1002" y="772" on="0"/>
        <pt x="1026" y="797" on="1"/>
        <pt x="1026" y="635" on="1"/>
        <pt x="927" y="527" on="0"/>
        <pt x="778" y="527" on="1"/>
        <pt x="749" y="527" on="0"/>
        <pt x="699" y="532" on="0"/>
        <pt x="644" y="545" on="0"/>
        <pt x="577" y="570" on="0"/>
      </contour>
      <contour>
        <pt x="453" y="1274" on="1"/>
      </contour>
    </TTGlyph>
    <TTGlyph name="ashortanusvaradeva" xMin="60" yMin="0" xMax="1595" yMax="1836">
      <component glyphName="adeva" x="0" y="0" flags="0x204"/>
      <component glyphName="eshortvowelsignanusvaradeva" x="1565" y="0" flags="0x4"/>
    </TTGlyph>
    <TTGlyph name="ashortdeva" xMin="60" yMin="0" xMax="1595" yMax="1836">
      <component glyphName="adeva" x="0" y="0" flags="0x204"/>
      <component glyphName="eshortvowelsigndeva" x="1565" y="0" flags="0x4"/>
    </TTGlyph>
    <TTGlyph name="ashortnuktaanusvaradeva" xMin="60" yMin="-200" xMax="1595" yMax="1836">
      <component glyphName="adeva" x="0" y="0" flags="0x204"/>
      <component glyphName="eshortvowelsignanusvaradeva" x="1565" y="0" flags="0x4"/>
      <component glyphName="nuktadeva" x="1151" y="194" flags="0x4"/>
    </TTGlyph>
    <TTGlyph name="ashortnuktadeva" xMin="60" yMin="-200" xMax="1595" yMax="1836">
      <component glyphName="adeva" x="0" y="0" flags="0x204"/>
      <component glyphName="eshortvowelsigndeva" x="1565" y="0" flags="0x4"/>
      <component glyphName="nuktadeva" x="1151" y="194" flags="0x4"/>
    </TTGlyph>
    <TTGlyph name="asterisk.deva" xMin="150" yMin="600" xMax="1112" yMax="1836">
      <contour>
        <pt x="732" y="1525" on="1"/>
        <pt x="689" y="1132" on="1"/>
        <pt x="1086" y="1243" on="1"/>
        <pt x="1112" y="1050" on="1"/>
        <pt x="734" y="1022" on="1"/>
        <pt x="979" y="696" on="1"/>
        <pt x="801" y="600" on="1"/>
        <pt x="625" y="958" on="1"/>
        <pt x="467" y="600" on="1"/>
        <pt x="283" y="696" on="1"/>
        <pt x="525" y="1022" on="1"/>
        <pt x="150" y="1050" on="1"/>
        <pt x="179" y="1243" on="1"/>
        <pt x="570" y="1132" on="1"/>
        <pt x="527" y="1525" on="1"/>
      </contour>
      <contour>
        <pt x="453" y="1274" on="1"/>
      </contour>
      <contour>
        <pt x="448" y="1836" on="1"/>
      </contour>
    </TTGlyph>
    <TTGlyph name="auanusvaradeva" xMin="60" yMin="0" xMax="2125" yMax="1836">
      <component glyphName="aadeva" x="0" y="0" flags="0x204"/>
      <component glyphName="aivowelsignanusvaradeva" x="2095" y="0" flags="0x4"/>
    </TTGlyph>
    <TTGlyph name="audeva" xMin="60" yMin="0" xMax="2125" yMax="1836">
      <component glyphName="aadeva" x="0" y="0" flags="0x204"/>
      <component glyphName="aivowelsigndeva" x="2095" y="0" flags="0x4"/>
    </TTGlyph>
    <TTGlyph name="aunuktaanusvaradeva" xMin="60" yMin="-200" xMax="2125" yMax="1836">
      <component glyphName="aadeva" x="0" y="0" flags="0x204"/>
      <component glyphName="nuktadeva" x="1151" y="194" flags="0x4"/>
      <component glyphName="aivowelsignanusvaradeva" x="2095" y="0" flags="0x4"/>
    </TTGlyph>
    <TTGlyph name="aunuktadeva" xMin="60" yMin="-200" xMax="2125" yMax="1836">
      <component glyphName="aadeva" x="0" y="0" flags="0x204"/>
      <component glyphName="aivowelsigndeva" x="2095" y="0" flags="0x4"/>
      <component glyphName="nuktadeva" x="1151" y="194" flags="0x4"/>
    </TTGlyph>
    <TTGlyph name="auvowelsignanusvaradeva" xMin="-347" yMin="0" xMax="560" yMax="1836">
      <component glyphName="aavowelsigndeva" x="0" y="0" flags="0x204"/>
      <component glyphName="aivowelsignanusvaradeva" x="530" y="0" flags="0x4"/>
    </TTGlyph>
    <TTGlyph name="auvowelsigncandrabindudeva" xMin="-347" yMin="0" xMax="802" yMax="1836">
      <component glyphName="aavowelsigndeva" x="0" y="0" flags="0x204"/>
      <component glyphName="aivowelsigndeva" x="530" y="0" flags="0x4"/>
      <component glyphName="candrabindusmalldeva" x="711" y="0" flags="0x4"/>
    </TTGlyph>
    <TTGlyph name="auvowelsigndeva" xMin="-347" yMin="0" xMax="560" yMax="1836">
      <component glyphName="aavowelsigndeva" x="0" y="0" flags="0x204"/>
      <component glyphName="aivowelsigndeva" x="530" y="0" flags="0x4"/>
    </TTGlyph>
    <TTGlyph name="auvowelsignrephanusvaradeva" xMin="-347" yMin="0" xMax="634" yMax="1836">
      <component glyphName="aavowelsigndeva" x="0" y="0" flags="0x204"/>
      <component glyphName="aivowelsignrephanusvaradeva" x="530" y="0" flags="0x4"/>
    </TTGlyph>
    <TTGlyph name="auvowelsignrephdeva" xMin="-347" yMin="0" xMax="634" yMax="1836">
      <component glyphName="aavowelsigndeva" x="0" y="0" flags="0x204"/>
      <component glyphName="aivowelsignrephdeva" x="530" y="0" flags="0x4"/>
    </TTGlyph>
    <TTGlyph name="avagrahadeva" xMin="53" yMin="85" xMax="861" yMax="1274">
      <contour>
        <pt x="817" y="1128" on="1"/>
        <pt x="608" y="1128" on="1"/>
        <pt x="546" y="1128" on="0"/>
        <pt x="488" y="1122" on="0"/>
        <pt x="451" y="1110" on="0"/>
        <pt x="423" y="1085" on="0"/>
        <pt x="406" y="1049" on="0"/>
        <pt x="406" y="1022" on="1"/>
        <pt x="406" y="988" on="0"/>
        <pt x="438" y="929" on="0"/>
        <pt x="514" y="854" on="0"/>
        <pt x="610" y="777" on="1"/>
        <pt x="710" y="696" on="0"/>
        <pt x="814" y="577" on="0"/>
        <pt x="861" y="458" on="0"/>
        <pt x="861" y="382" on="1"/>
        <pt x="861" y="294" on="0"/>
        <pt x="782" y="159" on="0"/>
        <pt x="637" y="85" on="0"/>
        <pt x="542" y="85" on="1"/>
        <pt x="464" y="85" on="0"/>
        <pt x="339" y="127" on="0"/>
        <pt x="227" y="217" on="0"/>
        <pt x="112" y="368" on="0"/>
        <pt x="53" y="474" on="1"/>
        <pt x="194" y="544" on="1"/>
        <pt x="257" y="431" on="0"/>
        <pt x="352" y="307" on="0"/>
        <pt x="461" y="236" on="0"/>
        <pt x="526" y="236" on="1"/>
        <pt x="604" y="236" on="0"/>
        <pt x="692" y="315" on="0"/>
        <pt x="692" y="386" on="1"/>
        <pt x="692" y="427" on="0"/>
        <pt x="671" y="492" on="0"/>
        <pt x="625" y="554" on="0"/>
        <pt x="548" y="627" on="0"/>
        <pt x="469" y="691" on="1"/>
        <pt x="381" y="761" on="0"/>
        <pt x="283" y="872" on="0"/>
        <pt x="241" y="970" on="0"/>
        <pt x="241" y="1025" on="1"/>
        <pt x="241" y="1088" on="0"/>
        <pt x="287" y="1182" on="0"/>
        <pt x="383" y="1249" on="0"/>
        <pt x="517" y="1274" on="0"/>
        <pt x="627" y="1274" on="1"/>
        <pt x="817" y="1274" on="1"/>
      </contour>
    </TTGlyph>
    <TTGlyph name="babardeva" xMin="0" yMin="0" xMax="1199" yMax="1274">
      <contour>
        <pt x="1199" y="1274" on="1"/>
        <pt x="1199" y="1128" on="1"/>
        <pt x="986" y="1128" on="1"/>
        <pt x="986" y="0" on="1"/>
        <pt x="168" y="0" on="1"/>
        <pt x="168" y="146" on="1"/>
        <pt x="822" y="146" on="1"/>
        <pt x="822" y="378" on="1"/>
        <pt x="744" y="327" on="0"/>
        <pt x="583" y="281" on="0"/>
        <pt x="493" y="281" on="1"/>
        <pt x="379" y="281" on="0"/>
        <pt x="197" y="367" on="0"/>
        <pt x="95" y="524" on="0"/>
        <pt x="95" y="626" on="1"/>
        <pt x="95" y="740" on="0"/>
        <pt x="206" y="905" on="0"/>
        <pt x="409" y="990" on="0"/>
        <pt x="542" y="990" on="1"/>
        <pt x="593" y="990" on="0"/>
        <pt x="728" y="977" on="0"/>
        <pt x="756" y="969" on="1"/>
        <pt x="744" y="828" on="1"/>
        <pt x="623" y="849" on="0"/>
        <pt x="548" y="849" on="1"/>
        <pt x="503" y="849" on="0"/>
        <pt x="479" y="845" on="1"/>
        <pt x="739" y="495" on="1"/>
        <pt x="786" y="527" on="0"/>
        <pt x="822" y="565" on="1"/>
        <pt x="822" y="1128" on="1"/>
        <pt x="0" y="1128" on="1"/>
        <pt x="0" y="1274" on="1"/>
      </contour>
      <contour>
        <pt x="621" y="436" on="1"/>
        <pt x="350" y="801" on="1"/>
        <pt x="260" y="743" on="0"/>
        <pt x="260" y="627" on="1"/>
        <pt x="260" y="557" on="0"/>
        <pt x="324" y="462" on="0"/>
        <pt x="430" y="417" on="0"/>
        <pt x="495" y="417" on="1"/>
        <pt x="560" y="417" on="0"/>
      </contour>
    </TTGlyph>
    <TTGlyph name="backslash.deva" xMin="86" yMin="-548" xMax="793" yMax="1836">
      <contour>
        <pt x="254" y="1703" on="1"/>
        <pt x="793" y="-339" on="1"/>
        <pt x="625" y="-339" on="1"/>
        <pt x="86" y="1703" on="1"/>
      </contour>
      <contour>
        <pt x="453" y="1274" on="1"/>
      </contour>
      <contour>
        <pt x="448" y="1836" on="1"/>
      </contour>
      <contour>
        <pt x="479" y="-548" on="1"/>
      </contour>
    </TTGlyph>
    <TTGlyph name="badeva" xMin="0" yMin="0" xMax="1199" yMax="1274">
      <contour>
        <pt x="1199" y="1274" on="1"/>
        <pt x="1199" y="1128" on="1"/>
        <pt x="986" y="1128" on="1"/>
        <pt x="986" y="0" on="1"/>
        <pt x="822" y="0" on="1"/>
        <pt x="822" y="338" on="1"/>
        <pt x="744" y="287" on="0"/>
        <pt x="583" y="241" on="0"/>
        <pt x="493" y="241" on="1"/>
        <pt x="379" y="241" on="0"/>
        <pt x="197" y="327" on="0"/>
        <pt x="95" y="484" on="0"/>
        <pt x="95" y="586" on="1"/>
        <pt x="95" y="700" on="0"/>
        <pt x="206" y="865" on="0"/>
        <pt x="409" y="950" on="0"/>
        <pt x="542" y="950" on="1"/>
        <pt x="593" y="950" on="0"/>
        <pt x="728" y="937" on="0"/>
        <pt x="756" y="929" on="1"/>
        <pt x="744" y="788" on="1"/>
        <pt x="623" y="809" on="0"/>
        <pt x="548" y="809" on="1"/>
        <pt x="507" y="809" on="0"/>
        <pt x="472" y="804" on="1"/>
        <pt x="747" y="460" on="1"/>
        <pt x="780" y="484" on="0"/>
        <pt x="822" y="525" on="1"/>
        <pt x="822" y="1128" on="1"/>
        <pt x="0" y="1128" on="1"/>
        <pt x="0" y="1274" on="1"/>
      </contour>
      <contour>
        <pt x="630" y="399" on="1"/>
        <pt x="344" y="757" on="1"/>
        <pt x="260" y="698" on="0"/>
        <pt x="260" y="587" on="1"/>
        <pt x="260" y="517" on="0"/>
        <pt x="324" y="422" on="0"/>
        <pt x="430" y="377" on="0"/>
        <pt x="495" y="377" on="1"/>
        <pt x="567" y="377" on="0"/>
      </contour>
    </TTGlyph>
    <TTGlyph name="banuktadeva" xMin="0" yMin="-96" xMax="1199" yMax="1274">
      <component glyphName="badeva" x="0" y="0" flags="0x204"/>
      <component glyphName="nuktadeva" x="970" y="298" flags="0x4"/>
    </TTGlyph>
    <TTGlyph name="banuktaprehalfdeva" xMin="0" yMin="-96" xMax="900" yMax="1274">
      <component glyphName="baprehalfdeva" x="0" y="0" flags="0x204"/>
      <component glyphName="nuktadeva" x="970" y="298" flags="0x4"/>
    </TTGlyph>
    <TTGlyph name="banuktaradeva" xMin="0" yMin="-309" xMax="1199" yMax="1274">
      <component glyphName="baradeva" x="0" y="0" flags="0x204"/>
      <component glyphName="nuktadeva" x="1102" y="85" flags="0x4"/>
    </TTGlyph>
    <TTGlyph name="banuktaraprehalfdeva" xMin="0" yMin="-309" xMax="900" yMax="1274">
      <component glyphName="baraprehalfdeva" x="0" y="0" flags="0x204"/>
      <component glyphName="nuktadeva" x="1102" y="85" flags="0x4"/>
    </TTGlyph>
    <TTGlyph name="baprehalfdeva" xMin="0" yMin="241" xMax="900" yMax="1274">
      <contour>
        <pt x="0" y="1128" on="1"/>
        <pt x="0" y="1274" on="1"/>
        <pt x="852" y="1274" on="1"/>
        <pt x="852" y="1128" on="1"/>
      </contour>
      <contour>
        <pt x="900" y="396" on="1"/>
        <pt x="805" y="316" on="0"/>
        <pt x="605" y="241" on="0"/>
        <pt x="493" y="241" on="1"/>
        <pt x="379" y="241" on="0"/>
        <pt x="197" y="327" on="0"/>
        <pt x="95" y="484" on="0"/>
        <pt x="95" y="586" on="1"/>
        <pt x="95" y="700" on="0"/>
        <pt x="206" y="865" on="0"/>
        <pt x="409" y="950" on="0"/>
        <pt x="542" y="950" on="1"/>
        <pt x="593" y="950" on="0"/>
        <pt x="728" y="937" on="0"/>
        <pt x="756" y="929" on="1"/>
        <pt x="744" y="788" on="1"/>
        <pt x="623" y="809" on="0"/>
        <pt x="548" y="809" on="1"/>
        <pt x="507" y="809" on="0"/>
        <pt x="472" y="804" on="1"/>
        <pt x="747" y="460" on="1"/>
        <pt x="780" y="484" on="0"/>
        <pt x="822" y="525" on="1"/>
      </contour>
      <contour>
        <pt x="630" y="399" on="1"/>
        <pt x="344" y="757" on="1"/>
        <pt x="260" y="698" on="0"/>
        <pt x="260" y="587" on="1"/>
        <pt x="260" y="517" on="0"/>
        <pt x="324" y="422" on="0"/>
        <pt x="430" y="377" on="0"/>
        <pt x="495" y="377" on="1"/>
        <pt x="567" y="377" on="0"/>
      </contour>
    </TTGlyph>
    <TTGlyph name="bar.deva" xMin="348" yMin="-548" xMax="626" yMax="1836">
      <contour>
        <pt x="479" y="1703" on="1"/>
        <pt x="626" y="1703" on="1"/>
        <pt x="626" y="-339" on="1"/>
        <pt x="479" y="-339" on="1"/>
      </contour>
      <contour>
        <pt x="353" y="1274" on="1"/>
      </contour>
      <contour>
        <pt x="348" y="1836" on="1"/>
      </contour>
      <contour>
        <pt x="479" y="-548" on="1"/>
      </contour>
    </TTGlyph>
    <TTGlyph name="baradeva" xMin="0" yMin="-50" xMax="1199" yMax="1274">
      <contour>
        <pt x="1199" y="1274" on="1"/>
        <pt x="1199" y="1128" on="1"/>
        <pt x="986" y="1128" on="1"/>
        <pt x="986" y="0" on="1"/>
        <pt x="822" y="0" on="1"/>
        <pt x="822" y="349" on="1"/>
        <pt x="212" y="-50" on="1"/>
        <pt x="116" y="84" on="1"/>
        <pt x="416" y="254" on="1"/>
        <pt x="265" y="275" on="0"/>
        <pt x="95" y="454" on="0"/>
        <pt x="95" y="586" on="1"/>
        <pt x="95" y="700" on="0"/>
        <pt x="206" y="865" on="0"/>
        <pt x="409" y="950" on="0"/>
        <pt x="542" y="950" on="1"/>
        <pt x="593" y="950" on="0"/>
        <pt x="728" y="937" on="0"/>
        <pt x="756" y="929" on="1"/>
        <pt x="744" y="788" on="1"/>
        <pt x="623" y="809" on="0"/>
        <pt x="548" y="809" on="1"/>
        <pt x="507" y="809" on="0"/>
        <pt x="472" y="804" on="1"/>
        <pt x="747" y="460" on="1"/>
        <pt x="780" y="484" on="0"/>
        <pt x="822" y="525" on="1"/>
        <pt x="822" y="1128" on="1"/>
        <pt x="0" y="1128" on="1"/>
        <pt x="0" y="1274" on="1"/>
      </contour>
      <contour>
        <pt x="630" y="399" on="1"/>
        <pt x="344" y="757" on="1"/>
        <pt x="260" y="698" on="0"/>
        <pt x="260" y="587" on="1"/>
        <pt x="260" y="517" on="0"/>
        <pt x="324" y="422" on="0"/>
        <pt x="430" y="377" on="0"/>
        <pt x="495" y="377" on="1"/>
        <pt x="567" y="377" on="0"/>
      </contour>
      <contour>
        <pt x="493" y="241" on="1"/>
      </contour>
    </TTGlyph>
    <TTGlyph name="baraprehalfdeva" xMin="0" yMin="-50" xMax="900" yMax="1274">
      <contour>
        <pt x="0" y="1128" on="1"/>
        <pt x="0" y="1274" on="1"/>
        <pt x="852" y="1274" on="1"/>
        <pt x="852" y="1128" on="1"/>
      </contour>
      <contour>
        <pt x="212" y="-50" on="1"/>
        <pt x="116" y="84" on="1"/>
        <pt x="416" y="254" on="1"/>
        <pt x="265" y="275" on="0"/>
        <pt x="95" y="454" on="0"/>
        <pt x="95" y="586" on="1"/>
        <pt x="95" y="700" on="0"/>
        <pt x="206" y="865" on="0"/>
        <pt x="409" y="950" on="0"/>
        <pt x="542" y="950" on="1"/>
        <pt x="593" y="950" on="0"/>
        <pt x="728" y="937" on="0"/>
        <pt x="756" y="929" on="1"/>
        <pt x="744" y="788" on="1"/>
        <pt x="623" y="809" on="0"/>
        <pt x="548" y="809" on="1"/>
        <pt x="507" y="809" on="0"/>
        <pt x="472" y="804" on="1"/>
        <pt x="747" y="460" on="1"/>
        <pt x="780" y="484" on="0"/>
        <pt x="822" y="525" on="1"/>
        <pt x="900" y="391" on="1"/>
      </contour>
      <contour>
        <pt x="630" y="399" on="1"/>
        <pt x="344" y="757" on="1"/>
        <pt x="260" y="698" on="0"/>
        <pt x="260" y="587" on="1"/>
        <pt x="260" y="517" on="0"/>
        <pt x="324" y="422" on="0"/>
        <pt x="430" y="377" on="0"/>
        <pt x="495" y="377" on="1"/>
        <pt x="567" y="377" on="0"/>
      </contour>
      <contour>
        <pt x="493" y="241" on="1"/>
      </contour>
    </TTGlyph>
    <TTGlyph name="bhadeva" xMin="95" yMin="0" xMax="1469" yMax="1294">
      <contour>
        <pt x="679" y="657" on="1"/>
        <pt x="1091" y="657" on="1"/>
        <pt x="1091" y="1128" on="1"/>
        <pt x="824" y="1128" on="1"/>
        <pt x="824" y="1274" on="1"/>
        <pt x="1469" y="1274" on="1"/>
        <pt x="1469" y="1128" on="1"/>
        <pt x="1256" y="1128" on="1"/>
        <pt x="1256" y="0" on="1"/>
        <pt x="1091" y="0" on="1"/>
        <pt x="1091" y="511" on="1"/>
        <pt x="679" y="511" on="1"/>
        <pt x="679" y="437" on="1"/>
        <pt x="679" y="377" on="0"/>
        <pt x="625" y="309" on="0"/>
        <pt x="580" y="309" on="1"/>
        <pt x="532" y="309" on="0"/>
        <pt x="416" y="392" on="0"/>
        <pt x="335" y="519" on="0"/>
        <pt x="335" y="569" on="1"/>
        <pt x="335" y="612" on="0"/>
        <pt x="398" y="657" on="0"/>
        <pt x="459" y="657" on="1"/>
        <pt x="519" y="657" on="1"/>
        <pt x="519" y="873" on="1"/>
        <pt x="519" y="995" on="0"/>
        <pt x="481" y="1108" on="0"/>
        <pt x="404" y="1163" on="0"/>
        <pt x="346" y="1163" on="1"/>
        <pt x="290" y="1163" on="0"/>
        <pt x="233" y="1110" on="0"/>
        <pt x="233" y="1068" on="1"/>
        <pt x="233" y="1006" on="0"/>
        <pt x="338" y="947" on="0"/>
        <pt x="446" y="942" on="1"/>
        <pt x="431" y="796" on="1"/>
        <pt x="95" y="824" on="0"/>
        <pt x="95" y="1064" on="1"/>
        <pt x="95" y="1141" on="0"/>
        <pt x="165" y="1245" on="0"/>
        <pt x="283" y="1294" on="0"/>
        <pt x="356" y="1294" on="1"/>
        <pt x="427" y="1294" on="0"/>
        <pt x="546" y="1254" on="0"/>
        <pt x="641" y="1152" on="0"/>
        <pt x="679" y="1002" on="0"/>
        <pt x="679" y="894" on="1"/>
      </contour>
    </TTGlyph>
    <TTGlyph name="bhanuktadeva" xMin="95" yMin="-55" xMax="1469" yMax="1294">
      <component glyphName="bhadeva" x="0" y="0" flags="0x204"/>
      <component glyphName="nukta2deva" x="1190" y="339" flags="0x4"/>
    </TTGlyph>
    <TTGlyph name="bhanuktaprehalfdeva" xMin="95" yMin="-55" xMax="1091" yMax="1294">
      <component glyphName="bhaprehalfdeva" x="0" y="0" flags="0x204"/>
      <component glyphName="nuktadeva" x="1190" y="339" flags="0x4"/>
    </TTGlyph>
    <TTGlyph name="bhanuktaradeva" xMin="95" yMin="-394" xMax="1469" yMax="1294">
      <component glyphName="bharadeva" x="0" y="0" flags="0x204"/>
      <component glyphName="nuktadeva" x="1324" y="0" flags="0x4"/>
    </TTGlyph>
    <TTGlyph name="bhanuktaraprehalfdeva" xMin="95" yMin="-394" xMax="1175" yMax="1294">
      <component glyphName="bharaprehalfdeva" x="0" y="0" flags="0x204"/>
      <component glyphName="nuktadeva" x="1324" y="0" flags="0x4"/>
    </TTGlyph>
    <TTGlyph name="bhaprehalfdeva" xMin="95" yMin="309" xMax="1091" yMax="1294">
      <contour>
        <pt x="679" y="511" on="1"/>
        <pt x="679" y="437" on="1"/>
        <pt x="679" y="377" on="0"/>
        <pt x="625" y="309" on="0"/>
        <pt x="580" y="309" on="1"/>
        <pt x="532" y="309" on="0"/>
        <pt x="416" y="392" on="0"/>
        <pt x="335" y="519" on="0"/>
        <pt x="335" y="569" on="1"/>
        <pt x="335" y="612" on="0"/>
        <pt x="398" y="657" on="0"/>
        <pt x="459" y="657" on="1"/>
        <pt x="519" y="657" on="1"/>
        <pt x="519" y="873" on="1"/>
        <pt x="519" y="995" on="0"/>
        <pt x="481" y="1108" on="0"/>
        <pt x="404" y="1163" on="0"/>
        <pt x="346" y="1163" on="1"/>
        <pt x="290" y="1163" on="0"/>
        <pt x="233" y="1110" on="0"/>
        <pt x="233" y="1068" on="1"/>
        <pt x="233" y="1006" on="0"/>
        <pt x="338" y="947" on="0"/>
        <pt x="446" y="942" on="1"/>
        <pt x="431" y="796" on="1"/>
        <pt x="95" y="824" on="0"/>
        <pt x="95" y="1064" on="1"/>
        <pt x="95" y="1141" on="0"/>
        <pt x="165" y="1245" on="0"/>
        <pt x="283" y="1294" on="0"/>
        <pt x="356" y="1294" on="1"/>
        <pt x="427" y="1294" on="0"/>
        <pt x="546" y="1254" on="0"/>
        <pt x="641" y="1152" on="0"/>
        <pt x="679" y="1002" on="0"/>
        <pt x="679" y="894" on="1"/>
        <pt x="679" y="657" on="1"/>
        <pt x="1091" y="657" on="1"/>
        <pt x="1091" y="511" on="1"/>
      </contour>
      <contour>
        <pt x="824" y="1128" on="1"/>
        <pt x="824" y="1274" on="1"/>
        <pt x="930" y="1274" on="1"/>
        <pt x="930" y="1128" on="1"/>
      </contour>
    </TTGlyph>
    <TTGlyph name="bharadeva" xMin="95" yMin="-50" xMax="1469" yMax="1294">
      <contour>
        <pt x="679" y="657" on="1"/>
        <pt x="1091" y="657" on="1"/>
        <pt x="1091" y="1128" on="1"/>
        <pt x="824" y="1128" on="1"/>
        <pt x="824" y="1274" on="1"/>
        <pt x="1469" y="1274" on="1"/>
        <pt x="1469" y="1128" on="1"/>
        <pt x="1256" y="1128" on="1"/>
        <pt x="1256" y="0" on="1"/>
        <pt x="1091" y="0" on="1"/>
        <pt x="1091" y="251" on="1"/>
        <pt x="638" y="-50" on="1"/>
        <pt x="540" y="88" on="1"/>
        <pt x="1091" y="421" on="1"/>
        <pt x="1091" y="511" on="1"/>
        <pt x="679" y="511" on="1"/>
        <pt x="679" y="437" on="1"/>
        <pt x="679" y="377" on="0"/>
        <pt x="625" y="309" on="0"/>
        <pt x="580" y="309" on="1"/>
        <pt x="532" y="309" on="0"/>
        <pt x="416" y="392" on="0"/>
        <pt x="335" y="519" on="0"/>
        <pt x="335" y="569" on="1"/>
        <pt x="335" y="612" on="0"/>
        <pt x="398" y="657" on="0"/>
        <pt x="459" y="657" on="1"/>
        <pt x="519" y="657" on="1"/>
        <pt x="519" y="873" on="1"/>
        <pt x="519" y="995" on="0"/>
        <pt x="481" y="1108" on="0"/>
        <pt x="404" y="1163" on="0"/>
        <pt x="346" y="1163" on="1"/>
        <pt x="290" y="1163" on="0"/>
        <pt x="233" y="1110" on="0"/>
        <pt x="233" y="1068" on="1"/>
        <pt x="233" y="1006" on="0"/>
        <pt x="338" y="947" on="0"/>
        <pt x="446" y="942" on="1"/>
        <pt x="431" y="796" on="1"/>
        <pt x="95" y="824" on="0"/>
        <pt x="95" y="1064" on="1"/>
        <pt x="95" y="1141" on="0"/>
        <pt x="165" y="1245" on="0"/>
        <pt x="283" y="1294" on="0"/>
        <pt x="356" y="1294" on="1"/>
        <pt x="427" y="1294" on="0"/>
        <pt x="546" y="1254" on="0"/>
        <pt x="641" y="1152" on="0"/>
        <pt x="679" y="1002" on="0"/>
        <pt x="679" y="894" on="1"/>
      </contour>
    </TTGlyph>
    <TTGlyph name="bharaprehalfdeva" xMin="95" yMin="-50" xMax="1175" yMax="1294">
      <contour>
        <pt x="679" y="511" on="1"/>
        <pt x="679" y="437" on="1"/>
        <pt x="679" y="377" on="0"/>
        <pt x="625" y="309" on="0"/>
        <pt x="580" y="309" on="1"/>
        <pt x="532" y="309" on="0"/>
        <pt x="416" y="392" on="0"/>
        <pt x="335" y="519" on="0"/>
        <pt x="335" y="569" on="1"/>
        <pt x="335" y="612" on="0"/>
        <pt x="398" y="657" on="0"/>
        <pt x="459" y="657" on="1"/>
        <pt x="519" y="657" on="1"/>
        <pt x="519" y="873" on="1"/>
        <pt x="519" y="995" on="0"/>
        <pt x="481" y="1108" on="0"/>
        <pt x="404" y="1163" on="0"/>
        <pt x="346" y="1163" on="1"/>
        <pt x="290" y="1163" on="0"/>
        <pt x="233" y="1110" on="0"/>
        <pt x="233" y="1068" on="1"/>
        <pt x="233" y="1006" on="0"/>
        <pt x="338" y="947" on="0"/>
        <pt x="446" y="942" on="1"/>
        <pt x="431" y="796" on="1"/>
        <pt x="95" y="824" on="0"/>
        <pt x="95" y="1064" on="1"/>
        <pt x="95" y="1141" on="0"/>
        <pt x="165" y="1245" on="0"/>
        <pt x="283" y="1294" on="0"/>
        <pt x="356" y="1294" on="1"/>
        <pt x="427" y="1294" on="0"/>
        <pt x="546" y="1254" on="0"/>
        <pt x="641" y="1152" on="0"/>
        <pt x="679" y="1002" on="0"/>
        <pt x="679" y="894" on="1"/>
        <pt x="679" y="657" on="1"/>
        <pt x="1091" y="657" on="1"/>
        <pt x="1091" y="511" on="1"/>
      </contour>
      <contour>
        <pt x="824" y="1128" on="1"/>
        <pt x="824" y="1274" on="1"/>
        <pt x="1121" y="1274" on="1"/>
        <pt x="1121" y="1128" on="1"/>
      </contour>
      <contour>
        <pt x="1175" y="304" on="1"/>
        <pt x="638" y="-50" on="1"/>
        <pt x="540" y="88" on="1"/>
        <pt x="1091" y="421" on="1"/>
      </contour>
    </TTGlyph>
    <TTGlyph name="braceleft.deva" xMin="90" yMin="-548" xMax="691" yMax="1836">
      <contour>
        <pt x="507" y="-37" on="1"/>
        <pt x="507" y="-84" on="0"/>
        <pt x="533" y="-144" on="0"/>
        <pt x="580" y="-178" on="0"/>
        <pt x="648" y="-191" on="0"/>
        <pt x="691" y="-192" on="1"/>
        <pt x="691" y="-339" on="1"/>
        <pt x="615" y="-338" on="0"/>
        <pt x="487" y="-305" on="0"/>
        <pt x="394" y="-236" on="0"/>
        <pt x="341" y="-128" on="0"/>
        <pt x="341" y="-51" on="1"/>
        <pt x="341" y="421" on="1"/>
        <pt x="341" y="522" on="0"/>
        <pt x="212" y="606" on="0"/>
        <pt x="90" y="606" on="1"/>
        <pt x="90" y="758" on="1"/>
        <pt x="212" y="758" on="0"/>
        <pt x="341" y="842" on="0"/>
        <pt x="341" y="943" on="1"/>
        <pt x="341" y="1416" on="1"/>
        <pt x="341" y="1492" on="0"/>
        <pt x="394" y="1600" on="0"/>
        <pt x="487" y="1669" on="0"/>
        <pt x="615" y="1702" on="0"/>
        <pt x="691" y="1703" on="1"/>
        <pt x="691" y="1557" on="1"/>
        <pt x="648" y="1556" on="0"/>
        <pt x="580" y="1543" on="0"/>
        <pt x="533" y="1509" on="0"/>
        <pt x="507" y="1449" on="0"/>
        <pt x="507" y="1402" on="1"/>
        <pt x="507" y="931" on="1"/>
        <pt x="507" y="828" on="0"/>
        <pt x="397" y="707" on="0"/>
        <pt x="291" y="687" on="1"/>
        <pt x="291" y="676" on="1"/>
        <pt x="397" y="656" on="0"/>
        <pt x="507" y="537" on="0"/>
        <pt x="507" y="433" on="1"/>
      </contour>
      <contour>
        <pt x="253" y="1274" on="1"/>
      </contour>
      <contour>
        <pt x="248" y="1836" on="1"/>
      </contour>
      <contour>
        <pt x="479" y="-548" on="1"/>
      </contour>
    </TTGlyph>
    <TTGlyph name="braceright.deva" xMin="110" yMin="-548" xMax="711" yMax="1836">
      <contour>
        <pt x="293" y="433" on="1"/>
        <pt x="293" y="537" on="0"/>
        <pt x="403" y="656" on="0"/>
        <pt x="510" y="676" on="1"/>
        <pt x="510" y="687" on="1"/>
        <pt x="403" y="707" on="0"/>
        <pt x="293" y="828" on="0"/>
        <pt x="293" y="931" on="1"/>
        <pt x="293" y="1402" on="1"/>
        <pt x="293" y="1449" on="0"/>
        <pt x="268" y="1509" on="0"/>
        <pt x="221" y="1543" on="0"/>
        <pt x="152" y="1556" on="0"/>
        <pt x="110" y="1557" on="1"/>
        <pt x="110" y="1703" on="1"/>
        <pt x="185" y="1702" on="0"/>
        <pt x="314" y="1669" on="0"/>
        <pt x="407" y="1600" on="0"/>
        <pt x="460" y="1492" on="0"/>
        <pt x="460" y="1416" on="1"/>
        <pt x="460" y="943" on="1"/>
        <pt x="460" y="892" on="0"/>
        <pt x="492" y="822" on="0"/>
        <pt x="556" y="778" on="0"/>
        <pt x="650" y="758" on="0"/>
        <pt x="711" y="758" on="1"/>
        <pt x="711" y="606" on="1"/>
        <pt x="588" y="606" on="0"/>
        <pt x="460" y="522" on="0"/>
        <pt x="460" y="421" on="1"/>
        <pt x="460" y="-51" on="1"/>
        <pt x="460" y="-128" on="0"/>
        <pt x="407" y="-236" on="0"/>
        <pt x="314" y="-305" on="0"/>
        <pt x="185" y="-338" on="0"/>
        <pt x="110" y="-339" on="1"/>
        <pt x="110" y="-192" on="1"/>
        <pt x="152" y="-191" on="0"/>
        <pt x="221" y="-178" on="0"/>
        <pt x="268" y="-144" on="0"/>
        <pt x="293" y="-84" on="0"/>
        <pt x="293" y="-37" on="1"/>
      </contour>
      <contour>
        <pt x="553" y="1274" on="1"/>
      </contour>
      <contour>
        <pt x="548" y="1836" on="1"/>
      </contour>
      <contour>
        <pt x="479" y="-548" on="1"/>
      </contour>
    </TTGlyph>
    <TTGlyph name="bracketleft.deva" xMin="221" yMin="-548" xMax="618" yMax="1836">
      <contour>
        <pt x="618" y="-339" on="1"/>
        <pt x="221" y="-339" on="1"/>
        <pt x="221" y="1704" on="1"/>
        <pt x="618" y="1704" on="1"/>
        <pt x="618" y="1561" on="1"/>
        <pt x="386" y="1561" on="1"/>
        <pt x="386" y="-196" on="1"/>
        <pt x="618" y="-196" on="1"/>
      </contour>
      <contour>
        <pt x="453" y="1274" on="1"/>
      </contour>
      <contour>
        <pt x="448" y="1836" on="1"/>
      </contour>
      <contour>
        <pt x="479" y="-548" on="1"/>
      </contour>
    </TTGlyph>
    <TTGlyph name="bracketright.deva" xMin="110" yMin="-548" xMax="508" yMax="1836">
      <contour>
        <pt x="110" y="-196" on="1"/>
        <pt x="341" y="-196" on="1"/>
        <pt x="341" y="1560" on="1"/>
        <pt x="110" y="1560" on="1"/>
        <pt x="110" y="1703" on="1"/>
        <pt x="508" y="1703" on="1"/>
        <pt x="508" y="-339" on="1"/>
        <pt x="110" y="-339" on="1"/>
      </contour>
      <contour>
        <pt x="253" y="1274" on="1"/>
      </contour>
      <contour>
        <pt x="248" y="1836" on="1"/>
      </contour>
      <contour>
        <pt x="479" y="-548" on="1"/>
      </contour>
    </TTGlyph>
    <TTGlyph name="cadeva" xMin="0" yMin="0" xMax="1329" yMax="1274">
      <contour>
        <pt x="1329" y="1274" on="1"/>
        <pt x="1329" y="1128" on="1"/>
        <pt x="1116" y="1128" on="1"/>
        <pt x="1116" y="0" on="1"/>
        <pt x="952" y="0" on="1"/>
        <pt x="952" y="338" on="1"/>
        <pt x="913" y="313" on="0"/>
        <pt x="854" y="282" on="0"/>
        <pt x="783" y="256" on="0"/>
        <pt x="700" y="241" on="0"/>
        <pt x="650" y="241" on="1"/>
        <pt x="546" y="241" on="0"/>
        <pt x="381" y="320" on="0"/>
        <pt x="288" y="468" on="0"/>
        <pt x="288" y="563" on="1"/>
        <pt x="288" y="621" on="0"/>
        <pt x="335" y="722" on="0"/>
        <pt x="378" y="759" on="1"/>
        <pt x="77" y="756" on="1"/>
        <pt x="77" y="904" on="1"/>
        <pt x="678" y="904" on="1"/>
        <pt x="759" y="904" on="0"/>
        <pt x="797" y="901" on="1"/>
        <pt x="783" y="758" on="1"/>
        <pt x="717" y="758" on="1"/>
        <pt x="594" y="758" on="0"/>
        <pt x="453" y="654" on="0"/>
        <pt x="453" y="562" on="1"/>
        <pt x="453" y="504" on="0"/>
        <pt x="510" y="422" on="0"/>
        <pt x="598" y="385" on="0"/>
        <pt x="650" y="385" on="1"/>
        <pt x="711" y="385" on="0"/>
        <pt x="815" y="421" on="0"/>
        <pt x="901" y="481" on="0"/>
        <pt x="952" y="532" on="1"/>
        <pt x="952" y="1128" on="1"/>
        <pt x="0" y="1128" on="1"/>
        <pt x="0" y="1274" on="1"/>
      </contour>
    </TTGlyph>
    <TTGlyph name="candrabindudeva" xMin="-720" yMin="1274" xMax="141" yMax="1836">
      <contour>
        <pt x="-284" y="1836" on="1"/>
        <pt x="-243" y="1836" on="0"/>
        <pt x="-182" y="1777" on="0"/>
        <pt x="-182" y="1734" on="1"/>
        <pt x="-182" y="1691" on="0"/>
        <pt x="-243" y="1632" on="0"/>
        <pt x="-284" y="1632" on="1"/>
        <pt x="-325" y="1632" on="0"/>
        <pt x="-386" y="1691" on="0"/>
        <pt x="-386" y="1734" on="1"/>
        <pt x="-386" y="1777" on="0"/>
        <pt x="-325" y="1836" on="0"/>
      </contour>
      <contour>
        <pt x="141" y="1768" on="1"/>
        <pt x="98" y="1580" on="0"/>
        <pt x="-110" y="1393" on="0"/>
        <pt x="-282" y="1393" on="1"/>
        <pt x="-587" y="1393" on="0"/>
        <pt x="-720" y="1768" on="1"/>
        <pt x="-579" y="1817" on="1"/>
        <pt x="-525" y="1667" on="0"/>
        <pt x="-383" y="1530" on="0"/>
        <pt x="-277" y="1530" on="1"/>
        <pt x="-203" y="1530" on="0"/>
        <pt x="-102" y="1593" on="0"/>
        <pt x="-37" y="1713" on="0"/>
        <pt x="-10" y="1820" on="1"/>
      </contour>
      <contour>
        <pt x="-348" y="1274" on="1"/>
      </contour>
    </TTGlyph>
    <TTGlyph name="candrabindusmalldeva" xMin="-670" yMin="1274" xMax="91" yMax="1836">
      <contour>
        <pt x="-376" y="1744" on="1"/>
        <pt x="-376" y="1763" on="0"/>
        <pt x="-362" y="1797" on="0"/>
        <pt x="-337" y="1822" on="0"/>
        <pt x="-303" y="1836" on="0"/>
        <pt x="-284" y="1836" on="1"/>
        <pt x="-265" y="1836" on="0"/>
        <pt x="-231" y="1822" on="0"/>
        <pt x="-206" y="1797" on="0"/>
        <pt x="-192" y="1763" on="0"/>
        <pt x="-192" y="1744" on="1"/>
        <pt x="-192" y="1725" on="0"/>
        <pt x="-206" y="1691" on="0"/>
        <pt x="-231" y="1666" on="0"/>
        <pt x="-265" y="1652" on="0"/>
        <pt x="-284" y="1652" on="1"/>
        <pt x="-303" y="1652" on="0"/>
        <pt x="-337" y="1666" on="0"/>
        <pt x="-362" y="1691" on="0"/>
        <pt x="-376" y="1725" on="0"/>
      </contour>
      <contour>
        <pt x="91" y="1788" on="1"/>
        <pt x="70" y="1692" on="0"/>
        <pt x="2" y="1559" on="0"/>
        <pt x="-91" y="1476" on="0"/>
        <pt x="-210" y="1439" on="0"/>
        <pt x="-283" y="1439" on="1"/>
        <pt x="-420" y="1439" on="0"/>
        <pt x="-609" y="1607" on="0"/>
        <pt x="-670" y="1787" on="1"/>
        <pt x="-539" y="1833" on="1"/>
        <pt x="-516" y="1765" on="0"/>
        <pt x="-467" y="1665" on="0"/>
        <pt x="-406" y="1599" on="0"/>
        <pt x="-330" y="1566" on="0"/>
        <pt x="-279" y="1566" on="1"/>
        <pt x="-225" y="1566" on="0"/>
        <pt x="-150" y="1603" on="0"/>
        <pt x="-99" y="1672" on="0"/>
        <pt x="-65" y="1772" on="0"/>
        <pt x="-50" y="1836" on="1"/>
      </contour>
      <contour>
        <pt x="-348" y="1274" on="1"/>
      </contour>
    </TTGlyph>
    <TTGlyph name="canuktadeva" xMin="0" yMin="-96" xMax="1329" yMax="1274">
      <component glyphName="cadeva" x="0" y="0" flags="0x204"/>
      <component glyphName="nuktadeva" x="980" y="298" flags="0x4"/>
    </TTGlyph>
    <TTGlyph name="canuktaprehalfdeva" xMin="0" yMin="-96" xMax="1034" yMax="1274">
      <component glyphName="caprehalfdeva" x="0" y="0" flags="0x204"/>
      <component glyphName="nuktadeva" x="980" y="298" flags="0x4"/>
    </TTGlyph>
    <TTGlyph name="canuktaradeva" xMin="0" yMin="-309" xMax="1329" yMax="1274">
      <component glyphName="caradeva" x="0" y="0" flags="0x204"/>
      <component glyphName="nuktadeva" x="1217" y="85" flags="0x4"/>
    </TTGlyph>
    <TTGlyph name="canuktaraprehalfdeva" xMin="0" yMin="-309" xMax="1034" yMax="1274">
      <component glyphName="caraprehalfdeva" x="0" y="0" flags="0x204"/>
      <component glyphName="nuktadeva" x="1217" y="85" flags="0x4"/>
    </TTGlyph>
    <TTGlyph name="caprehalfdeva" xMin="0" yMin="241" xMax="1034" yMax="1274">
      <contour>
        <pt x="0" y="1128" on="1"/>
        <pt x="0" y="1274" on="1"/>
        <pt x="840" y="1274" on="1"/>
        <pt x="840" y="1128" on="1"/>
      </contour>
      <contour>
        <pt x="1034" y="405" on="1"/>
        <pt x="970" y="350" on="0"/>
        <pt x="885" y="297" on="0"/>
        <pt x="788" y="258" on="0"/>
        <pt x="700" y="241" on="0"/>
        <pt x="650" y="241" on="1"/>
        <pt x="546" y="241" on="0"/>
        <pt x="381" y="320" on="0"/>
        <pt x="288" y="468" on="0"/>
        <pt x="288" y="563" on="1"/>
        <pt x="288" y="621" on="0"/>
        <pt x="335" y="722" on="0"/>
        <pt x="378" y="759" on="1"/>
        <pt x="77" y="756" on="1"/>
        <pt x="77" y="904" on="1"/>
        <pt x="678" y="904" on="1"/>
        <pt x="759" y="904" on="0"/>
        <pt x="797" y="901" on="1"/>
        <pt x="783" y="758" on="1"/>
        <pt x="717" y="758" on="1"/>
        <pt x="594" y="758" on="0"/>
        <pt x="453" y="654" on="0"/>
        <pt x="453" y="562" on="1"/>
        <pt x="453" y="504" on="0"/>
        <pt x="510" y="422" on="0"/>
        <pt x="598" y="385" on="0"/>
        <pt x="650" y="385" on="1"/>
        <pt x="711" y="385" on="0"/>
        <pt x="815" y="421" on="0"/>
        <pt x="901" y="481" on="0"/>
        <pt x="952" y="532" on="1"/>
      </contour>
    </TTGlyph>
    <TTGlyph name="caradeva" xMin="0" yMin="-50" xMax="1329" yMax="1274">
      <contour>
        <pt x="1329" y="1274" on="1"/>
        <pt x="1329" y="1128" on="1"/>
        <pt x="1116" y="1128" on="1"/>
        <pt x="1116" y="0" on="1"/>
        <pt x="952" y="0" on="1"/>
        <pt x="952" y="350" on="1"/>
        <pt x="341" y="-50" on="1"/>
        <pt x="245" y="84" on="1"/>
        <pt x="550" y="257" on="1"/>
        <pt x="427" y="283" on="0"/>
        <pt x="288" y="446" on="0"/>
        <pt x="288" y="563" on="1"/>
        <pt x="288" y="621" on="0"/>
        <pt x="335" y="722" on="0"/>
        <pt x="378" y="759" on="1"/>
        <pt x="77" y="756" on="1"/>
        <pt x="77" y="904" on="1"/>
        <pt x="678" y="904" on="1"/>
        <pt x="759" y="904" on="0"/>
        <pt x="797" y="901" on="1"/>
        <pt x="783" y="758" on="1"/>
        <pt x="717" y="758" on="1"/>
        <pt x="594" y="758" on="0"/>
        <pt x="453" y="654" on="0"/>
        <pt x="453" y="562" on="1"/>
        <pt x="453" y="504" on="0"/>
        <pt x="510" y="422" on="0"/>
        <pt x="598" y="385" on="0"/>
        <pt x="650" y="385" on="1"/>
        <pt x="711" y="385" on="0"/>
        <pt x="815" y="421" on="0"/>
        <pt x="901" y="481" on="0"/>
        <pt x="952" y="532" on="1"/>
        <pt x="952" y="1128" on="1"/>
        <pt x="0" y="1128" on="1"/>
        <pt x="0" y="1274" on="1"/>
      </contour>
      <contour>
        <pt x="650" y="241" on="1"/>
      </contour>
    </TTGlyph>
    <TTGlyph name="caraprehalfdeva" xMin="0" yMin="-50" xMax="1034" yMax="1274">
      <contour>
        <pt x="0" y="1128" on="1"/>
        <pt x="0" y="1274" on="1"/>
        <pt x="840" y="1274" on="1"/>
        <pt x="840" y="1128" on="1"/>
      </contour>
      <contour>
        <pt x="341" y="-50" on="1"/>
        <pt x="245" y="84" on="1"/>
        <pt x="550" y="257" on="1"/>
        <pt x="427" y="283" on="0"/>
        <pt x="288" y="446" on="0"/>
        <pt x="288" y="563" on="1"/>
        <pt x="288" y="621" on="0"/>
        <pt x="335" y="722" on="0"/>
        <pt x="378" y="759" on="1"/>
        <pt x="77" y="756" on="1"/>
        <pt x="77" y="904" on="1"/>
        <pt x="678" y="904" on="1"/>
        <pt x="759" y="904" on="0"/>
        <pt x="797" y="901" on="1"/>
        <pt x="783" y="758" on="1"/>
        <pt x="717" y="758" on="1"/>
        <pt x="594" y="758" on="0"/>
        <pt x="453" y="654" on="0"/>
        <pt x="453" y="562" on="1"/>
        <pt x="453" y="504" on="0"/>
        <pt x="510" y="422" on="0"/>
        <pt x="598" y="385" on="0"/>
        <pt x="650" y="385" on="1"/>
        <pt x="711" y="385" on="0"/>
        <pt x="815" y="421" on="0"/>
        <pt x="901" y="481" on="0"/>
        <pt x="952" y="532" on="1"/>
        <pt x="1034" y="398" on="1"/>
      </contour>
      <contour>
        <pt x="650" y="241" on="1"/>
      </contour>
    </TTGlyph>
    <TTGlyph name="chaaltdeva" xMin="0" yMin="0" xMax="1465" yMax="1274">
      <contour>
        <pt x="1095" y="666" on="1"/>
        <pt x="1028" y="537" on="1"/>
        <pt x="874" y="574" on="0"/>
        <pt x="711" y="717" on="0"/>
        <pt x="711" y="816" on="1"/>
        <pt x="711" y="903" on="0"/>
        <pt x="826" y="1020" on="0"/>
        <pt x="931" y="1035" on="1"/>
        <pt x="931" y="1128" on="1"/>
        <pt x="0" y="1128" on="1"/>
        <pt x="0" y="1274" on="1"/>
        <pt x="1465" y="1274" on="1"/>
        <pt x="1465" y="1128" on="1"/>
        <pt x="1096" y="1128" on="1"/>
        <pt x="1096" y="1029" on="1"/>
        <pt x="1213" y="1002" on="0"/>
        <pt x="1337" y="850" on="0"/>
        <pt x="1337" y="736" on="1"/>
        <pt x="1337" y="637" on="0"/>
        <pt x="1236" y="447" on="0"/>
        <pt x="1042" y="292" on="0"/>
        <pt x="766" y="203" on="0"/>
        <pt x="606" y="203" on="1"/>
        <pt x="477" y="203" on="0"/>
        <pt x="297" y="268" on="0"/>
        <pt x="207" y="386" on="0"/>
        <pt x="207" y="463" on="1"/>
        <pt x="207" y="497" on="0"/>
        <pt x="232" y="567" on="0"/>
        <pt x="259" y="598" on="1"/>
        <pt x="88" y="675" on="0"/>
        <pt x="88" y="819" on="1"/>
        <pt x="88" y="889" on="0"/>
        <pt x="172" y="989" on="0"/>
        <pt x="323" y="1040" on="0"/>
        <pt x="421" y="1040" on="1"/>
        <pt x="462" y="1040" on="0"/>
        <pt x="566" y="1027" on="0"/>
        <pt x="589" y="1019" on="1"/>
        <pt x="577" y="880" on="1"/>
        <pt x="505" y="899" on="0"/>
        <pt x="435" y="899" on="1"/>
        <pt x="344" y="899" on="0"/>
        <pt x="253" y="853" on="0"/>
        <pt x="253" y="803" on="1"/>
        <pt x="253" y="764" on="0"/>
        <pt x="331" y="713" on="0"/>
        <pt x="411" y="699" on="1"/>
        <pt x="469" y="715" on="0"/>
        <pt x="545" y="715" on="1"/>
        <pt x="591" y="715" on="0"/>
        <pt x="631" y="709" on="1"/>
        <pt x="618" y="566" on="1"/>
        <pt x="595" y="569" on="0"/>
        <pt x="555" y="569" on="1"/>
        <pt x="462" y="569" on="0"/>
        <pt x="372" y="515" on="0"/>
        <pt x="372" y="464" on="1"/>
        <pt x="372" y="404" on="0"/>
        <pt x="490" y="347" on="0"/>
        <pt x="606" y="347" on="1"/>
        <pt x="761" y="347" on="0"/>
        <pt x="1026" y="450" on="0"/>
        <pt x="1176" y="628" on="0"/>
        <pt x="1176" y="733" on="1"/>
        <pt x="1176" y="782" on="0"/>
        <pt x="1134" y="862" on="0"/>
        <pt x="1053" y="909" on="0"/>
        <pt x="997" y="909" on="1"/>
        <pt x="935" y="909" on="0"/>
        <pt x="869" y="860" on="0"/>
        <pt x="869" y="815" on="1"/>
        <pt x="869" y="760" on="0"/>
        <pt x="985" y="684" on="0"/>
      </contour>
      <contour>
        <pt x="931" y="1274" on="1"/>
      </contour>
      <contour>
        <pt x="777" y="0" on="1"/>
      </contour>
      <contour>
        <pt x="1186" y="295" on="1"/>
      </contour>
    </TTGlyph>
    <TTGlyph name="chadeva" xMin="0" yMin="0" xMax="1465" yMax="1274">
      <contour>
        <pt x="1095" y="534" on="1"/>
        <pt x="1028" y="405" on="1"/>
        <pt x="874" y="448" on="0"/>
        <pt x="711" y="614" on="0"/>
        <pt x="711" y="729" on="1"/>
        <pt x="711" y="830" on="0"/>
        <pt x="826" y="967" on="0"/>
        <pt x="931" y="985" on="1"/>
        <pt x="931" y="1128" on="1"/>
        <pt x="0" y="1128" on="1"/>
        <pt x="0" y="1274" on="1"/>
        <pt x="1465" y="1274" on="1"/>
        <pt x="1465" y="1128" on="1"/>
        <pt x="1096" y="1128" on="1"/>
        <pt x="1096" y="978" on="1"/>
        <pt x="1212" y="947" on="0"/>
        <pt x="1337" y="766" on="0"/>
        <pt x="1337" y="630" on="1"/>
        <pt x="1337" y="515" on="0"/>
        <pt x="1238" y="291" on="0"/>
        <pt x="1044" y="106" on="0"/>
        <pt x="768" y="0" on="0"/>
        <pt x="606" y="0" on="1"/>
        <pt x="477" y="0" on="0"/>
        <pt x="296" y="77" on="0"/>
        <pt x="207" y="212" on="0"/>
        <pt x="207" y="301" on="1"/>
        <pt x="207" y="345" on="0"/>
        <pt x="238" y="436" on="0"/>
        <pt x="271" y="473" on="1"/>
        <pt x="180" y="517" on="0"/>
        <pt x="88" y="651" on="0"/>
        <pt x="88" y="735" on="1"/>
        <pt x="88" y="816" on="0"/>
        <pt x="172" y="932" on="0"/>
        <pt x="323" y="990" on="0"/>
        <pt x="421" y="990" on="1"/>
        <pt x="462" y="990" on="0"/>
        <pt x="566" y="977" on="0"/>
        <pt x="589" y="969" on="1"/>
        <pt x="577" y="828" on="1"/>
        <pt x="552" y="835" on="0"/>
        <pt x="478" y="849" on="0"/>
        <pt x="435" y="849" on="1"/>
        <pt x="345" y="849" on="0"/>
        <pt x="253" y="783" on="0"/>
        <pt x="253" y="717" on="1"/>
        <pt x="253" y="665" on="0"/>
        <pt x="330" y="594" on="0"/>
        <pt x="412" y="574" on="1"/>
        <pt x="470" y="593" on="0"/>
        <pt x="545" y="593" on="1"/>
        <pt x="591" y="593" on="0"/>
        <pt x="631" y="587" on="1"/>
        <pt x="618" y="444" on="1"/>
        <pt x="595" y="447" on="0"/>
        <pt x="566" y="447" on="1"/>
        <pt x="470" y="447" on="0"/>
        <pt x="372" y="374" on="0"/>
        <pt x="372" y="304" on="1"/>
        <pt x="372" y="225" on="0"/>
        <pt x="494" y="144" on="0"/>
        <pt x="606" y="144" on="1"/>
        <pt x="761" y="144" on="0"/>
        <pt x="1028" y="276" on="0"/>
        <pt x="1176" y="503" on="0"/>
        <pt x="1176" y="635" on="1"/>
        <pt x="1176" y="697" on="0"/>
        <pt x="1133" y="800" on="0"/>
        <pt x="1052" y="859" on="0"/>
        <pt x="997" y="859" on="1"/>
        <pt x="936" y="859" on="0"/>
        <pt x="869" y="791" on="0"/>
        <pt x="869" y="733" on="1"/>
        <pt x="869" y="662" on="0"/>
        <pt x="985" y="560" on="0"/>
      </contour>
      <contour>
        <pt x="931" y="1274" on="1"/>
      </contour>
      <contour>
        <pt x="812" y="0" on="1"/>
      </contour>
    </TTGlyph>
    <TTGlyph name="chanuktaaltdeva" xMin="0" yMin="-101" xMax="1465" yMax="1274">
      <component glyphName="chaaltdeva" x="0" y="0" flags="0x204"/>
      <component glyphName="nuktadeva" x="911" y="293" flags="0x4"/>
    </TTGlyph>
    <TTGlyph name="chanuktadeva" xMin="0" yMin="-394" xMax="1465" yMax="1274">
      <component glyphName="chadeva" x="0" y="0" flags="0x204"/>
      <component glyphName="nuktadeva" x="1270" y="0" flags="0x4"/>
    </TTGlyph>
    <TTGlyph name="chanuktaprehalfdeva" xMin="0" yMin="-394" xMax="1465" yMax="1274">
      <component glyphName="chaprehalfdeva" x="0" y="0" flags="0x204"/>
      <component glyphName="nuktadeva" x="1270" y="0" flags="0x4"/>
    </TTGlyph>
    <TTGlyph name="chanuktaradeva" xMin="0" yMin="-548" xMax="1465" yMax="1274">
      <component glyphName="chadeva" x="0" y="0" flags="0x204"/>
      <component glyphName="vattudeva" x="1255" y="0" flags="0x4"/>
      <component glyphName="nuktadeva" x="812" y="153" flags="0x4"/>
    </TTGlyph>
    <TTGlyph name="chanuktaraprehalfdeva" xMin="0" yMin="-548" xMax="1465" yMax="1274">
      <component glyphName="chaprehalfdeva" x="0" y="0" flags="0x204"/>
      <component glyphName="vattudeva" x="1255" y="0" flags="0x4"/>
      <component glyphName="nuktadeva" x="812" y="153" flags="0x4"/>
    </TTGlyph>
    <TTGlyph name="chaprehalfdeva" xMin="0" yMin="0" xMax="1465" yMax="1274">
      <contour>
        <pt x="1465" y="1128" on="1"/>
        <pt x="0" y="1128" on="1"/>
        <pt x="0" y="1274" on="1"/>
        <pt x="1465" y="1274" on="1"/>
      </contour>
      <contour>
        <pt x="1095" y="534" on="1"/>
        <pt x="1028" y="405" on="1"/>
        <pt x="874" y="448" on="0"/>
        <pt x="711" y="614" on="0"/>
        <pt x="711" y="729" on="1"/>
        <pt x="711" y="803" on="0"/>
        <pt x="776" y="921" on="0"/>
        <pt x="906" y="990" on="0"/>
        <pt x="997" y="990" on="1"/>
        <pt x="1091" y="990" on="0"/>
        <pt x="1244" y="912" on="0"/>
        <pt x="1337" y="748" on="0"/>
        <pt x="1337" y="630" on="1"/>
        <pt x="1337" y="515" on="0"/>
        <pt x="1238" y="291" on="0"/>
        <pt x="1044" y="106" on="0"/>
        <pt x="768" y="0" on="0"/>
        <pt x="606" y="0" on="1"/>
        <pt x="477" y="0" on="0"/>
        <pt x="296" y="77" on="0"/>
        <pt x="207" y="212" on="0"/>
        <pt x="207" y="301" on="1"/>
        <pt x="207" y="345" on="0"/>
        <pt x="238" y="436" on="0"/>
        <pt x="271" y="473" on="1"/>
        <pt x="180" y="517" on="0"/>
        <pt x="88" y="651" on="0"/>
        <pt x="88" y="735" on="1"/>
        <pt x="88" y="816" on="0"/>
        <pt x="172" y="932" on="0"/>
        <pt x="323" y="990" on="0"/>
        <pt x="421" y="990" on="1"/>
        <pt x="462" y="990" on="0"/>
        <pt x="566" y="977" on="0"/>
        <pt x="589" y="969" on="1"/>
        <pt x="577" y="828" on="1"/>
        <pt x="552" y="835" on="0"/>
        <pt x="478" y="849" on="0"/>
        <pt x="435" y="849" on="1"/>
        <pt x="345" y="849" on="0"/>
        <pt x="253" y="783" on="0"/>
        <pt x="253" y="717" on="1"/>
        <pt x="253" y="665" on="0"/>
        <pt x="330" y="594" on="0"/>
        <pt x="412" y="574" on="1"/>
        <pt x="470" y="593" on="0"/>
        <pt x="545" y="593" on="1"/>
        <pt x="591" y="593" on="0"/>
        <pt x="631" y="587" on="1"/>
        <pt x="618" y="444" on="1"/>
        <pt x="595" y="447" on="0"/>
        <pt x="566" y="447" on="1"/>
        <pt x="470" y="447" on="0"/>
        <pt x="372" y="374" on="0"/>
        <pt x="372" y="304" on="1"/>
        <pt x="372" y="225" on="0"/>
        <pt x="494" y="144" on="0"/>
        <pt x="606" y="144" on="1"/>
        <pt x="761" y="144" on="0"/>
        <pt x="1028" y="276" on="0"/>
        <pt x="1176" y="503" on="0"/>
        <pt x="1176" y="635" on="1"/>
        <pt x="1176" y="697" on="0"/>
        <pt x="1133" y="800" on="0"/>
        <pt x="1052" y="859" on="0"/>
        <pt x="997" y="859" on="1"/>
        <pt x="936" y="859" on="0"/>
        <pt x="869" y="791" on="0"/>
        <pt x="869" y="733" on="1"/>
        <pt x="869" y="662" on="0"/>
        <pt x="985" y="560" on="0"/>
      </contour>
    </TTGlyph>
    <TTGlyph name="charadeva" xMin="0" yMin="-548" xMax="1465" yMax="1274">
      <component glyphName="chadeva" x="0" y="0" flags="0x204"/>
      <component glyphName="vattudeva" x="1205" y="0" flags="0x4"/>
    </TTGlyph>
    <TTGlyph name="charaprehalfdeva" xMin="0" yMin="-548" xMax="1465" yMax="1274">
      <component glyphName="chaprehalfdeva" x="0" y="0" flags="0x204"/>
      <component glyphName="vattudeva" x="1205" y="0" flags="0x4"/>
    </TTGlyph>
    <TTGlyph name="chayadeva" xMin="0" yMin="0" xMax="2590" yMax="1274">
      <contour>
        <pt x="1095" y="534" on="1"/>
        <pt x="1028" y="405" on="1"/>
        <pt x="874" y="448" on="0"/>
        <pt x="711" y="614" on="0"/>
        <pt x="711" y="729" on="1"/>
        <pt x="711" y="830" on="0"/>
        <pt x="826" y="967" on="0"/>
        <pt x="931" y="985" on="1"/>
        <pt x="931" y="1128" on="1"/>
        <pt x="0" y="1128" on="1"/>
        <pt x="0" y="1274" on="1"/>
        <pt x="2590" y="1274" on="1"/>
        <pt x="2590" y="1128" on="1"/>
        <pt x="2377" y="1128" on="1"/>
        <pt x="2377" y="0" on="1"/>
        <pt x="2213" y="0" on="1"/>
        <pt x="2213" y="212" on="1"/>
        <pt x="2153" y="176" on="0"/>
        <pt x="2014" y="136" on="0"/>
        <pt x="1930" y="136" on="1"/>
        <pt x="1829" y="136" on="0"/>
        <pt x="1653" y="224" on="0"/>
        <pt x="1525" y="407" on="0"/>
        <pt x="1498" y="537" on="1"/>
        <pt x="1623" y="552" on="0"/>
        <pt x="1751" y="635" on="0"/>
        <pt x="1751" y="700" on="1"/>
        <pt x="1751" y="726" on="0"/>
        <pt x="1732" y="765" on="0"/>
        <pt x="1689" y="794" on="0"/>
        <pt x="1622" y="807" on="0"/>
        <pt x="1544" y="807" on="1"/>
        <pt x="1445" y="807" on="1"/>
        <pt x="1352" y="807" on="0"/>
        <pt x="1300" y="811" on="1"/>
        <pt x="1337" y="734" on="0"/>
        <pt x="1337" y="630" on="1"/>
        <pt x="1337" y="515" on="0"/>
        <pt x="1238" y="291" on="0"/>
        <pt x="1044" y="106" on="0"/>
        <pt x="768" y="0" on="0"/>
        <pt x="606" y="0" on="1"/>
        <pt x="477" y="0" on="0"/>
        <pt x="296" y="77" on="0"/>
        <pt x="207" y="212" on="0"/>
        <pt x="207" y="301" on="1"/>
        <pt x="207" y="345" on="0"/>
        <pt x="238" y="436" on="0"/>
        <pt x="271" y="473" on="1"/>
        <pt x="180" y="517" on="0"/>
        <pt x="88" y="651" on="0"/>
        <pt x="88" y="735" on="1"/>
        <pt x="88" y="816" on="0"/>
        <pt x="172" y="932" on="0"/>
        <pt x="323" y="990" on="0"/>
        <pt x="421" y="990" on="1"/>
        <pt x="462" y="990" on="0"/>
        <pt x="566" y="977" on="0"/>
        <pt x="589" y="969" on="1"/>
        <pt x="577" y="828" on="1"/>
        <pt x="552" y="835" on="0"/>
        <pt x="478" y="849" on="0"/>
        <pt x="435" y="849" on="1"/>
        <pt x="345" y="849" on="0"/>
        <pt x="253" y="783" on="0"/>
        <pt x="253" y="717" on="1"/>
        <pt x="253" y="665" on="0"/>
        <pt x="330" y="594" on="0"/>
        <pt x="412" y="574" on="1"/>
        <pt x="470" y="593" on="0"/>
        <pt x="545" y="593" on="1"/>
        <pt x="591" y="593" on="0"/>
        <pt x="631" y="587" on="1"/>
        <pt x="618" y="444" on="1"/>
        <pt x="595" y="447" on="0"/>
        <pt x="566" y="447" on="1"/>
        <pt x="470" y="447" on="0"/>
        <pt x="372" y="374" on="0"/>
        <pt x="372" y="304" on="1"/>
        <pt x="372" y="225" on="0"/>
        <pt x="494" y="144" on="0"/>
        <pt x="606" y="144" on="1"/>
        <pt x="761" y="144" on="0"/>
        <pt x="1028" y="276" on="0"/>
        <pt x="1176" y="503" on="0"/>
        <pt x="1176" y="635" on="1"/>
        <pt x="1176" y="697" on="0"/>
        <pt x="1133" y="800" on="0"/>
        <pt x="1052" y="859" on="0"/>
        <pt x="997" y="859" on="1"/>
        <pt x="936" y="859" on="0"/>
        <pt x="869" y="791" on="0"/>
        <pt x="869" y="733" on="1"/>
        <pt x="869" y="662" on="0"/>
        <pt x="985" y="560" on="0"/>
      </contour>
      <contour>
        <pt x="1096" y="1128" on="1"/>
        <pt x="1096" y="978" on="1"/>
        <pt x="1125" y="971" on="0"/>
        <pt x="1163" y="953" on="1"/>
        <pt x="1561" y="953" on="1"/>
        <pt x="1691" y="953" on="0"/>
        <pt x="1837" y="888" on="0"/>
        <pt x="1914" y="766" on="0"/>
        <pt x="1914" y="695" on="1"/>
        <pt x="1914" y="593" on="0"/>
        <pt x="1813" y="470" on="0"/>
        <pt x="1701" y="430" on="1"/>
        <pt x="1742" y="357" on="0"/>
        <pt x="1854" y="282" on="0"/>
        <pt x="1941" y="282" on="1"/>
        <pt x="2014" y="282" on="0"/>
        <pt x="2153" y="340" on="0"/>
        <pt x="2213" y="392" on="1"/>
        <pt x="2213" y="1128" on="1"/>
      </contour>
      <contour>
        <pt x="1498" y="391" on="1"/>
      </contour>
    </TTGlyph>
    <TTGlyph name="colon.deva" xMin="175" yMin="-29" xMax="429" yMax="1274">
      <contour>
        <pt x="175" y="111" on="1"/>
        <pt x="175" y="149" on="0"/>
        <pt x="195" y="202" on="0"/>
        <pt x="229" y="235" on="0"/>
        <pt x="275" y="250" on="0"/>
        <pt x="302" y="250" on="1"/>
        <pt x="328" y="250" on="0"/>
        <pt x="375" y="235" on="0"/>
        <pt x="409" y="202" on="0"/>
        <pt x="429" y="149" on="0"/>
        <pt x="429" y="111" on="1"/>
        <pt x="429" y="74" on="0"/>
        <pt x="409" y="21" on="0"/>
        <pt x="375" y="-13" on="0"/>
        <pt x="328" y="-29" on="0"/>
        <pt x="302" y="-29" on="1"/>
        <pt x="275" y="-29" on="0"/>
        <pt x="229" y="-13" on="0"/>
        <pt x="195" y="21" on="0"/>
        <pt x="175" y="74" on="0"/>
      </contour>
      <contour>
        <pt x="175" y="987" on="1"/>
        <pt x="175" y="1026" on="0"/>
        <pt x="195" y="1079" on="0"/>
        <pt x="229" y="1112" on="0"/>
        <pt x="275" y="1126" on="0"/>
        <pt x="302" y="1126" on="1"/>
        <pt x="328" y="1126" on="0"/>
        <pt x="375" y="1112" on="0"/>
        <pt x="409" y="1079" on="0"/>
        <pt x="429" y="1026" on="0"/>
        <pt x="429" y="987" on="1"/>
        <pt x="429" y="950" on="0"/>
        <pt x="409" y="898" on="0"/>
        <pt x="375" y="864" on="0"/>
        <pt x="328" y="848" on="0"/>
        <pt x="302" y="848" on="1"/>
        <pt x="275" y="848" on="0"/>
        <pt x="229" y="864" on="0"/>
        <pt x="195" y="898" on="0"/>
        <pt x="175" y="950" on="0"/>
      </contour>
      <contour>
        <pt x="302" y="1274" on="1"/>
      </contour>
    </TTGlyph>
    <TTGlyph name="comma.deva" xMin="63" yMin="-264" xMax="377" yMax="238">
      <contour>
        <pt x="362" y="238" on="1"/>
        <pt x="377" y="215" on="1"/>
        <pt x="363" y="161" on="0"/>
        <pt x="324" y="39" on="0"/>
        <pt x="277" y="-85" on="0"/>
        <pt x="226" y="-208" on="0"/>
        <pt x="201" y="-264" on="1"/>
        <pt x="63" y="-264" on="1"/>
        <pt x="78" y="-203" on="0"/>
        <pt x="107" y="-71" on="0"/>
        <pt x="134" y="60" on="0"/>
        <pt x="156" y="185" on="0"/>
        <pt x="164" y="238" on="1"/>
      </contour>
    </TTGlyph>
    <TTGlyph name="dabadeva" xMin="0" yMin="-806" xMax="1319" yMax="1274">
      <contour>
        <pt x="1077" y="-339" on="1"/>
        <pt x="959" y="-13" on="1"/>
        <pt x="888" y="-94" on="0"/>
        <pt x="754" y="-193" on="0"/>
        <pt x="579" y="-255" on="0"/>
        <pt x="474" y="-255" on="1"/>
        <pt x="359" y="-255" on="0"/>
        <pt x="179" y="-172" on="0"/>
        <pt x="81" y="-25" on="0"/>
        <pt x="81" y="68" on="1"/>
        <pt x="81" y="188" on="0"/>
        <pt x="223" y="357" on="0"/>
        <pt x="352" y="390" on="1"/>
        <pt x="320" y="461" on="0"/>
        <pt x="320" y="557" on="1"/>
        <pt x="320" y="614" on="0"/>
        <pt x="345" y="709" on="0"/>
        <pt x="404" y="800" on="0"/>
        <pt x="492" y="867" on="0"/>
        <pt x="601" y="910" on="0"/>
        <pt x="739" y="933" on="0"/>
        <pt x="819" y="933" on="1"/>
        <pt x="829" y="933" on="1"/>
        <pt x="829" y="1128" on="1"/>
        <pt x="0" y="1128" on="1"/>
        <pt x="0" y="1274" on="1"/>
        <pt x="1319" y="1274" on="1"/>
        <pt x="1319" y="1128" on="1"/>
        <pt x="994" y="1128" on="1"/>
        <pt x="994" y="789" on="1"/>
        <pt x="895" y="789" on="1"/>
        <pt x="737" y="789" on="0"/>
        <pt x="571" y="735" on="0"/>
        <pt x="484" y="623" on="0"/>
        <pt x="484" y="537" on="1"/>
        <pt x="484" y="463" on="0"/>
        <pt x="557" y="350" on="0"/>
        <pt x="708" y="286" on="0"/>
        <pt x="819" y="286" on="1"/>
        <pt x="831" y="286" on="0"/>
        <pt x="861" y="289" on="1"/>
        <pt x="857" y="307" on="0"/>
        <pt x="852" y="347" on="0"/>
        <pt x="852" y="361" on="1"/>
        <pt x="852" y="424" on="0"/>
        <pt x="929" y="492" on="0"/>
        <pt x="989" y="492" on="1"/>
        <pt x="1046" y="492" on="0"/>
        <pt x="1129" y="444" on="0"/>
        <pt x="1169" y="371" on="0"/>
        <pt x="1169" y="331" on="1"/>
        <pt x="1169" y="272" on="0"/>
        <pt x="1108" y="193" on="0"/>
        <pt x="1046" y="171" on="1"/>
        <pt x="1219" y="-282" on="1"/>
      </contour>
      <contour>
        <pt x="440" y="267" on="1"/>
        <pt x="399" y="261" on="0"/>
        <pt x="367" y="249" on="1"/>
        <pt x="701" y="-49" on="1"/>
        <pt x="747" y="-19" on="0"/>
        <pt x="839" y="72" on="0"/>
        <pt x="895" y="148" on="1"/>
        <pt x="856" y="143" on="0"/>
        <pt x="826" y="143" on="1"/>
        <pt x="710" y="143" on="0"/>
        <pt x="507" y="207" on="0"/>
      </contour>
      <contour>
        <pt x="583" y="-105" on="1"/>
        <pt x="269" y="175" on="1"/>
        <pt x="238" y="129" on="0"/>
        <pt x="238" y="70" on="1"/>
        <pt x="238" y="18" on="0"/>
        <pt x="277" y="-55" on="0"/>
        <pt x="341" y="-100" on="0"/>
        <pt x="426" y="-121" on="0"/>
        <pt x="472" y="-121" on="1"/>
        <pt x="529" y="-121" on="0"/>
      </contour>
      <contour>
        <pt x="829" y="1274" on="1"/>
      </contour>
      <contour>
        <pt x="1057" y="0" on="1"/>
      </contour>
      <contour>
        <pt x="853" y="-548" on="1"/>
      </contour>
      <contour>
        <pt x="853" y="-258" on="1"/>
      </contour>
      <contour>
        <pt x="853" y="-806" on="1"/>
      </contour>
      <contour>
        <pt x="928" y="-115" on="1"/>
      </contour>
      <contour>
        <pt x="424" y="238" on="1"/>
      </contour>
    </TTGlyph>
    <TTGlyph name="dabhaaltdeva" xMin="0" yMin="-163" xMax="1709" yMax="1274">
      <contour>
        <pt x="1419" y="-107" on="1"/>
        <pt x="1294" y="262" on="1"/>
        <pt x="1288" y="261" on="1"/>
        <pt x="760" y="43" on="1"/>
        <pt x="784" y="-15" on="1"/>
        <pt x="797" y="-46" on="0"/>
        <pt x="797" y="-75" on="1"/>
        <pt x="797" y="-117" on="0"/>
        <pt x="741" y="-163" on="0"/>
        <pt x="697" y="-163" on="1"/>
        <pt x="646" y="-163" on="0"/>
        <pt x="526" y="-110" on="0"/>
        <pt x="446" y="-29" on="0"/>
        <pt x="446" y="9" on="1"/>
        <pt x="446" y="32" on="0"/>
        <pt x="482" y="76" on="0"/>
        <pt x="526" y="94" on="1"/>
        <pt x="576" y="114" on="1"/>
        <pt x="506" y="286" on="1"/>
        <pt x="477" y="356" on="0"/>
        <pt x="422" y="448" on="0"/>
        <pt x="359" y="489" on="0"/>
        <pt x="308" y="489" on="1"/>
        <pt x="258" y="489" on="0"/>
        <pt x="194" y="437" on="0"/>
        <pt x="194" y="394" on="1"/>
        <pt x="194" y="352" on="0"/>
        <pt x="246" y="301" on="0"/>
        <pt x="292" y="301" on="1"/>
        <pt x="321" y="301" on="0"/>
        <pt x="380" y="313" on="0"/>
        <pt x="419" y="328" on="1"/>
        <pt x="455" y="198" on="1"/>
        <pt x="376" y="170" on="0"/>
        <pt x="295" y="170" on="1"/>
        <pt x="231" y="170" on="0"/>
        <pt x="126" y="227" on="0"/>
        <pt x="67" y="329" on="0"/>
        <pt x="67" y="392" on="1"/>
        <pt x="67" y="460" on="0"/>
        <pt x="133" y="561" on="0"/>
        <pt x="253" y="618" on="0"/>
        <pt x="318" y="618" on="1"/>
        <pt x="380" y="618" on="0"/>
        <pt x="469" y="589" on="0"/>
        <pt x="542" y="529" on="0"/>
        <pt x="608" y="427" on="0"/>
        <pt x="639" y="351" on="1"/>
        <pt x="712" y="171" on="1"/>
        <pt x="999" y="288" on="1"/>
        <pt x="858" y="322" on="0"/>
        <pt x="710" y="497" on="0"/>
        <pt x="710" y="628" on="1"/>
        <pt x="710" y="737" on="0"/>
        <pt x="827" y="890" on="0"/>
        <pt x="1054" y="968" on="0"/>
        <pt x="1209" y="968" on="1"/>
        <pt x="1219" y="968" on="1"/>
        <pt x="1219" y="1128" on="1"/>
        <pt x="0" y="1128" on="1"/>
        <pt x="0" y="1274" on="1"/>
        <pt x="1709" y="1274" on="1"/>
        <pt x="1709" y="1128" on="1"/>
        <pt x="1384" y="1128" on="1"/>
        <pt x="1384" y="824" on="1"/>
        <pt x="1285" y="824" on="1"/>
        <pt x="1133" y="824" on="0"/>
        <pt x="954" y="777" on="0"/>
        <pt x="874" y="684" on="0"/>
        <pt x="874" y="610" on="1"/>
        <pt x="874" y="547" on="0"/>
        <pt x="946" y="451" on="0"/>
        <pt x="1097" y="396" on="0"/>
        <pt x="1209" y="396" on="1"/>
        <pt x="1221" y="396" on="0"/>
        <pt x="1251" y="399" on="1"/>
        <pt x="1247" y="417" on="0"/>
        <pt x="1242" y="457" on="0"/>
        <pt x="1242" y="471" on="1"/>
        <pt x="1242" y="534" on="0"/>
        <pt x="1319" y="602" on="0"/>
        <pt x="1379" y="602" on="1"/>
        <pt x="1436" y="602" on="0"/>
        <pt x="1519" y="554" on="0"/>
        <pt x="1559" y="481" on="0"/>
        <pt x="1559" y="441" on="1"/>
        <pt x="1559" y="382" on="0"/>
        <pt x="1498" y="303" on="0"/>
        <pt x="1436" y="281" on="1"/>
        <pt x="1560" y="-60" on="1"/>
      </contour>
      <contour>
        <pt x="1219" y="1274" on="1"/>
      </contour>
      <contour>
        <pt x="1422" y="0" on="1"/>
      </contour>
      <contour>
        <pt x="1209" y="251" on="1"/>
      </contour>
    </TTGlyph>
    <TTGlyph name="dabhadeva" xMin="0" yMin="-806" xMax="1649" yMax="1274">
      <contour>
        <pt x="1407" y="-339" on="1"/>
        <pt x="1255" y="82" on="1"/>
        <pt x="760" y="-121" on="1"/>
        <pt x="784" y="-179" on="1"/>
        <pt x="797" y="-210" on="0"/>
        <pt x="797" y="-239" on="1"/>
        <pt x="797" y="-281" on="0"/>
        <pt x="741" y="-327" on="0"/>
        <pt x="697" y="-327" on="1"/>
        <pt x="646" y="-327" on="0"/>
        <pt x="526" y="-274" on="0"/>
        <pt x="446" y="-193" on="0"/>
        <pt x="446" y="-155" on="1"/>
        <pt x="446" y="-132" on="0"/>
        <pt x="482" y="-88" on="0"/>
        <pt x="526" y="-70" on="1"/>
        <pt x="576" y="-50" on="1"/>
        <pt x="506" y="122" on="1"/>
        <pt x="477" y="192" on="0"/>
        <pt x="422" y="284" on="0"/>
        <pt x="359" y="325" on="0"/>
        <pt x="308" y="325" on="1"/>
        <pt x="258" y="325" on="0"/>
        <pt x="194" y="273" on="0"/>
        <pt x="194" y="230" on="1"/>
        <pt x="194" y="188" on="0"/>
        <pt x="246" y="137" on="0"/>
        <pt x="292" y="137" on="1"/>
        <pt x="321" y="137" on="0"/>
        <pt x="380" y="149" on="0"/>
        <pt x="419" y="164" on="1"/>
        <pt x="455" y="34" on="1"/>
        <pt x="376" y="6" on="0"/>
        <pt x="295" y="6" on="1"/>
        <pt x="231" y="6" on="0"/>
        <pt x="126" y="63" on="0"/>
        <pt x="67" y="165" on="0"/>
        <pt x="67" y="228" on="1"/>
        <pt x="67" y="296" on="0"/>
        <pt x="133" y="397" on="0"/>
        <pt x="253" y="454" on="0"/>
        <pt x="318" y="454" on="1"/>
        <pt x="380" y="454" on="0"/>
        <pt x="469" y="425" on="0"/>
        <pt x="542" y="365" on="0"/>
        <pt x="608" y="263" on="0"/>
        <pt x="639" y="187" on="1"/>
        <pt x="712" y="7" on="1"/>
        <pt x="996" y="123" on="1"/>
        <pt x="1032" y="138" on="0"/>
        <pt x="1074" y="151" on="1"/>
        <pt x="942" y="164" on="0"/>
        <pt x="748" y="267" on="0"/>
        <pt x="650" y="440" on="0"/>
        <pt x="650" y="557" on="1"/>
        <pt x="650" y="659" on="0"/>
        <pt x="731" y="804" on="0"/>
        <pt x="867" y="894" on="0"/>
        <pt x="1045" y="933" on="0"/>
        <pt x="1149" y="933" on="1"/>
        <pt x="1159" y="933" on="1"/>
        <pt x="1159" y="1128" on="1"/>
        <pt x="0" y="1128" on="1"/>
        <pt x="0" y="1274" on="1"/>
        <pt x="1649" y="1274" on="1"/>
        <pt x="1649" y="1128" on="1"/>
        <pt x="1324" y="1128" on="1"/>
        <pt x="1324" y="789" on="1"/>
        <pt x="1225" y="789" on="1"/>
        <pt x="1061" y="789" on="0"/>
        <pt x="895" y="731" on="0"/>
        <pt x="814" y="621" on="0"/>
        <pt x="814" y="537" on="1"/>
        <pt x="814" y="463" on="0"/>
        <pt x="887" y="350" on="0"/>
        <pt x="1038" y="286" on="0"/>
        <pt x="1149" y="286" on="1"/>
        <pt x="1161" y="286" on="0"/>
        <pt x="1191" y="289" on="1"/>
        <pt x="1187" y="307" on="0"/>
        <pt x="1182" y="347" on="0"/>
        <pt x="1182" y="361" on="1"/>
        <pt x="1182" y="424" on="0"/>
        <pt x="1259" y="492" on="0"/>
        <pt x="1319" y="492" on="1"/>
        <pt x="1376" y="492" on="0"/>
        <pt x="1459" y="444" on="0"/>
        <pt x="1499" y="371" on="0"/>
        <pt x="1499" y="331" on="1"/>
        <pt x="1499" y="272" on="0"/>
        <pt x="1438" y="193" on="0"/>
        <pt x="1376" y="171" on="1"/>
        <pt x="1549" y="-282" on="1"/>
      </contour>
      <contour>
        <pt x="1159" y="1274" on="1"/>
      </contour>
      <contour>
        <pt x="1387" y="0" on="1"/>
      </contour>
      <contour>
        <pt x="1053" y="-548" on="1"/>
      </contour>
      <contour>
        <pt x="1053" y="-258" on="1"/>
      </contour>
      <contour>
        <pt x="1053" y="-806" on="1"/>
      </contour>
      <contour>
        <pt x="1216" y="143" on="1"/>
      </contour>
    </TTGlyph>
    <TTGlyph name="dadaaltdeva" xMin="0" yMin="-119" xMax="1135" yMax="1274">
      <contour>
        <pt x="209" y="542" on="1"/>
        <pt x="174" y="568" on="0"/>
        <pt x="123" y="624" on="0"/>
        <pt x="85" y="709" on="0"/>
        <pt x="85" y="761" on="1"/>
        <pt x="85" y="824" on="0"/>
        <pt x="135" y="911" on="0"/>
        <pt x="220" y="967" on="0"/>
        <pt x="330" y="993" on="0"/>
        <pt x="413" y="993" on="1"/>
        <pt x="645" y="993" on="1"/>
        <pt x="645" y="1128" on="1"/>
        <pt x="0" y="1128" on="1"/>
        <pt x="0" y="1274" on="1"/>
        <pt x="1135" y="1274" on="1"/>
        <pt x="1135" y="1128" on="1"/>
        <pt x="810" y="1128" on="1"/>
        <pt x="810" y="847" on="1"/>
        <pt x="408" y="847" on="1"/>
        <pt x="344" y="847" on="0"/>
        <pt x="281" y="831" on="0"/>
        <pt x="243" y="785" on="0"/>
        <pt x="243" y="750" on="1"/>
        <pt x="243" y="714" on="0"/>
        <pt x="285" y="657" on="0"/>
        <pt x="320" y="638" on="1"/>
        <pt x="430" y="695" on="0"/>
        <pt x="569" y="695" on="1"/>
        <pt x="650" y="695" on="0"/>
        <pt x="690" y="688" on="1"/>
        <pt x="682" y="543" on="1"/>
        <pt x="657" y="546" on="0"/>
        <pt x="593" y="546" on="1"/>
        <pt x="460" y="546" on="0"/>
        <pt x="324" y="473" on="0"/>
        <pt x="324" y="395" on="1"/>
        <pt x="324" y="316" on="0"/>
        <pt x="471" y="237" on="0"/>
        <pt x="635" y="237" on="1"/>
        <pt x="650" y="237" on="0"/>
        <pt x="680" y="239" on="1"/>
        <pt x="673" y="255" on="0"/>
        <pt x="668" y="291" on="0"/>
        <pt x="668" y="303" on="1"/>
        <pt x="668" y="357" on="0"/>
        <pt x="743" y="419" on="0"/>
        <pt x="805" y="419" on="1"/>
        <pt x="856" y="419" on="0"/>
        <pt x="940" y="376" on="0"/>
        <pt x="985" y="307" on="0"/>
        <pt x="985" y="270" on="1"/>
        <pt x="985" y="217" on="0"/>
        <pt x="934" y="147" on="0"/>
        <pt x="880" y="128" on="1"/>
        <pt x="924" y="49" on="0"/>
        <pt x="1000" y="-51" on="1"/>
        <pt x="864" y="-119" on="1"/>
        <pt x="782" y="13" on="0"/>
        <pt x="741" y="103" on="1"/>
        <pt x="723" y="100" on="0"/>
        <pt x="659" y="94" on="0"/>
        <pt x="642" y="94" on="1"/>
        <pt x="498" y="94" on="0"/>
        <pt x="276" y="162" on="0"/>
        <pt x="159" y="293" on="0"/>
        <pt x="159" y="384" on="1"/>
        <pt x="159" y="471" on="0"/>
      </contour>
      <contour>
        <pt x="645" y="1274" on="1"/>
      </contour>
      <contour>
        <pt x="797" y="0" on="1"/>
      </contour>
    </TTGlyph>
    <TTGlyph name="dadadeva" xMin="0" yMin="-806" xMax="1135" yMax="1274">
      <contour>
        <pt x="238" y="482" on="1"/>
        <pt x="183" y="518" on="0"/>
        <pt x="123" y="584" on="0"/>
        <pt x="85" y="668" on="0"/>
        <pt x="85" y="721" on="1"/>
        <pt x="85" y="784" on="0"/>
        <pt x="135" y="871" on="0"/>
        <pt x="220" y="927" on="0"/>
        <pt x="330" y="953" on="0"/>
        <pt x="413" y="953" on="1"/>
        <pt x="645" y="953" on="1"/>
        <pt x="645" y="1128" on="1"/>
        <pt x="0" y="1128" on="1"/>
        <pt x="0" y="1274" on="1"/>
        <pt x="1135" y="1274" on="1"/>
        <pt x="1135" y="1128" on="1"/>
        <pt x="810" y="1128" on="1"/>
        <pt x="810" y="807" on="1"/>
        <pt x="408" y="807" on="1"/>
        <pt x="344" y="807" on="0"/>
        <pt x="281" y="791" on="0"/>
        <pt x="243" y="745" on="0"/>
        <pt x="243" y="710" on="1"/>
        <pt x="243" y="667" on="0"/>
        <pt x="308" y="596" on="0"/>
        <pt x="370" y="576" on="1"/>
        <pt x="465" y="616" on="0"/>
        <pt x="583" y="616" on="1"/>
        <pt x="621" y="616" on="0"/>
        <pt x="708" y="609" on="0"/>
        <pt x="728" y="606" on="1"/>
        <pt x="716" y="457" on="1"/>
        <pt x="651" y="467" on="0"/>
        <pt x="592" y="467" on="1"/>
        <pt x="505" y="467" on="0"/>
        <pt x="385" y="415" on="0"/>
        <pt x="324" y="324" on="0"/>
        <pt x="324" y="266" on="1"/>
        <pt x="324" y="163" on="0"/>
        <pt x="476" y="57" on="0"/>
        <pt x="635" y="57" on="1"/>
        <pt x="650" y="57" on="0"/>
        <pt x="680" y="60" on="1"/>
        <pt x="673" y="78" on="0"/>
        <pt x="668" y="118" on="0"/>
        <pt x="668" y="132" on="1"/>
        <pt x="668" y="195" on="0"/>
        <pt x="745" y="263" on="0"/>
        <pt x="805" y="263" on="1"/>
        <pt x="862" y="263" on="0"/>
        <pt x="945" y="215" on="0"/>
        <pt x="985" y="142" on="0"/>
        <pt x="985" y="102" on="1"/>
        <pt x="985" y="46" on="0"/>
        <pt x="936" y="-30" on="0"/>
        <pt x="880" y="-52" on="1"/>
        <pt x="938" y="-164" on="0"/>
        <pt x="1024" y="-279" on="1"/>
        <pt x="888" y="-347" on="1"/>
        <pt x="853" y="-290" on="0"/>
        <pt x="770" y="-140" on="0"/>
        <pt x="743" y="-80" on="1"/>
        <pt x="684" y="-89" on="0"/>
        <pt x="627" y="-89" on="1"/>
        <pt x="489" y="-89" on="0"/>
        <pt x="274" y="-4" on="0"/>
        <pt x="159" y="152" on="0"/>
        <pt x="159" y="259" on="1"/>
        <pt x="159" y="388" on="0"/>
      </contour>
      <contour>
        <pt x="645" y="1274" on="1"/>
      </contour>
      <contour>
        <pt x="852" y="0" on="1"/>
      </contour>
      <contour>
        <pt x="653" y="-548" on="1"/>
      </contour>
      <contour>
        <pt x="653" y="-258" on="1"/>
      </contour>
      <contour>
        <pt x="653" y="-806" on="1"/>
      </contour>
    </TTGlyph>
    <TTGlyph name="dadeva" xMin="0" yMin="-118" xMax="1094" yMax="1274">
      <contour>
        <pt x="847" y="-118" on="1"/>
        <pt x="804" y="-49" on="0"/>
        <pt x="723" y="100" on="0"/>
        <pt x="701" y="149" on="1"/>
        <pt x="644" y="140" on="0"/>
        <pt x="588" y="140" on="1"/>
        <pt x="496" y="140" on="0"/>
        <pt x="335" y="182" on="0"/>
        <pt x="215" y="256" on="0"/>
        <pt x="137" y="354" on="0"/>
        <pt x="95" y="479" on="0"/>
        <pt x="95" y="557" on="1"/>
        <pt x="95" y="614" on="0"/>
        <pt x="120" y="709" on="0"/>
        <pt x="179" y="800" on="0"/>
        <pt x="267" y="867" on="0"/>
        <pt x="376" y="910" on="0"/>
        <pt x="514" y="933" on="0"/>
        <pt x="594" y="933" on="1"/>
        <pt x="604" y="933" on="1"/>
        <pt x="604" y="1128" on="1"/>
        <pt x="0" y="1128" on="1"/>
        <pt x="0" y="1274" on="1"/>
        <pt x="1094" y="1274" on="1"/>
        <pt x="1094" y="1128" on="1"/>
        <pt x="769" y="1128" on="1"/>
        <pt x="769" y="789" on="1"/>
        <pt x="670" y="789" on="1"/>
        <pt x="512" y="789" on="0"/>
        <pt x="346" y="735" on="0"/>
        <pt x="259" y="623" on="0"/>
        <pt x="259" y="537" on="1"/>
        <pt x="259" y="463" on="0"/>
        <pt x="331" y="350" on="0"/>
        <pt x="480" y="286" on="0"/>
        <pt x="588" y="286" on="1"/>
        <pt x="609" y="286" on="0"/>
        <pt x="639" y="289" on="1"/>
        <pt x="632" y="307" on="0"/>
        <pt x="627" y="347" on="0"/>
        <pt x="627" y="361" on="1"/>
        <pt x="627" y="424" on="0"/>
        <pt x="704" y="492" on="0"/>
        <pt x="764" y="492" on="1"/>
        <pt x="821" y="492" on="0"/>
        <pt x="904" y="444" on="0"/>
        <pt x="944" y="371" on="0"/>
        <pt x="944" y="331" on="1"/>
        <pt x="944" y="275" on="0"/>
        <pt x="895" y="199" on="0"/>
        <pt x="839" y="177" on="1"/>
        <pt x="897" y="65" on="0"/>
        <pt x="983" y="-50" on="1"/>
      </contour>
      <contour>
        <pt x="604" y="1274" on="1"/>
      </contour>
      <contour>
        <pt x="812" y="0" on="1"/>
      </contour>
    </TTGlyph>
    <TTGlyph name="dadhadeva" xMin="0" yMin="-806" xMax="1650" yMax="1274">
      <contour>
        <pt x="1225" y="148" on="1"/>
        <pt x="1187" y="142" on="0"/>
        <pt x="1157" y="142" on="1"/>
        <pt x="1061" y="142" on="0"/>
        <pt x="896" y="184" on="0"/>
        <pt x="772" y="259" on="0"/>
        <pt x="693" y="356" on="0"/>
        <pt x="651" y="480" on="0"/>
        <pt x="651" y="557" on="1"/>
        <pt x="651" y="659" on="0"/>
        <pt x="732" y="804" on="0"/>
        <pt x="868" y="894" on="0"/>
        <pt x="1046" y="933" on="0"/>
        <pt x="1150" y="933" on="1"/>
        <pt x="1160" y="933" on="1"/>
        <pt x="1160" y="1128" on="1"/>
        <pt x="0" y="1128" on="1"/>
        <pt x="0" y="1274" on="1"/>
        <pt x="1650" y="1274" on="1"/>
        <pt x="1650" y="1128" on="1"/>
        <pt x="1325" y="1128" on="1"/>
        <pt x="1325" y="789" on="1"/>
        <pt x="1226" y="789" on="1"/>
        <pt x="1062" y="789" on="0"/>
        <pt x="896" y="731" on="0"/>
        <pt x="815" y="621" on="0"/>
        <pt x="815" y="537" on="1"/>
        <pt x="815" y="463" on="0"/>
        <pt x="888" y="350" on="0"/>
        <pt x="1039" y="286" on="0"/>
        <pt x="1150" y="286" on="1"/>
        <pt x="1162" y="286" on="0"/>
        <pt x="1192" y="289" on="1"/>
        <pt x="1188" y="307" on="0"/>
        <pt x="1183" y="347" on="0"/>
        <pt x="1183" y="361" on="1"/>
        <pt x="1183" y="424" on="0"/>
        <pt x="1260" y="492" on="0"/>
        <pt x="1320" y="492" on="1"/>
        <pt x="1377" y="492" on="0"/>
        <pt x="1460" y="444" on="0"/>
        <pt x="1500" y="371" on="0"/>
        <pt x="1500" y="331" on="1"/>
        <pt x="1500" y="272" on="0"/>
        <pt x="1439" y="193" on="0"/>
        <pt x="1377" y="171" on="1"/>
        <pt x="1550" y="-282" on="1"/>
        <pt x="1408" y="-339" on="1"/>
        <pt x="1292" y="-17" on="1"/>
        <pt x="1244" y="-79" on="0"/>
        <pt x="1123" y="-194" on="0"/>
        <pt x="978" y="-282" on="0"/>
        <pt x="806" y="-335" on="0"/>
        <pt x="707" y="-335" on="1"/>
        <pt x="587" y="-335" on="0"/>
        <pt x="414" y="-265" on="0"/>
        <pt x="326" y="-141" on="0"/>
        <pt x="326" y="-61" on="1"/>
        <pt x="326" y="-26" on="0"/>
        <pt x="347" y="45" on="0"/>
        <pt x="370" y="78" on="1"/>
        <pt x="227" y="114" on="0"/>
        <pt x="82" y="266" on="0"/>
        <pt x="82" y="378" on="1"/>
        <pt x="82" y="454" on="0"/>
        <pt x="153" y="578" on="0"/>
        <pt x="282" y="649" on="0"/>
        <pt x="362" y="649" on="1"/>
        <pt x="430" y="649" on="0"/>
        <pt x="539" y="600" on="0"/>
        <pt x="602" y="509" on="0"/>
        <pt x="602" y="452" on="1"/>
        <pt x="602" y="406" on="0"/>
        <pt x="562" y="315" on="0"/>
        <pt x="526" y="282" on="1"/>
        <pt x="406" y="361" on="1"/>
        <pt x="447" y="396" on="0"/>
        <pt x="447" y="441" on="1"/>
        <pt x="447" y="477" on="0"/>
        <pt x="401" y="521" on="0"/>
        <pt x="359" y="521" on="1"/>
        <pt x="324" y="521" on="0"/>
        <pt x="264" y="481" on="0"/>
        <pt x="229" y="411" on="0"/>
        <pt x="229" y="370" on="1"/>
        <pt x="229" y="290" on="0"/>
        <pt x="364" y="199" on="0"/>
        <pt x="494" y="191" on="1"/>
        <pt x="555" y="218" on="0"/>
        <pt x="639" y="218" on="1"/>
        <pt x="680" y="218" on="0"/>
        <pt x="719" y="212" on="1"/>
        <pt x="706" y="73" on="1"/>
        <pt x="686" y="76" on="0"/>
        <pt x="661" y="76" on="1"/>
        <pt x="577" y="76" on="0"/>
        <pt x="487" y="9" on="0"/>
        <pt x="487" y="-52" on="1"/>
        <pt x="487" y="-119" on="0"/>
        <pt x="599" y="-195" on="0"/>
        <pt x="693" y="-195" on="1"/>
        <pt x="840" y="-195" on="0"/>
        <pt x="1107" y="-25" on="0"/>
      </contour>
      <contour>
        <pt x="1160" y="1274" on="1"/>
      </contour>
      <contour>
        <pt x="1388" y="0" on="1"/>
      </contour>
      <contour>
        <pt x="1253" y="-548" on="1"/>
      </contour>
      <contour>
        <pt x="1253" y="-258" on="1"/>
      </contour>
      <contour>
        <pt x="1253" y="-806" on="1"/>
      </contour>
    </TTGlyph>
    <TTGlyph name="dadhayadeva" xMin="0" yMin="-806" xMax="2232" yMax="1274">
      <contour>
        <pt x="1225" y="148" on="1"/>
        <pt x="1187" y="142" on="0"/>
        <pt x="1159" y="142" on="1"/>
        <pt x="1063" y="142" on="0"/>
        <pt x="897" y="184" on="0"/>
        <pt x="773" y="258" on="0"/>
        <pt x="694" y="356" on="0"/>
        <pt x="651" y="480" on="0"/>
        <pt x="651" y="557" on="1"/>
        <pt x="651" y="659" on="0"/>
        <pt x="732" y="804" on="0"/>
        <pt x="868" y="894" on="0"/>
        <pt x="1046" y="933" on="0"/>
        <pt x="1150" y="933" on="1"/>
        <pt x="1160" y="933" on="1"/>
        <pt x="1160" y="1128" on="1"/>
        <pt x="0" y="1128" on="1"/>
        <pt x="0" y="1274" on="1"/>
        <pt x="2232" y="1274" on="1"/>
        <pt x="2232" y="1128" on="1"/>
        <pt x="2019" y="1128" on="1"/>
        <pt x="2019" y="-306" on="1"/>
        <pt x="1855" y="-306" on="1"/>
        <pt x="1855" y="-37" on="1"/>
        <pt x="1805" y="-65" on="0"/>
        <pt x="1688" y="-100" on="0"/>
        <pt x="1615" y="-100" on="1"/>
        <pt x="1434" y="-100" on="0"/>
        <pt x="1319" y="18" on="1"/>
        <pt x="1271" y="-50" on="0"/>
        <pt x="1148" y="-177" on="0"/>
        <pt x="995" y="-276" on="0"/>
        <pt x="813" y="-335" on="0"/>
        <pt x="707" y="-335" on="1"/>
        <pt x="587" y="-335" on="0"/>
        <pt x="414" y="-265" on="0"/>
        <pt x="326" y="-141" on="0"/>
        <pt x="326" y="-61" on="1"/>
        <pt x="326" y="-26" on="0"/>
        <pt x="347" y="45" on="0"/>
        <pt x="370" y="78" on="1"/>
        <pt x="227" y="114" on="0"/>
        <pt x="82" y="266" on="0"/>
        <pt x="82" y="378" on="1"/>
        <pt x="82" y="454" on="0"/>
        <pt x="153" y="578" on="0"/>
        <pt x="282" y="649" on="0"/>
        <pt x="362" y="649" on="1"/>
        <pt x="430" y="649" on="0"/>
        <pt x="539" y="600" on="0"/>
        <pt x="602" y="509" on="0"/>
        <pt x="602" y="452" on="1"/>
        <pt x="602" y="406" on="0"/>
        <pt x="562" y="315" on="0"/>
        <pt x="526" y="282" on="1"/>
        <pt x="406" y="361" on="1"/>
        <pt x="447" y="396" on="0"/>
        <pt x="447" y="441" on="1"/>
        <pt x="447" y="477" on="0"/>
        <pt x="401" y="521" on="0"/>
        <pt x="359" y="521" on="1"/>
        <pt x="324" y="521" on="0"/>
        <pt x="264" y="481" on="0"/>
        <pt x="229" y="411" on="0"/>
        <pt x="229" y="370" on="1"/>
        <pt x="229" y="290" on="0"/>
        <pt x="364" y="199" on="0"/>
        <pt x="494" y="191" on="1"/>
        <pt x="555" y="218" on="0"/>
        <pt x="639" y="218" on="1"/>
        <pt x="680" y="218" on="0"/>
        <pt x="719" y="212" on="1"/>
        <pt x="706" y="73" on="1"/>
        <pt x="686" y="76" on="0"/>
        <pt x="661" y="76" on="1"/>
        <pt x="577" y="76" on="0"/>
        <pt x="487" y="9" on="0"/>
        <pt x="487" y="-52" on="1"/>
        <pt x="487" y="-119" on="0"/>
        <pt x="599" y="-195" on="0"/>
        <pt x="693" y="-195" on="1"/>
        <pt x="840" y="-195" on="0"/>
        <pt x="1107" y="-25" on="0"/>
      </contour>
      <contour>
        <pt x="1378" y="171" on="1"/>
        <pt x="1416" y="110" on="0"/>
        <pt x="1527" y="46" on="0"/>
        <pt x="1613" y="46" on="1"/>
        <pt x="1677" y="46" on="0"/>
        <pt x="1801" y="95" on="0"/>
        <pt x="1855" y="141" on="1"/>
        <pt x="1855" y="1128" on="1"/>
        <pt x="1325" y="1128" on="1"/>
        <pt x="1325" y="789" on="1"/>
        <pt x="1226" y="789" on="1"/>
        <pt x="1062" y="789" on="0"/>
        <pt x="896" y="731" on="0"/>
        <pt x="815" y="621" on="0"/>
        <pt x="815" y="537" on="1"/>
        <pt x="815" y="463" on="0"/>
        <pt x="888" y="350" on="0"/>
        <pt x="1039" y="286" on="0"/>
        <pt x="1150" y="286" on="1"/>
        <pt x="1162" y="286" on="0"/>
        <pt x="1192" y="289" on="1"/>
        <pt x="1188" y="307" on="0"/>
        <pt x="1183" y="347" on="0"/>
        <pt x="1183" y="361" on="1"/>
        <pt x="1183" y="424" on="0"/>
        <pt x="1260" y="492" on="0"/>
        <pt x="1320" y="492" on="1"/>
        <pt x="1377" y="492" on="0"/>
        <pt x="1460" y="444" on="0"/>
        <pt x="1500" y="371" on="0"/>
        <pt x="1500" y="331" on="1"/>
        <pt x="1500" y="273" on="0"/>
        <pt x="1441" y="194" on="0"/>
      </contour>
      <contour>
        <pt x="1653" y="-548" on="1"/>
      </contour>
      <contour>
        <pt x="1653" y="-258" on="1"/>
      </contour>
      <contour>
        <pt x="1653" y="-806" on="1"/>
      </contour>
      <contour>
        <pt x="1508" y="-339" on="1"/>
      </contour>
    </TTGlyph>
    <TTGlyph name="dagadeva" xMin="0" yMin="-806" xMax="1094" yMax="1274">
      <contour>
        <pt x="852" y="-339" on="1"/>
        <pt x="676" y="148" on="1"/>
        <pt x="634" y="143" on="0"/>
        <pt x="601" y="143" on="1"/>
        <pt x="500" y="143" on="0"/>
        <pt x="420" y="164" on="1"/>
        <pt x="420" y="-186" on="1"/>
        <pt x="420" y="-234" on="0"/>
        <pt x="373" y="-288" on="0"/>
        <pt x="330" y="-288" on="1"/>
        <pt x="285" y="-288" on="0"/>
        <pt x="182" y="-215" on="0"/>
        <pt x="111" y="-100" on="0"/>
        <pt x="111" y="-50" on="1"/>
        <pt x="111" y="-1" on="0"/>
        <pt x="167" y="45" on="0"/>
        <pt x="223" y="45" on="1"/>
        <pt x="272" y="45" on="1"/>
        <pt x="272" y="226" on="1"/>
        <pt x="184" y="281" on="0"/>
        <pt x="95" y="448" on="0"/>
        <pt x="95" y="557" on="1"/>
        <pt x="95" y="614" on="0"/>
        <pt x="120" y="709" on="0"/>
        <pt x="179" y="800" on="0"/>
        <pt x="267" y="867" on="0"/>
        <pt x="376" y="910" on="0"/>
        <pt x="514" y="933" on="0"/>
        <pt x="594" y="933" on="1"/>
        <pt x="604" y="933" on="1"/>
        <pt x="604" y="1128" on="1"/>
        <pt x="0" y="1128" on="1"/>
        <pt x="0" y="1274" on="1"/>
        <pt x="1094" y="1274" on="1"/>
        <pt x="1094" y="1128" on="1"/>
        <pt x="769" y="1128" on="1"/>
        <pt x="769" y="789" on="1"/>
        <pt x="670" y="789" on="1"/>
        <pt x="512" y="789" on="0"/>
        <pt x="346" y="735" on="0"/>
        <pt x="259" y="623" on="0"/>
        <pt x="259" y="537" on="1"/>
        <pt x="259" y="463" on="0"/>
        <pt x="332" y="350" on="0"/>
        <pt x="483" y="286" on="0"/>
        <pt x="594" y="286" on="1"/>
        <pt x="606" y="286" on="0"/>
        <pt x="636" y="289" on="1"/>
        <pt x="632" y="307" on="0"/>
        <pt x="627" y="347" on="0"/>
        <pt x="627" y="361" on="1"/>
        <pt x="627" y="424" on="0"/>
        <pt x="704" y="492" on="0"/>
        <pt x="764" y="492" on="1"/>
        <pt x="821" y="492" on="0"/>
        <pt x="904" y="444" on="0"/>
        <pt x="944" y="371" on="0"/>
        <pt x="944" y="331" on="1"/>
        <pt x="944" y="272" on="0"/>
        <pt x="883" y="193" on="0"/>
        <pt x="821" y="171" on="1"/>
        <pt x="994" y="-282" on="1"/>
      </contour>
      <contour>
        <pt x="604" y="1274" on="1"/>
      </contour>
      <contour>
        <pt x="832" y="0" on="1"/>
      </contour>
      <contour>
        <pt x="653" y="-548" on="1"/>
      </contour>
      <contour>
        <pt x="653" y="-258" on="1"/>
      </contour>
      <contour>
        <pt x="653" y="-806" on="1"/>
      </contour>
    </TTGlyph>
    <TTGlyph name="daghadeva" xMin="0" yMin="-806" xMax="1494" yMax="1274">
      <contour>
        <pt x="1252" y="-339" on="1"/>
        <pt x="1136" y="-17" on="1"/>
        <pt x="1088" y="-79" on="0"/>
        <pt x="967" y="-194" on="0"/>
        <pt x="822" y="-282" on="0"/>
        <pt x="650" y="-335" on="0"/>
        <pt x="551" y="-335" on="1"/>
        <pt x="431" y="-335" on="0"/>
        <pt x="258" y="-265" on="0"/>
        <pt x="170" y="-141" on="0"/>
        <pt x="170" y="-61" on="1"/>
        <pt x="170" y="-18" on="0"/>
        <pt x="203" y="72" on="0"/>
        <pt x="239" y="109" on="1"/>
        <pt x="163" y="148" on="0"/>
        <pt x="81" y="263" on="0"/>
        <pt x="81" y="339" on="1"/>
        <pt x="81" y="416" on="0"/>
        <pt x="166" y="528" on="0"/>
        <pt x="316" y="585" on="0"/>
        <pt x="414" y="585" on="1"/>
        <pt x="451" y="585" on="0"/>
        <pt x="495" y="579" on="1"/>
        <pt x="501" y="698" on="0"/>
        <pt x="634" y="860" on="0"/>
        <pt x="849" y="933" on="0"/>
        <pt x="994" y="933" on="1"/>
        <pt x="1004" y="933" on="1"/>
        <pt x="1004" y="1128" on="1"/>
        <pt x="0" y="1128" on="1"/>
        <pt x="0" y="1274" on="1"/>
        <pt x="1494" y="1274" on="1"/>
        <pt x="1494" y="1128" on="1"/>
        <pt x="1169" y="1128" on="1"/>
        <pt x="1169" y="789" on="1"/>
        <pt x="1070" y="789" on="1"/>
        <pt x="906" y="789" on="0"/>
        <pt x="740" y="731" on="0"/>
        <pt x="659" y="621" on="0"/>
        <pt x="659" y="537" on="1"/>
        <pt x="659" y="463" on="0"/>
        <pt x="732" y="350" on="0"/>
        <pt x="883" y="286" on="0"/>
        <pt x="994" y="286" on="1"/>
        <pt x="1006" y="286" on="0"/>
        <pt x="1036" y="289" on="1"/>
        <pt x="1032" y="307" on="0"/>
        <pt x="1027" y="347" on="0"/>
        <pt x="1027" y="361" on="1"/>
        <pt x="1027" y="424" on="0"/>
        <pt x="1104" y="492" on="0"/>
        <pt x="1164" y="492" on="1"/>
        <pt x="1221" y="492" on="0"/>
        <pt x="1304" y="444" on="0"/>
        <pt x="1344" y="371" on="0"/>
        <pt x="1344" y="331" on="1"/>
        <pt x="1344" y="272" on="0"/>
        <pt x="1283" y="193" on="0"/>
        <pt x="1221" y="171" on="1"/>
        <pt x="1394" y="-282" on="1"/>
      </contour>
      <contour>
        <pt x="1069" y="147" on="1"/>
        <pt x="1039" y="143" on="0"/>
        <pt x="1001" y="143" on="1"/>
        <pt x="877" y="143" on="0"/>
        <pt x="668" y="214" on="0"/>
        <pt x="533" y="348" on="0"/>
        <pt x="509" y="441" on="1"/>
        <pt x="465" y="448" on="0"/>
        <pt x="428" y="448" on="1"/>
        <pt x="334" y="448" on="0"/>
        <pt x="242" y="385" on="0"/>
        <pt x="242" y="326" on="1"/>
        <pt x="242" y="239" on="0"/>
        <pt x="372" y="203" on="1"/>
        <pt x="423" y="218" on="0"/>
        <pt x="483" y="218" on="1"/>
        <pt x="524" y="218" on="0"/>
        <pt x="563" y="212" on="1"/>
        <pt x="550" y="73" on="1"/>
        <pt x="530" y="76" on="0"/>
        <pt x="505" y="76" on="1"/>
        <pt x="421" y="76" on="0"/>
        <pt x="331" y="9" on="0"/>
        <pt x="331" y="-52" on="1"/>
        <pt x="331" y="-119" on="0"/>
        <pt x="443" y="-195" on="0"/>
        <pt x="537" y="-195" on="1"/>
        <pt x="683" y="-195" on="0"/>
        <pt x="949" y="-27" on="0"/>
      </contour>
      <contour>
        <pt x="1004" y="1274" on="1"/>
      </contour>
      <contour>
        <pt x="1232" y="0" on="1"/>
      </contour>
      <contour>
        <pt x="1053" y="-548" on="1"/>
      </contour>
      <contour>
        <pt x="1053" y="-258" on="1"/>
      </contour>
      <contour>
        <pt x="1053" y="-806" on="1"/>
      </contour>
    </TTGlyph>
    <TTGlyph name="damadeva" xMin="0" yMin="-3" xMax="1529" yMax="1274">
      <contour>
        <pt x="394" y="463" on="1"/>
        <pt x="329" y="463" on="0"/>
        <pt x="229" y="485" on="0"/>
        <pt x="138" y="548" on="0"/>
        <pt x="85" y="645" on="0"/>
        <pt x="85" y="706" on="1"/>
        <pt x="85" y="791" on="0"/>
        <pt x="163" y="898" on="0"/>
        <pt x="312" y="953" on="0"/>
        <pt x="448" y="953" on="1"/>
        <pt x="570" y="953" on="1"/>
        <pt x="570" y="1128" on="1"/>
        <pt x="0" y="1128" on="1"/>
        <pt x="0" y="1274" on="1"/>
        <pt x="1529" y="1274" on="1"/>
        <pt x="1529" y="1128" on="1"/>
        <pt x="1316" y="1128" on="1"/>
        <pt x="1316" y="0" on="1"/>
        <pt x="1151" y="0" on="1"/>
        <pt x="1151" y="199" on="1"/>
        <pt x="828" y="199" on="1"/>
        <pt x="828" y="125" on="1"/>
        <pt x="828" y="65" on="0"/>
        <pt x="774" y="-3" on="0"/>
        <pt x="729" y="-3" on="1"/>
        <pt x="681" y="-3" on="0"/>
        <pt x="563" y="82" on="0"/>
        <pt x="484" y="207" on="0"/>
        <pt x="484" y="257" on="1"/>
        <pt x="484" y="300" on="0"/>
        <pt x="548" y="345" on="0"/>
        <pt x="609" y="345" on="1"/>
        <pt x="668" y="345" on="1"/>
        <pt x="668" y="386" on="0"/>
        <pt x="649" y="432" on="0"/>
        <pt x="613" y="456" on="0"/>
        <pt x="561" y="462" on="0"/>
        <pt x="529" y="462" on="1"/>
      </contour>
      <contour>
        <pt x="735" y="1128" on="1"/>
        <pt x="735" y="807" on="1"/>
        <pt x="438" y="807" on="1"/>
        <pt x="381" y="807" on="0"/>
        <pt x="318" y="800" on="0"/>
        <pt x="280" y="784" on="0"/>
        <pt x="255" y="759" on="0"/>
        <pt x="243" y="725" on="0"/>
        <pt x="243" y="703" on="1"/>
        <pt x="243" y="676" on="0"/>
        <pt x="261" y="641" on="0"/>
        <pt x="291" y="618" on="0"/>
        <pt x="334" y="608" on="0"/>
        <pt x="369" y="608" on="1"/>
        <pt x="532" y="608" on="1"/>
        <pt x="620" y="608" on="0"/>
        <pt x="719" y="578" on="0"/>
        <pt x="787" y="511" on="0"/>
        <pt x="822" y="415" on="0"/>
        <pt x="822" y="345" on="1"/>
        <pt x="1151" y="345" on="1"/>
        <pt x="1151" y="1128" on="1"/>
      </contour>
    </TTGlyph>
    <TTGlyph name="dandadeva" xMin="398" yMin="0" xMax="563" yMax="1274">
      <contour>
        <pt x="398" y="0" on="1"/>
        <pt x="398" y="1274" on="1"/>
        <pt x="563" y="1274" on="1"/>
        <pt x="563" y="0" on="1"/>
      </contour>
    </TTGlyph>
    <TTGlyph name="danuktadeva" xMin="0" yMin="-238" xMax="1094" yMax="1274">
      <component glyphName="dadeva" x="0" y="0" flags="0x204"/>
      <component glyphName="nuktadeva" x="1001" y="156" flags="0x4"/>
    </TTGlyph>
    <TTGlyph name="danuktaprehalfdeva" xMin="0" yMin="-548" xMax="1264" yMax="1274">
      <component glyphName="dadeva" x="0" y="0" flags="0x204"/>
      <component glyphName="viramadeva" x="954" y="0" flags="0x4"/>
      <component glyphName="nuktadeva" x="931" y="156" flags="0x4"/>
    </TTGlyph>
    <TTGlyph name="danuktaradeva" xMin="0" yMin="-362" xMax="1094" yMax="1274">
      <component glyphName="daradeva" x="0" y="0" flags="0x204"/>
      <component glyphName="nuktadeva" x="1109" y="32" flags="0x4"/>
    </TTGlyph>
    <TTGlyph name="danuktaraprehalfdeva" xMin="0" yMin="-548" xMax="1334" yMax="1274">
      <component glyphName="daradeva" x="0" y="0" flags="0x204"/>
      <component glyphName="viramanuktadeva" x="1024" y="0" flags="0x4"/>
    </TTGlyph>
    <TTGlyph name="danuktarvocalicdeva" xMin="0" yMin="-548" xMax="1170" yMax="1274">
      <component glyphName="darvocalicdeva" x="0" y="0" flags="0x204"/>
      <component glyphName="nuktadeva" x="930" y="156" flags="0x4"/>
    </TTGlyph>
    <TTGlyph name="danuktaudeva" xMin="0" yMin="-548" xMax="1160" yMax="1274">
      <contour>
        <pt x="668" y="-14" on="1"/>
        <pt x="709" y="4" on="0"/>
        <pt x="769" y="14" on="1"/>
        <pt x="735" y="76" on="0"/>
        <pt x="701" y="149" on="1"/>
        <pt x="644" y="140" on="0"/>
        <pt x="588" y="140" on="1"/>
        <pt x="496" y="140" on="0"/>
        <pt x="335" y="182" on="0"/>
        <pt x="215" y="256" on="0"/>
        <pt x="137" y="354" on="0"/>
        <pt x="95" y="479" on="0"/>
        <pt x="95" y="557" on="1"/>
        <pt x="95" y="614" on="0"/>
        <pt x="120" y="709" on="0"/>
        <pt x="179" y="800" on="0"/>
        <pt x="267" y="867" on="0"/>
        <pt x="376" y="910" on="0"/>
        <pt x="514" y="933" on="0"/>
        <pt x="594" y="933" on="1"/>
        <pt x="604" y="933" on="1"/>
        <pt x="604" y="1128" on="1"/>
        <pt x="0" y="1128" on="1"/>
        <pt x="0" y="1274" on="1"/>
        <pt x="1094" y="1274" on="1"/>
        <pt x="1094" y="1128" on="1"/>
        <pt x="769" y="1128" on="1"/>
        <pt x="769" y="789" on="1"/>
        <pt x="670" y="789" on="1"/>
        <pt x="512" y="789" on="0"/>
        <pt x="346" y="735" on="0"/>
        <pt x="259" y="623" on="0"/>
        <pt x="259" y="537" on="1"/>
        <pt x="259" y="463" on="0"/>
        <pt x="331" y="350" on="0"/>
        <pt x="480" y="286" on="0"/>
        <pt x="588" y="286" on="1"/>
        <pt x="609" y="286" on="0"/>
        <pt x="639" y="289" on="1"/>
        <pt x="632" y="307" on="0"/>
        <pt x="627" y="347" on="0"/>
        <pt x="627" y="361" on="1"/>
        <pt x="627" y="424" on="0"/>
        <pt x="704" y="492" on="0"/>
        <pt x="764" y="492" on="1"/>
        <pt x="821" y="492" on="0"/>
        <pt x="904" y="444" on="0"/>
        <pt x="944" y="371" on="0"/>
        <pt x="944" y="331" on="1"/>
        <pt x="944" y="275" on="0"/>
        <pt x="895" y="199" on="0"/>
        <pt x="839" y="177" on="1"/>
        <pt x="886" y="88" on="0"/>
        <pt x="934" y="18" on="1"/>
        <pt x="1041" y="0" on="0"/>
        <pt x="1160" y="-151" on="0"/>
        <pt x="1160" y="-265" on="1"/>
        <pt x="1160" y="-348" on="0"/>
        <pt x="1085" y="-477" on="0"/>
        <pt x="940" y="-548" on="0"/>
        <pt x="841" y="-548" on="1"/>
        <pt x="726" y="-548" on="0"/>
        <pt x="538" y="-465" on="0"/>
        <pt x="385" y="-317" on="0"/>
        <pt x="309" y="-204" on="1"/>
        <pt x="435" y="-116" on="1"/>
        <pt x="507" y="-226" on="0"/>
        <pt x="623" y="-345" on="0"/>
        <pt x="751" y="-402" on="0"/>
        <pt x="832" y="-402" on="1"/>
        <pt x="915" y="-402" on="0"/>
        <pt x="1009" y="-322" on="0"/>
        <pt x="1009" y="-249" on="1"/>
        <pt x="1009" y="-187" on="0"/>
        <pt x="931" y="-118" on="0"/>
        <pt x="863" y="-118" on="1"/>
        <pt x="789" y="-118" on="0"/>
        <pt x="720" y="-147" on="1"/>
      </contour>
      <contour>
        <pt x="239" y="123" on="1"/>
        <pt x="269" y="123" on="0"/>
        <pt x="320" y="92" on="0"/>
        <pt x="352" y="36" on="0"/>
        <pt x="352" y="4" on="1"/>
        <pt x="352" y="-29" on="0"/>
        <pt x="319" y="-85" on="0"/>
        <pt x="268" y="-115" on="0"/>
        <pt x="239" y="-115" on="1"/>
        <pt x="209" y="-115" on="0"/>
        <pt x="158" y="-84" on="0"/>
        <pt x="126" y="-29" on="0"/>
        <pt x="126" y="4" on="1"/>
        <pt x="126" y="36" on="0"/>
        <pt x="157" y="92" on="0"/>
        <pt x="209" y="123" on="0"/>
      </contour>
      <contour>
        <pt x="604" y="1274" on="1"/>
      </contour>
      <contour>
        <pt x="863" y="22" on="1"/>
      </contour>
    </TTGlyph>
    <TTGlyph name="danuktauudeva" xMin="0" yMin="-548" xMax="1390" yMax="1274">
      <component glyphName="dauudeva" x="0" y="0" flags="0x204"/>
      <component glyphName="nuktadeva" x="843" y="256" flags="0x4"/>
    </TTGlyph>
    <TTGlyph name="daprehalfdeva" xMin="0" yMin="-548" xMax="1264" yMax="1274">
      <component glyphName="dadeva" x="0" y="0" flags="0x204"/>
      <component glyphName="viramadeva" x="954" y="0" flags="0x4"/>
    </TTGlyph>
    <TTGlyph name="daradeva" xMin="0" yMin="-136" xMax="1094" yMax="1274">
      <contour>
        <pt x="847" y="-118" on="1"/>
        <pt x="755" y="32" on="0"/>
        <pt x="701" y="150" on="1"/>
        <pt x="167" y="-136" on="1"/>
        <pt x="86" y="9" on="1"/>
        <pt x="437" y="166" on="1"/>
        <pt x="273" y="202" on="0"/>
        <pt x="95" y="400" on="0"/>
        <pt x="95" y="557" on="1"/>
        <pt x="95" y="614" on="0"/>
        <pt x="120" y="709" on="0"/>
        <pt x="179" y="800" on="0"/>
        <pt x="267" y="867" on="0"/>
        <pt x="376" y="910" on="0"/>
        <pt x="514" y="933" on="0"/>
        <pt x="594" y="933" on="1"/>
        <pt x="604" y="933" on="1"/>
        <pt x="604" y="1128" on="1"/>
        <pt x="0" y="1128" on="1"/>
        <pt x="0" y="1274" on="1"/>
        <pt x="1094" y="1274" on="1"/>
        <pt x="1094" y="1128" on="1"/>
        <pt x="769" y="1128" on="1"/>
        <pt x="769" y="789" on="1"/>
        <pt x="670" y="789" on="1"/>
        <pt x="512" y="789" on="0"/>
        <pt x="346" y="735" on="0"/>
        <pt x="259" y="623" on="0"/>
        <pt x="259" y="537" on="1"/>
        <pt x="259" y="463" on="0"/>
        <pt x="332" y="350" on="0"/>
        <pt x="483" y="286" on="0"/>
        <pt x="594" y="286" on="1"/>
        <pt x="609" y="286" on="0"/>
        <pt x="639" y="289" on="1"/>
        <pt x="632" y="307" on="0"/>
        <pt x="627" y="347" on="0"/>
        <pt x="627" y="361" on="1"/>
        <pt x="627" y="424" on="0"/>
        <pt x="704" y="492" on="0"/>
        <pt x="764" y="492" on="1"/>
        <pt x="821" y="492" on="0"/>
        <pt x="904" y="444" on="0"/>
        <pt x="944" y="371" on="0"/>
        <pt x="944" y="331" on="1"/>
        <pt x="944" y="275" on="0"/>
        <pt x="895" y="199" on="0"/>
        <pt x="839" y="177" on="1"/>
        <pt x="897" y="65" on="0"/>
        <pt x="983" y="-50" on="1"/>
      </contour>
      <contour>
        <pt x="604" y="1274" on="1"/>
      </contour>
      <contour>
        <pt x="812" y="0" on="1"/>
      </contour>
      <contour>
        <pt x="588" y="140" on="1"/>
      </contour>
    </TTGlyph>
    <TTGlyph name="daraprehalfdeva" xMin="0" yMin="-548" xMax="1264" yMax="1274">
      <component glyphName="daradeva" x="0" y="0" flags="0x204"/>
      <component glyphName="viramadeva" x="954" y="0" flags="0x4"/>
    </TTGlyph>
    <TTGlyph name="darvocalicdeva" xMin="0" yMin="-548" xMax="1170" yMax="1274">
      <contour>
        <pt x="915" y="-93" on="1"/>
        <pt x="874" y="-104" on="0"/>
        <pt x="804" y="-133" on="0"/>
        <pt x="749" y="-177" on="0"/>
        <pt x="721" y="-233" on="0"/>
        <pt x="721" y="-270" on="1"/>
        <pt x="721" y="-305" on="0"/>
        <pt x="749" y="-355" on="0"/>
        <pt x="795" y="-388" on="0"/>
        <pt x="854" y="-403" on="0"/>
        <pt x="886" y="-403" on="1"/>
        <pt x="943" y="-403" on="0"/>
        <pt x="1037" y="-378" on="0"/>
        <pt x="1118" y="-336" on="1"/>
        <pt x="1170" y="-478" on="1"/>
        <pt x="1098" y="-514" on="0"/>
        <pt x="965" y="-548" on="0"/>
        <pt x="897" y="-548" on="1"/>
        <pt x="796" y="-548" on="0"/>
        <pt x="648" y="-476" on="0"/>
        <pt x="570" y="-344" on="0"/>
        <pt x="570" y="-259" on="1"/>
        <pt x="570" y="-169" on="0"/>
        <pt x="676" y="-30" on="0"/>
        <pt x="777" y="7" on="1"/>
        <pt x="737" y="75" on="0"/>
        <pt x="700" y="152" on="1"/>
        <pt x="682" y="149" on="0"/>
        <pt x="618" y="143" on="0"/>
        <pt x="601" y="143" on="1"/>
        <pt x="506" y="143" on="0"/>
        <pt x="339" y="185" on="0"/>
        <pt x="216" y="259" on="0"/>
        <pt x="137" y="357" on="0"/>
        <pt x="95" y="480" on="0"/>
        <pt x="95" y="557" on="1"/>
        <pt x="95" y="614" on="0"/>
        <pt x="120" y="709" on="0"/>
        <pt x="179" y="800" on="0"/>
        <pt x="267" y="867" on="0"/>
        <pt x="376" y="910" on="0"/>
        <pt x="514" y="933" on="0"/>
        <pt x="594" y="933" on="1"/>
        <pt x="604" y="933" on="1"/>
        <pt x="604" y="1128" on="1"/>
        <pt x="0" y="1128" on="1"/>
        <pt x="0" y="1274" on="1"/>
        <pt x="1094" y="1274" on="1"/>
        <pt x="1094" y="1128" on="1"/>
        <pt x="769" y="1128" on="1"/>
        <pt x="769" y="789" on="1"/>
        <pt x="670" y="789" on="1"/>
        <pt x="512" y="789" on="0"/>
        <pt x="346" y="735" on="0"/>
        <pt x="259" y="623" on="0"/>
        <pt x="259" y="537" on="1"/>
        <pt x="259" y="463" on="0"/>
        <pt x="332" y="350" on="0"/>
        <pt x="483" y="286" on="0"/>
        <pt x="594" y="286" on="1"/>
        <pt x="609" y="286" on="0"/>
        <pt x="639" y="289" on="1"/>
        <pt x="632" y="307" on="0"/>
        <pt x="627" y="347" on="0"/>
        <pt x="627" y="361" on="1"/>
        <pt x="627" y="424" on="0"/>
        <pt x="704" y="492" on="0"/>
        <pt x="764" y="492" on="1"/>
        <pt x="821" y="492" on="0"/>
        <pt x="904" y="444" on="0"/>
        <pt x="944" y="371" on="0"/>
        <pt x="944" y="331" on="1"/>
        <pt x="944" y="275" on="0"/>
        <pt x="895" y="199" on="0"/>
        <pt x="839" y="177" on="1"/>
        <pt x="905" y="54" on="0"/>
        <pt x="997" y="-70" on="1"/>
      </contour>
      <contour>
        <pt x="604" y="1274" on="1"/>
      </contour>
      <contour>
        <pt x="977" y="36" on="1"/>
      </contour>
      <contour>
        <pt x="992" y="-99" on="1"/>
      </contour>
    </TTGlyph>
    <TTGlyph name="daudeva" xMin="0" yMin="-548" xMax="1160" yMax="1274">
      <contour>
        <pt x="607" y="-25" on="1"/>
        <pt x="684" y="10" on="0"/>
        <pt x="774" y="20" on="1"/>
        <pt x="722" y="104" on="0"/>
        <pt x="700" y="152" on="1"/>
        <pt x="682" y="149" on="0"/>
        <pt x="618" y="143" on="0"/>
        <pt x="601" y="143" on="1"/>
        <pt x="506" y="143" on="0"/>
        <pt x="339" y="185" on="0"/>
        <pt x="216" y="259" on="0"/>
        <pt x="137" y="357" on="0"/>
        <pt x="95" y="480" on="0"/>
        <pt x="95" y="557" on="1"/>
        <pt x="95" y="614" on="0"/>
        <pt x="120" y="709" on="0"/>
        <pt x="179" y="800" on="0"/>
        <pt x="267" y="867" on="0"/>
        <pt x="376" y="910" on="0"/>
        <pt x="514" y="933" on="0"/>
        <pt x="594" y="933" on="1"/>
        <pt x="604" y="933" on="1"/>
        <pt x="604" y="1128" on="1"/>
        <pt x="0" y="1128" on="1"/>
        <pt x="0" y="1274" on="1"/>
        <pt x="1094" y="1274" on="1"/>
        <pt x="1094" y="1128" on="1"/>
        <pt x="769" y="1128" on="1"/>
        <pt x="769" y="789" on="1"/>
        <pt x="670" y="789" on="1"/>
        <pt x="512" y="789" on="0"/>
        <pt x="346" y="735" on="0"/>
        <pt x="259" y="623" on="0"/>
        <pt x="259" y="537" on="1"/>
        <pt x="259" y="463" on="0"/>
        <pt x="332" y="350" on="0"/>
        <pt x="483" y="286" on="0"/>
        <pt x="594" y="286" on="1"/>
        <pt x="609" y="286" on="0"/>
        <pt x="639" y="289" on="1"/>
        <pt x="632" y="307" on="0"/>
        <pt x="627" y="347" on="0"/>
        <pt x="627" y="361" on="1"/>
        <pt x="627" y="424" on="0"/>
        <pt x="704" y="492" on="0"/>
        <pt x="764" y="492" on="1"/>
        <pt x="821" y="492" on="0"/>
        <pt x="904" y="444" on="0"/>
        <pt x="944" y="371" on="0"/>
        <pt x="944" y="331" on="1"/>
        <pt x="944" y="275" on="0"/>
        <pt x="895" y="199" on="0"/>
        <pt x="839" y="177" on="1"/>
        <pt x="871" y="114" on="0"/>
        <pt x="939" y="11" on="1"/>
        <pt x="1044" y="-13" on="0"/>
        <pt x="1160" y="-159" on="0"/>
        <pt x="1160" y="-265" on="1"/>
        <pt x="1160" y="-348" on="0"/>
        <pt x="1073" y="-477" on="0"/>
        <pt x="907" y="-548" on="0"/>
        <pt x="793" y="-548" on="1"/>
        <pt x="665" y="-548" on="0"/>
        <pt x="449" y="-466" on="0"/>
        <pt x="268" y="-316" on="0"/>
        <pt x="182" y="-204" on="1"/>
        <pt x="308" y="-117" on="1"/>
        <pt x="393" y="-224" on="0"/>
        <pt x="535" y="-344" on="0"/>
        <pt x="693" y="-402" on="0"/>
        <pt x="793" y="-402" on="1"/>
        <pt x="901" y="-402" on="0"/>
        <pt x="1009" y="-324" on="0"/>
        <pt x="1009" y="-249" on="1"/>
        <pt x="1009" y="-206" on="0"/>
        <pt x="963" y="-147" on="0"/>
        <pt x="888" y="-118" on="0"/>
        <pt x="845" y="-118" on="1"/>
        <pt x="798" y="-118" on="0"/>
        <pt x="711" y="-137" on="0"/>
        <pt x="660" y="-161" on="1"/>
      </contour>
      <contour>
        <pt x="604" y="1274" on="1"/>
      </contour>
      <contour>
        <pt x="845" y="22" on="1"/>
      </contour>
    </TTGlyph>
    <TTGlyph name="dauudeva" xMin="0" yMin="-548" xMax="1390" yMax="1274">
      <contour>
        <pt x="966" y="-501" on="1"/>
        <pt x="853" y="-548" on="0"/>
        <pt x="740" y="-548" on="1"/>
        <pt x="639" y="-548" on="0"/>
        <pt x="491" y="-476" on="0"/>
        <pt x="413" y="-344" on="0"/>
        <pt x="413" y="-259" on="1"/>
        <pt x="413" y="-182" on="0"/>
        <pt x="498" y="-53" on="0"/>
        <pt x="658" y="22" on="0"/>
        <pt x="763" y="22" on="1"/>
        <pt x="772" y="22" on="1"/>
        <pt x="725" y="98" on="0"/>
        <pt x="700" y="152" on="1"/>
        <pt x="682" y="149" on="0"/>
        <pt x="618" y="143" on="0"/>
        <pt x="601" y="143" on="1"/>
        <pt x="506" y="143" on="0"/>
        <pt x="339" y="185" on="0"/>
        <pt x="216" y="259" on="0"/>
        <pt x="137" y="357" on="0"/>
        <pt x="95" y="480" on="0"/>
        <pt x="95" y="557" on="1"/>
        <pt x="95" y="614" on="0"/>
        <pt x="120" y="709" on="0"/>
        <pt x="179" y="800" on="0"/>
        <pt x="267" y="867" on="0"/>
        <pt x="376" y="910" on="0"/>
        <pt x="514" y="933" on="0"/>
        <pt x="594" y="933" on="1"/>
        <pt x="604" y="933" on="1"/>
        <pt x="604" y="1128" on="1"/>
        <pt x="0" y="1128" on="1"/>
        <pt x="0" y="1274" on="1"/>
        <pt x="1094" y="1274" on="1"/>
        <pt x="1094" y="1128" on="1"/>
        <pt x="769" y="1128" on="1"/>
        <pt x="769" y="789" on="1"/>
        <pt x="670" y="789" on="1"/>
        <pt x="512" y="789" on="0"/>
        <pt x="346" y="735" on="0"/>
        <pt x="259" y="623" on="0"/>
        <pt x="259" y="537" on="1"/>
        <pt x="259" y="463" on="0"/>
        <pt x="332" y="350" on="0"/>
        <pt x="483" y="286" on="0"/>
        <pt x="594" y="286" on="1"/>
        <pt x="609" y="286" on="0"/>
        <pt x="639" y="289" on="1"/>
        <pt x="632" y="307" on="0"/>
        <pt x="627" y="347" on="0"/>
        <pt x="627" y="361" on="1"/>
        <pt x="627" y="424" on="0"/>
        <pt x="704" y="492" on="0"/>
        <pt x="764" y="492" on="1"/>
        <pt x="821" y="492" on="0"/>
        <pt x="904" y="444" on="0"/>
        <pt x="944" y="371" on="0"/>
        <pt x="944" y="331" on="1"/>
        <pt x="944" y="275" on="0"/>
        <pt x="895" y="199" on="0"/>
        <pt x="839" y="177" on="1"/>
        <pt x="890" y="82" on="0"/>
        <pt x="951" y="-6" on="1"/>
        <pt x="1039" y="-33" on="0"/>
        <pt x="1191" y="-138" on="0"/>
        <pt x="1319" y="-279" on="0"/>
        <pt x="1390" y="-387" on="1"/>
        <pt x="1265" y="-467" on="1"/>
        <pt x="1185" y="-347" on="0"/>
        <pt x="1039" y="-197" on="0"/>
        <pt x="872" y="-117" on="0"/>
        <pt x="774" y="-117" on="1"/>
        <pt x="673" y="-117" on="0"/>
        <pt x="564" y="-195" on="0"/>
        <pt x="564" y="-263" on="1"/>
        <pt x="564" y="-302" on="0"/>
        <pt x="592" y="-355" on="0"/>
        <pt x="638" y="-388" on="0"/>
        <pt x="698" y="-402" on="0"/>
        <pt x="729" y="-402" on="1"/>
        <pt x="775" y="-402" on="0"/>
        <pt x="859" y="-384" on="0"/>
        <pt x="914" y="-358" on="1"/>
      </contour>
      <contour>
        <pt x="604" y="1274" on="1"/>
      </contour>
    </TTGlyph>
    <TTGlyph name="davadeva" xMin="0" yMin="-806" xMax="1299" yMax="1274">
      <contour>
        <pt x="1057" y="-339" on="1"/>
        <pt x="939" y="-13" on="1"/>
        <pt x="869" y="-93" on="0"/>
        <pt x="737" y="-193" on="0"/>
        <pt x="568" y="-255" on="0"/>
        <pt x="465" y="-255" on="1"/>
        <pt x="352" y="-255" on="0"/>
        <pt x="178" y="-173" on="0"/>
        <pt x="81" y="-25" on="0"/>
        <pt x="81" y="68" on="1"/>
        <pt x="81" y="185" on="0"/>
        <pt x="212" y="348" on="0"/>
        <pt x="334" y="384" on="1"/>
        <pt x="300" y="459" on="0"/>
        <pt x="300" y="557" on="1"/>
        <pt x="300" y="614" on="0"/>
        <pt x="325" y="709" on="0"/>
        <pt x="384" y="800" on="0"/>
        <pt x="472" y="867" on="0"/>
        <pt x="581" y="910" on="0"/>
        <pt x="719" y="933" on="0"/>
        <pt x="799" y="933" on="1"/>
        <pt x="809" y="933" on="1"/>
        <pt x="809" y="1128" on="1"/>
        <pt x="0" y="1128" on="1"/>
        <pt x="0" y="1274" on="1"/>
        <pt x="1299" y="1274" on="1"/>
        <pt x="1299" y="1128" on="1"/>
        <pt x="974" y="1128" on="1"/>
        <pt x="974" y="789" on="1"/>
        <pt x="875" y="789" on="1"/>
        <pt x="717" y="789" on="0"/>
        <pt x="551" y="735" on="0"/>
        <pt x="464" y="623" on="0"/>
        <pt x="464" y="537" on="1"/>
        <pt x="464" y="463" on="0"/>
        <pt x="537" y="350" on="0"/>
        <pt x="688" y="286" on="0"/>
        <pt x="799" y="286" on="1"/>
        <pt x="811" y="286" on="0"/>
        <pt x="841" y="289" on="1"/>
        <pt x="837" y="307" on="0"/>
        <pt x="832" y="347" on="0"/>
        <pt x="832" y="361" on="1"/>
        <pt x="832" y="424" on="0"/>
        <pt x="909" y="492" on="0"/>
        <pt x="969" y="492" on="1"/>
        <pt x="1026" y="492" on="0"/>
        <pt x="1109" y="444" on="0"/>
        <pt x="1149" y="371" on="0"/>
        <pt x="1149" y="331" on="1"/>
        <pt x="1149" y="272" on="0"/>
        <pt x="1088" y="193" on="0"/>
        <pt x="1026" y="171" on="1"/>
        <pt x="1199" y="-283" on="1"/>
      </contour>
      <contour>
        <pt x="429" y="259" on="1"/>
        <pt x="342" y="240" on="0"/>
        <pt x="243" y="138" on="0"/>
        <pt x="243" y="69" on="1"/>
        <pt x="243" y="5" on="0"/>
        <pt x="306" y="-79" on="0"/>
        <pt x="407" y="-115" on="0"/>
        <pt x="468" y="-115" on="1"/>
        <pt x="549" y="-115" on="0"/>
        <pt x="690" y="-49" on="0"/>
        <pt x="806" y="57" on="0"/>
        <pt x="875" y="148" on="1"/>
        <pt x="836" y="143" on="0"/>
        <pt x="806" y="143" on="1"/>
        <pt x="691" y="143" on="0"/>
        <pt x="495" y="204" on="0"/>
      </contour>
      <contour>
        <pt x="809" y="1274" on="1"/>
      </contour>
      <contour>
        <pt x="1037" y="0" on="1"/>
      </contour>
      <contour>
        <pt x="953" y="-548" on="1"/>
      </contour>
      <contour>
        <pt x="953" y="-258" on="1"/>
      </contour>
      <contour>
        <pt x="953" y="-806" on="1"/>
      </contour>
      <contour>
        <pt x="424" y="238" on="1"/>
      </contour>
    </TTGlyph>
    <TTGlyph name="dayadeva" xMin="0" yMin="-23" xMax="1431" yMax="1274">
      <contour>
        <pt x="1431" y="1274" on="1"/>
        <pt x="1431" y="1128" on="1"/>
        <pt x="1218" y="1128" on="1"/>
        <pt x="1218" y="0" on="1"/>
        <pt x="1054" y="0" on="1"/>
        <pt x="1054" y="198" on="1"/>
        <pt x="928" y="79" on="0"/>
        <pt x="680" y="-23" on="0"/>
        <pt x="540" y="-23" on="1"/>
        <pt x="426" y="-23" on="0"/>
        <pt x="251" y="52" on="0"/>
        <pt x="158" y="188" on="0"/>
        <pt x="158" y="278" on="1"/>
        <pt x="158" y="401" on="0"/>
        <pt x="232" y="485" on="1"/>
        <pt x="176" y="524" on="0"/>
        <pt x="119" y="590" on="0"/>
        <pt x="85" y="671" on="0"/>
        <pt x="85" y="721" on="1"/>
        <pt x="85" y="784" on="0"/>
        <pt x="135" y="871" on="0"/>
        <pt x="220" y="927" on="0"/>
        <pt x="330" y="953" on="0"/>
        <pt x="413" y="953" on="1"/>
        <pt x="553" y="953" on="1"/>
        <pt x="553" y="1128" on="1"/>
        <pt x="0" y="1128" on="1"/>
        <pt x="0" y="1274" on="1"/>
      </contour>
      <contour>
        <pt x="365" y="578" on="1"/>
        <pt x="456" y="614" on="0"/>
        <pt x="568" y="614" on="1"/>
        <pt x="615" y="614" on="0"/>
        <pt x="737" y="601" on="0"/>
        <pt x="764" y="593" on="1"/>
        <pt x="752" y="447" on="1"/>
        <pt x="699" y="455" on="0"/>
        <pt x="620" y="465" on="0"/>
        <pt x="578" y="465" on="1"/>
        <pt x="450" y="465" on="0"/>
        <pt x="323" y="374" on="0"/>
        <pt x="323" y="288" on="1"/>
        <pt x="323" y="208" on="0"/>
        <pt x="438" y="121" on="0"/>
        <pt x="543" y="121" on="1"/>
        <pt x="646" y="121" on="0"/>
        <pt x="822" y="198" on="0"/>
        <pt x="972" y="332" on="0"/>
        <pt x="1054" y="438" on="1"/>
        <pt x="1054" y="1128" on="1"/>
        <pt x="718" y="1128" on="1"/>
        <pt x="718" y="807" on="1"/>
        <pt x="408" y="807" on="1"/>
        <pt x="344" y="807" on="0"/>
        <pt x="281" y="791" on="0"/>
        <pt x="243" y="745" on="0"/>
        <pt x="243" y="710" on="1"/>
        <pt x="243" y="667" on="0"/>
        <pt x="307" y="598" on="0"/>
      </contour>
    </TTGlyph>
    <TTGlyph name="dayaprehalfdeva" xMin="0" yMin="-23" xMax="1162" yMax="1274">
      <contour>
        <pt x="718" y="1128" on="1"/>
        <pt x="718" y="807" on="1"/>
        <pt x="408" y="807" on="1"/>
        <pt x="344" y="807" on="0"/>
        <pt x="281" y="791" on="0"/>
        <pt x="243" y="745" on="0"/>
        <pt x="243" y="710" on="1"/>
        <pt x="243" y="667" on="0"/>
        <pt x="307" y="598" on="0"/>
        <pt x="365" y="578" on="1"/>
        <pt x="456" y="614" on="0"/>
        <pt x="568" y="614" on="1"/>
        <pt x="615" y="614" on="0"/>
        <pt x="737" y="601" on="0"/>
        <pt x="764" y="593" on="1"/>
        <pt x="752" y="447" on="1"/>
        <pt x="699" y="455" on="0"/>
        <pt x="620" y="465" on="0"/>
        <pt x="578" y="465" on="1"/>
        <pt x="450" y="465" on="0"/>
        <pt x="323" y="374" on="0"/>
        <pt x="323" y="288" on="1"/>
        <pt x="323" y="208" on="0"/>
        <pt x="438" y="121" on="0"/>
        <pt x="543" y="121" on="1"/>
        <pt x="646" y="121" on="0"/>
        <pt x="822" y="198" on="0"/>
        <pt x="972" y="332" on="0"/>
        <pt x="1054" y="438" on="1"/>
        <pt x="1162" y="315" on="1"/>
        <pt x="1097" y="240" on="0"/>
        <pt x="1019" y="165" on="0"/>
        <pt x="923" y="91" on="0"/>
        <pt x="829" y="38" on="0"/>
        <pt x="722" y="-2" on="0"/>
        <pt x="606" y="-23" on="0"/>
        <pt x="540" y="-23" on="1"/>
        <pt x="426" y="-23" on="0"/>
        <pt x="251" y="52" on="0"/>
        <pt x="158" y="188" on="0"/>
        <pt x="158" y="278" on="1"/>
        <pt x="158" y="401" on="0"/>
        <pt x="232" y="485" on="1"/>
        <pt x="176" y="524" on="0"/>
        <pt x="119" y="590" on="0"/>
        <pt x="85" y="671" on="0"/>
        <pt x="85" y="721" on="1"/>
        <pt x="85" y="784" on="0"/>
        <pt x="135" y="871" on="0"/>
        <pt x="220" y="927" on="0"/>
        <pt x="330" y="953" on="0"/>
        <pt x="413" y="953" on="1"/>
        <pt x="553" y="953" on="1"/>
        <pt x="553" y="1128" on="1"/>
        <pt x="0" y="1128" on="1"/>
        <pt x="0" y="1274" on="1"/>
        <pt x="1031" y="1274" on="1"/>
        <pt x="1031" y="1128" on="1"/>
      </contour>
    </TTGlyph>
    <TTGlyph name="dbldandadeva" xMin="398" yMin="0" xMax="1013" yMax="1274">
      <contour>
        <pt x="848" y="0" on="1"/>
        <pt x="848" y="1274" on="1"/>
        <pt x="1013" y="1274" on="1"/>
        <pt x="1013" y="0" on="1"/>
      </contour>
      <contour>
        <pt x="398" y="0" on="1"/>
        <pt x="398" y="1274" on="1"/>
        <pt x="563" y="1274" on="1"/>
        <pt x="563" y="0" on="1"/>
      </contour>
    </TTGlyph>
    <TTGlyph name="ddaaltdeva" xMin="0" yMin="0" xMax="1315" yMax="1274">
      <contour>
        <pt x="640" y="543" on="1"/>
        <pt x="512" y="578" on="0"/>
        <pt x="372" y="712" on="0"/>
        <pt x="372" y="798" on="1"/>
        <pt x="372" y="865" on="0"/>
        <pt x="446" y="957" on="0"/>
        <pt x="583" y="1002" on="0"/>
        <pt x="671" y="1002" on="1"/>
        <pt x="917" y="1002" on="1"/>
        <pt x="917" y="1128" on="1"/>
        <pt x="0" y="1128" on="1"/>
        <pt x="0" y="1274" on="1"/>
        <pt x="1315" y="1274" on="1"/>
        <pt x="1315" y="1128" on="1"/>
        <pt x="1082" y="1128" on="1"/>
        <pt x="1082" y="856" on="1"/>
        <pt x="695" y="856" on="1"/>
        <pt x="634" y="856" on="0"/>
        <pt x="581" y="848" on="0"/>
        <pt x="546" y="829" on="0"/>
        <pt x="530" y="804" on="0"/>
        <pt x="530" y="789" on="1"/>
        <pt x="530" y="759" on="0"/>
        <pt x="592" y="708" on="0"/>
        <pt x="645" y="694" on="1"/>
        <pt x="725" y="720" on="0"/>
        <pt x="831" y="720" on="1"/>
        <pt x="941" y="720" on="0"/>
        <pt x="1106" y="661" on="0"/>
        <pt x="1196" y="548" on="0"/>
        <pt x="1196" y="469" on="1"/>
        <pt x="1196" y="392" on="0"/>
        <pt x="1100" y="271" on="0"/>
        <pt x="911" y="201" on="0"/>
        <pt x="780" y="201" on="1"/>
        <pt x="540" y="201" on="0"/>
        <pt x="192" y="431" on="0"/>
        <pt x="57" y="664" on="1"/>
        <pt x="194" y="731" on="1"/>
        <pt x="276" y="590" on="0"/>
        <pt x="456" y="421" on="0"/>
        <pt x="654" y="347" on="0"/>
        <pt x="774" y="347" on="1"/>
        <pt x="901" y="347" on="0"/>
        <pt x="1030" y="410" on="0"/>
        <pt x="1030" y="473" on="1"/>
        <pt x="1030" y="523" on="0"/>
        <pt x="924" y="579" on="0"/>
        <pt x="826" y="579" on="1"/>
        <pt x="777" y="579" on="0"/>
        <pt x="681" y="561" on="0"/>
      </contour>
      <contour>
        <pt x="917" y="1274" on="1"/>
      </contour>
      <contour>
        <pt x="774" y="0" on="1"/>
      </contour>
      <contour>
        <pt x="286" y="295" on="1"/>
      </contour>
    </TTGlyph>
    <TTGlyph name="ddabardeva" xMin="0" yMin="0" xMax="1315" yMax="1274">
      <contour>
        <pt x="640" y="515" on="1"/>
        <pt x="512" y="549" on="0"/>
        <pt x="372" y="687" on="0"/>
        <pt x="372" y="778" on="1"/>
        <pt x="372" y="846" on="0"/>
        <pt x="444" y="935" on="0"/>
        <pt x="582" y="986" on="0"/>
        <pt x="700" y="986" on="1"/>
        <pt x="917" y="986" on="1"/>
        <pt x="917" y="1128" on="1"/>
        <pt x="0" y="1128" on="1"/>
        <pt x="0" y="1274" on="1"/>
        <pt x="1315" y="1274" on="1"/>
        <pt x="1315" y="1128" on="1"/>
        <pt x="1082" y="1128" on="1"/>
        <pt x="1082" y="840" on="1"/>
        <pt x="695" y="840" on="1"/>
        <pt x="630" y="840" on="0"/>
        <pt x="566" y="828" on="0"/>
        <pt x="530" y="793" on="0"/>
        <pt x="530" y="768" on="1"/>
        <pt x="530" y="738" on="0"/>
        <pt x="594" y="687" on="0"/>
        <pt x="647" y="673" on="1"/>
        <pt x="721" y="697" on="0"/>
        <pt x="831" y="697" on="1"/>
        <pt x="941" y="697" on="0"/>
        <pt x="1106" y="637" on="0"/>
        <pt x="1196" y="519" on="0"/>
        <pt x="1196" y="437" on="1"/>
        <pt x="1196" y="357" on="0"/>
        <pt x="1098" y="233" on="0"/>
        <pt x="911" y="163" on="0"/>
        <pt x="780" y="163" on="1"/>
        <pt x="631" y="163" on="0"/>
        <pt x="381" y="250" on="0"/>
        <pt x="154" y="452" on="0"/>
        <pt x="57" y="618" on="1"/>
        <pt x="193" y="687" on="1"/>
        <pt x="276" y="548" on="0"/>
        <pt x="457" y="381" on="0"/>
        <pt x="655" y="309" on="0"/>
        <pt x="774" y="309" on="1"/>
        <pt x="903" y="309" on="0"/>
        <pt x="1030" y="372" on="0"/>
        <pt x="1030" y="441" on="1"/>
        <pt x="1030" y="492" on="0"/>
        <pt x="933" y="551" on="0"/>
        <pt x="835" y="551" on="1"/>
        <pt x="724" y="551" on="0"/>
      </contour>
      <contour>
        <pt x="168" y="0" on="1"/>
        <pt x="168" y="146" on="1"/>
        <pt x="1189" y="146" on="1"/>
        <pt x="1189" y="0" on="1"/>
      </contour>
      <contour>
        <pt x="917" y="1274" on="1"/>
      </contour>
      <contour>
        <pt x="782" y="0" on="1"/>
      </contour>
    </TTGlyph>
    <TTGlyph name="ddaddadeva" xMin="0" yMin="-548" xMax="1315" yMax="1274">
      <contour>
        <pt x="640" y="-113" on="1"/>
        <pt x="512" y="-78" on="0"/>
        <pt x="372" y="56" on="0"/>
        <pt x="372" y="142" on="1"/>
        <pt x="372" y="182" on="0"/>
        <pt x="399" y="242" on="0"/>
        <pt x="421" y="264" on="1"/>
        <pt x="210" y="375" on="0"/>
        <pt x="57" y="644" on="1"/>
        <pt x="194" y="711" on="1"/>
        <pt x="276" y="570" on="0"/>
        <pt x="456" y="401" on="0"/>
        <pt x="654" y="327" on="0"/>
        <pt x="774" y="327" on="1"/>
        <pt x="1030" y="327" on="0"/>
        <pt x="1030" y="464" on="1"/>
        <pt x="1030" y="516" on="0"/>
        <pt x="927" y="579" on="0"/>
        <pt x="826" y="579" on="1"/>
        <pt x="777" y="579" on="0"/>
        <pt x="681" y="561" on="0"/>
        <pt x="640" y="543" on="1"/>
        <pt x="512" y="578" on="0"/>
        <pt x="372" y="712" on="0"/>
        <pt x="372" y="798" on="1"/>
        <pt x="372" y="865" on="0"/>
        <pt x="446" y="957" on="0"/>
        <pt x="583" y="1002" on="0"/>
        <pt x="671" y="1002" on="1"/>
        <pt x="917" y="1002" on="1"/>
        <pt x="917" y="1128" on="1"/>
        <pt x="0" y="1128" on="1"/>
        <pt x="0" y="1274" on="1"/>
        <pt x="1315" y="1274" on="1"/>
        <pt x="1315" y="1128" on="1"/>
        <pt x="1082" y="1128" on="1"/>
        <pt x="1082" y="856" on="1"/>
        <pt x="695" y="856" on="1"/>
        <pt x="634" y="856" on="0"/>
        <pt x="581" y="848" on="0"/>
        <pt x="546" y="829" on="0"/>
        <pt x="530" y="804" on="0"/>
        <pt x="530" y="789" on="1"/>
        <pt x="530" y="759" on="0"/>
        <pt x="592" y="708" on="0"/>
        <pt x="645" y="694" on="1"/>
        <pt x="725" y="720" on="0"/>
        <pt x="831" y="720" on="1"/>
        <pt x="941" y="720" on="0"/>
        <pt x="1106" y="659" on="0"/>
        <pt x="1196" y="541" on="0"/>
        <pt x="1196" y="459" on="1"/>
        <pt x="1196" y="380" on="0"/>
        <pt x="1101" y="254" on="0"/>
        <pt x="912" y="181" on="0"/>
        <pt x="780" y="181" on="1"/>
        <pt x="682" y="181" on="0"/>
        <pt x="602" y="198" on="1"/>
        <pt x="566" y="190" on="0"/>
        <pt x="530" y="156" on="0"/>
        <pt x="530" y="133" on="1"/>
        <pt x="530" y="103" on="0"/>
        <pt x="592" y="52" on="0"/>
        <pt x="645" y="38" on="1"/>
        <pt x="725" y="64" on="0"/>
        <pt x="831" y="64" on="1"/>
        <pt x="941" y="64" on="0"/>
        <pt x="1106" y="3" on="0"/>
        <pt x="1196" y="-115" on="0"/>
        <pt x="1196" y="-197" on="1"/>
        <pt x="1196" y="-276" on="0"/>
        <pt x="1101" y="-402" on="0"/>
        <pt x="912" y="-475" on="0"/>
        <pt x="780" y="-475" on="1"/>
        <pt x="540" y="-475" on="0"/>
        <pt x="192" y="-245" on="0"/>
        <pt x="57" y="-12" on="1"/>
        <pt x="194" y="55" on="1"/>
        <pt x="276" y="-86" on="0"/>
        <pt x="456" y="-255" on="0"/>
        <pt x="654" y="-329" on="0"/>
        <pt x="774" y="-329" on="1"/>
        <pt x="1030" y="-329" on="0"/>
        <pt x="1030" y="-192" on="1"/>
        <pt x="1030" y="-140" on="0"/>
        <pt x="927" y="-77" on="0"/>
        <pt x="826" y="-77" on="1"/>
        <pt x="777" y="-77" on="0"/>
        <pt x="681" y="-95" on="0"/>
      </contour>
      <contour>
        <pt x="917" y="1274" on="1"/>
      </contour>
      <contour>
        <pt x="583" y="-548" on="1"/>
      </contour>
    </TTGlyph>
    <TTGlyph name="ddaddauudeva" xMin="0" yMin="-806" xMax="1359" yMax="1274">
      <contour>
        <pt x="640" y="3" on="1"/>
        <pt x="513" y="35" on="0"/>
        <pt x="372" y="160" on="0"/>
        <pt x="372" y="240" on="1"/>
        <pt x="372" y="306" on="0"/>
        <pt x="414" y="351" on="1"/>
        <pt x="314" y="399" on="0"/>
        <pt x="135" y="570" on="0"/>
        <pt x="57" y="692" on="1"/>
        <pt x="194" y="761" on="1"/>
        <pt x="307" y="588" on="0"/>
        <pt x="577" y="421" on="0"/>
        <pt x="774" y="421" on="1"/>
        <pt x="902" y="421" on="0"/>
        <pt x="1030" y="477" on="0"/>
        <pt x="1030" y="533" on="1"/>
        <pt x="1030" y="577" on="0"/>
        <pt x="923" y="627" on="0"/>
        <pt x="826" y="627" on="1"/>
        <pt x="725" y="627" on="0"/>
        <pt x="640" y="594" on="1"/>
        <pt x="513" y="626" on="0"/>
        <pt x="372" y="751" on="0"/>
        <pt x="372" y="831" on="1"/>
        <pt x="372" y="924" on="0"/>
        <pt x="533" y="1022" on="0"/>
        <pt x="671" y="1022" on="1"/>
        <pt x="917" y="1022" on="1"/>
        <pt x="917" y="1128" on="1"/>
        <pt x="0" y="1128" on="1"/>
        <pt x="0" y="1274" on="1"/>
        <pt x="1315" y="1274" on="1"/>
        <pt x="1315" y="1128" on="1"/>
        <pt x="1082" y="1128" on="1"/>
        <pt x="1082" y="876" on="1"/>
        <pt x="695" y="876" on="1"/>
        <pt x="621" y="876" on="0"/>
        <pt x="565" y="867" on="0"/>
        <pt x="530" y="841" on="0"/>
        <pt x="530" y="823" on="1"/>
        <pt x="530" y="775" on="0"/>
        <pt x="645" y="744" on="1"/>
        <pt x="726" y="768" on="0"/>
        <pt x="831" y="768" on="1"/>
        <pt x="1003" y="768" on="0"/>
        <pt x="1196" y="639" on="0"/>
        <pt x="1196" y="526" on="1"/>
        <pt x="1196" y="410" on="0"/>
        <pt x="979" y="276" on="0"/>
        <pt x="780" y="276" on="1"/>
        <pt x="710" y="276" on="0"/>
        <pt x="645" y="284" on="1"/>
        <pt x="530" y="282" on="0"/>
        <pt x="530" y="232" on="1"/>
        <pt x="530" y="184" on="0"/>
        <pt x="645" y="153" on="1"/>
        <pt x="726" y="177" on="0"/>
        <pt x="831" y="177" on="1"/>
        <pt x="1003" y="177" on="0"/>
        <pt x="1196" y="48" on="0"/>
        <pt x="1196" y="-65" on="1"/>
        <pt x="1196" y="-162" on="0"/>
        <pt x="1038" y="-292" on="0"/>
        <pt x="888" y="-309" on="1"/>
        <pt x="1008" y="-333" on="0"/>
        <pt x="1232" y="-485" on="0"/>
        <pt x="1359" y="-661" on="1"/>
        <pt x="1234" y="-733" on="1"/>
        <pt x="1111" y="-574" on="0"/>
        <pt x="881" y="-433" on="0"/>
        <pt x="743" y="-433" on="1"/>
        <pt x="638" y="-433" on="0"/>
        <pt x="533" y="-496" on="0"/>
        <pt x="533" y="-550" on="1"/>
        <pt x="533" y="-604" on="0"/>
        <pt x="622" y="-661" on="0"/>
        <pt x="698" y="-661" on="1"/>
        <pt x="791" y="-661" on="0"/>
        <pt x="883" y="-621" on="1"/>
        <pt x="935" y="-764" on="1"/>
        <pt x="825" y="-806" on="0"/>
        <pt x="709" y="-806" on="1"/>
        <pt x="556" y="-806" on="0"/>
        <pt x="382" y="-665" on="0"/>
        <pt x="382" y="-546" on="1"/>
        <pt x="382" y="-456" on="0"/>
        <pt x="506" y="-326" on="0"/>
        <pt x="623" y="-303" on="1"/>
        <pt x="452" y="-278" on="0"/>
        <pt x="169" y="-76" on="0"/>
        <pt x="57" y="101" on="1"/>
        <pt x="194" y="170" on="1"/>
        <pt x="307" y="-3" on="0"/>
        <pt x="577" y="-170" on="0"/>
        <pt x="774" y="-170" on="1"/>
        <pt x="902" y="-170" on="0"/>
        <pt x="1030" y="-114" on="0"/>
        <pt x="1030" y="-58" on="1"/>
        <pt x="1030" y="-14" on="0"/>
        <pt x="923" y="36" on="0"/>
        <pt x="826" y="36" on="1"/>
        <pt x="725" y="36" on="0"/>
      </contour>
      <contour>
        <pt x="917" y="1274" on="1"/>
      </contour>
      <contour>
        <pt x="274" y="-315" on="1"/>
      </contour>
      <contour>
        <pt x="243" y="-288" on="1"/>
      </contour>
    </TTGlyph>
    <TTGlyph name="ddaddhadeva" xMin="0" yMin="-548" xMax="1315" yMax="1274">
      <contour>
        <pt x="640" y="543" on="1"/>
        <pt x="512" y="578" on="0"/>
        <pt x="372" y="712" on="0"/>
        <pt x="372" y="798" on="1"/>
        <pt x="372" y="865" on="0"/>
        <pt x="446" y="957" on="0"/>
        <pt x="583" y="1002" on="0"/>
        <pt x="671" y="1002" on="1"/>
        <pt x="917" y="1002" on="1"/>
        <pt x="917" y="1128" on="1"/>
        <pt x="0" y="1128" on="1"/>
        <pt x="0" y="1274" on="1"/>
        <pt x="1315" y="1274" on="1"/>
        <pt x="1315" y="1128" on="1"/>
        <pt x="1082" y="1128" on="1"/>
        <pt x="1082" y="856" on="1"/>
        <pt x="695" y="856" on="1"/>
        <pt x="634" y="856" on="0"/>
        <pt x="581" y="848" on="0"/>
        <pt x="546" y="829" on="0"/>
        <pt x="530" y="804" on="0"/>
        <pt x="530" y="789" on="1"/>
        <pt x="530" y="759" on="0"/>
        <pt x="592" y="708" on="0"/>
        <pt x="645" y="694" on="1"/>
        <pt x="725" y="720" on="0"/>
        <pt x="831" y="720" on="1"/>
        <pt x="941" y="720" on="0"/>
        <pt x="1106" y="661" on="0"/>
        <pt x="1196" y="548" on="0"/>
        <pt x="1196" y="469" on="1"/>
        <pt x="1196" y="401" on="0"/>
        <pt x="1122" y="290" on="0"/>
        <pt x="972" y="216" on="0"/>
        <pt x="869" y="205" on="1"/>
        <pt x="869" y="83" on="1"/>
        <pt x="741" y="83" on="1"/>
        <pt x="543" y="83" on="0"/>
        <pt x="339" y="-19" on="0"/>
        <pt x="339" y="-117" on="1"/>
        <pt x="339" y="-210" on="0"/>
        <pt x="462" y="-313" on="0"/>
        <pt x="583" y="-328" on="1"/>
        <pt x="558" y="-270" on="0"/>
        <pt x="558" y="-212" on="1"/>
        <pt x="558" y="-157" on="0"/>
        <pt x="624" y="-63" on="0"/>
        <pt x="766" y="-5" on="0"/>
        <pt x="869" y="-5" on="1"/>
        <pt x="960" y="-5" on="0"/>
        <pt x="1090" y="-64" on="0"/>
        <pt x="1152" y="-158" on="0"/>
        <pt x="1152" y="-211" on="1"/>
        <pt x="1152" y="-291" on="0"/>
        <pt x="1055" y="-410" on="0"/>
        <pt x="859" y="-475" on="0"/>
        <pt x="717" y="-475" on="1"/>
        <pt x="556" y="-475" on="0"/>
        <pt x="308" y="-389" on="0"/>
        <pt x="175" y="-224" on="0"/>
        <pt x="175" y="-111" on="1"/>
        <pt x="175" y="32" on="0"/>
        <pt x="428" y="200" on="0"/>
        <pt x="662" y="208" on="1"/>
        <pt x="470" y="233" on="0"/>
        <pt x="173" y="461" on="0"/>
        <pt x="57" y="664" on="1"/>
        <pt x="194" y="731" on="1"/>
        <pt x="276" y="590" on="0"/>
        <pt x="456" y="421" on="0"/>
        <pt x="654" y="347" on="0"/>
        <pt x="774" y="347" on="1"/>
        <pt x="901" y="347" on="0"/>
        <pt x="1030" y="410" on="0"/>
        <pt x="1030" y="473" on="1"/>
        <pt x="1030" y="523" on="0"/>
        <pt x="924" y="579" on="0"/>
        <pt x="826" y="579" on="1"/>
        <pt x="777" y="579" on="0"/>
        <pt x="681" y="561" on="0"/>
      </contour>
      <contour>
        <pt x="734" y="-338" on="1"/>
        <pt x="756" y="-338" on="1"/>
        <pt x="877" y="-338" on="0"/>
        <pt x="997" y="-274" on="0"/>
        <pt x="997" y="-216" on="1"/>
        <pt x="997" y="-178" on="0"/>
        <pt x="936" y="-136" on="0"/>
        <pt x="873" y="-136" on="1"/>
        <pt x="793" y="-136" on="0"/>
        <pt x="706" y="-195" on="0"/>
        <pt x="706" y="-250" on="1"/>
        <pt x="706" y="-274" on="0"/>
        <pt x="719" y="-316" on="0"/>
      </contour>
      <contour>
        <pt x="917" y="1274" on="1"/>
      </contour>
      <contour>
        <pt x="583" y="-548" on="1"/>
      </contour>
      <contour>
        <pt x="774" y="202" on="1"/>
      </contour>
      <contour>
        <pt x="741" y="228" on="1"/>
      </contour>
    </TTGlyph>
    <TTGlyph name="ddadeva" xMin="0" yMin="0" xMax="1315" yMax="1274">
      <contour>
        <pt x="640" y="432" on="1"/>
        <pt x="514" y="467" on="0"/>
        <pt x="372" y="622" on="0"/>
        <pt x="372" y="721" on="1"/>
        <pt x="372" y="781" on="0"/>
        <pt x="416" y="865" on="0"/>
        <pt x="500" y="924" on="0"/>
        <pt x="613" y="953" on="0"/>
        <pt x="700" y="953" on="1"/>
        <pt x="917" y="953" on="1"/>
        <pt x="917" y="1128" on="1"/>
        <pt x="0" y="1128" on="1"/>
        <pt x="0" y="1274" on="1"/>
        <pt x="1315" y="1274" on="1"/>
        <pt x="1315" y="1128" on="1"/>
        <pt x="1082" y="1128" on="1"/>
        <pt x="1082" y="807" on="1"/>
        <pt x="695" y="807" on="1"/>
        <pt x="631" y="807" on="0"/>
        <pt x="568" y="791" on="0"/>
        <pt x="530" y="745" on="0"/>
        <pt x="530" y="710" on="1"/>
        <pt x="530" y="668" on="0"/>
        <pt x="594" y="604" on="0"/>
        <pt x="647" y="590" on="1"/>
        <pt x="721" y="614" on="0"/>
        <pt x="824" y="614" on="1"/>
        <pt x="931" y="614" on="0"/>
        <pt x="1100" y="545" on="0"/>
        <pt x="1196" y="409" on="0"/>
        <pt x="1196" y="316" on="1"/>
        <pt x="1196" y="225" on="0"/>
        <pt x="1099" y="81" on="0"/>
        <pt x="911" y="0" on="0"/>
        <pt x="780" y="0" on="1"/>
        <pt x="631" y="0" on="0"/>
        <pt x="380" y="101" on="0"/>
        <pt x="155" y="331" on="0"/>
        <pt x="57" y="521" on="1"/>
        <pt x="198" y="587" on="1"/>
        <pt x="279" y="428" on="0"/>
        <pt x="458" y="235" on="0"/>
        <pt x="655" y="151" on="0"/>
        <pt x="774" y="151" on="1"/>
        <pt x="902" y="151" on="0"/>
        <pt x="1030" y="237" on="0"/>
        <pt x="1030" y="322" on="1"/>
        <pt x="1030" y="390" on="0"/>
        <pt x="920" y="468" on="0"/>
        <pt x="826" y="468" on="1"/>
        <pt x="777" y="468" on="0"/>
        <pt x="681" y="450" on="0"/>
      </contour>
      <contour>
        <pt x="917" y="1274" on="1"/>
      </contour>
      <contour>
        <pt x="782" y="0" on="1"/>
      </contour>
    </TTGlyph>
    <TTGlyph name="ddanuktaprehalfdeva" xMin="0" yMin="-548" xMax="1315" yMax="1274">
      <component glyphName="ddadeva" x="0" y="0" flags="0x204"/>
      <component glyphName="viramanuktadeva" x="950" y="0" flags="0x4"/>
    </TTGlyph>
    <TTGlyph name="ddanuktaradeva" xMin="0" yMin="-548" xMax="1315" yMax="1274">
      <component glyphName="ddadeva" x="0" y="0" flags="0x204"/>
      <component glyphName="vattudeva" x="1202" y="0" flags="0x4"/>
      <component glyphName="nuktadeva" x="851" y="212" flags="0x4"/>
    </TTGlyph>
    <TTGlyph name="ddanuktaraprehalfUIdeva" xMin="0" yMin="-548" xMax="1324" yMax="1274">
      <component glyphName="ddaaltdeva" x="0" y="0" flags="0x204"/>
      <component glyphName="vattuviramadeva" x="1264" y="0" flags="0x4"/>
      <component glyphName="nuktadeva" x="837" y="431" flags="0x4"/>
    </TTGlyph>
    <TTGlyph name="ddanuktaraprehalfdeva" xMin="0" yMin="-806" xMax="1315" yMax="1274">
      <component glyphName="ddadeva" x="0" y="0" flags="0x204"/>
      <component glyphName="vattuviramalowdeva" x="1202" y="0" flags="0x4"/>
      <component glyphName="nuktadeva" x="851" y="212" flags="0x4"/>
    </TTGlyph>
    <TTGlyph name="ddaprehalfdeva" xMin="0" yMin="-548" xMax="1315" yMax="1274">
      <component glyphName="ddadeva" x="0" y="0" flags="0x204"/>
      <component glyphName="viramadeva" x="950" y="0" flags="0x4"/>
    </TTGlyph>
    <TTGlyph name="ddaradeva" xMin="0" yMin="-548" xMax="1315" yMax="1274">
      <component glyphName="ddadeva" x="0" y="0" flags="0x204"/>
      <component glyphName="vattudeva" x="1202" y="0" flags="0x4"/>
    </TTGlyph>
    <TTGlyph name="ddaraprehalfUIdeva" xMin="0" yMin="-548" xMax="1315" yMax="1274">
      <component glyphName="ddaaltdeva" x="0" y="0" flags="0x204"/>
      <component glyphName="vattuviramadeva" x="1202" y="0" flags="0x4"/>
    </TTGlyph>
    <TTGlyph name="ddaraprehalfdeva" xMin="0" yMin="-806" xMax="1315" yMax="1274">
      <component glyphName="ddadeva" x="0" y="0" flags="0x204"/>
      <component glyphName="vattuviramalowdeva" x="1202" y="0" flags="0x4"/>
    </TTGlyph>
    <TTGlyph name="ddayadeva" xMin="0" yMin="0" xMax="2416" yMax="1274">
      <contour>
        <pt x="640" y="432" on="1"/>
        <pt x="514" y="467" on="0"/>
        <pt x="372" y="622" on="0"/>
        <pt x="372" y="721" on="1"/>
        <pt x="372" y="781" on="0"/>
        <pt x="416" y="865" on="0"/>
        <pt x="500" y="924" on="0"/>
        <pt x="613" y="953" on="0"/>
        <pt x="700" y="953" on="1"/>
        <pt x="917" y="953" on="1"/>
        <pt x="917" y="1128" on="1"/>
        <pt x="0" y="1128" on="1"/>
        <pt x="0" y="1274" on="1"/>
        <pt x="2416" y="1274" on="1"/>
        <pt x="2416" y="1128" on="1"/>
        <pt x="2203" y="1128" on="1"/>
        <pt x="2203" y="0" on="1"/>
        <pt x="2039" y="0" on="1"/>
        <pt x="2039" y="212" on="1"/>
        <pt x="1979" y="176" on="0"/>
        <pt x="1840" y="136" on="0"/>
        <pt x="1756" y="136" on="1"/>
        <pt x="1655" y="136" on="0"/>
        <pt x="1479" y="224" on="0"/>
        <pt x="1351" y="407" on="0"/>
        <pt x="1324" y="537" on="1"/>
        <pt x="1449" y="552" on="0"/>
        <pt x="1577" y="635" on="0"/>
        <pt x="1577" y="700" on="1"/>
        <pt x="1577" y="726" on="0"/>
        <pt x="1558" y="765" on="0"/>
        <pt x="1515" y="794" on="0"/>
        <pt x="1448" y="807" on="0"/>
        <pt x="1370" y="807" on="1"/>
        <pt x="695" y="807" on="1"/>
        <pt x="631" y="807" on="0"/>
        <pt x="568" y="791" on="0"/>
        <pt x="530" y="745" on="0"/>
        <pt x="530" y="710" on="1"/>
        <pt x="530" y="668" on="0"/>
        <pt x="594" y="604" on="0"/>
        <pt x="647" y="590" on="1"/>
        <pt x="721" y="614" on="0"/>
        <pt x="824" y="614" on="1"/>
        <pt x="931" y="614" on="0"/>
        <pt x="1100" y="545" on="0"/>
        <pt x="1196" y="409" on="0"/>
        <pt x="1196" y="316" on="1"/>
        <pt x="1196" y="225" on="0"/>
        <pt x="1099" y="81" on="0"/>
        <pt x="911" y="0" on="0"/>
        <pt x="780" y="0" on="1"/>
        <pt x="631" y="0" on="0"/>
        <pt x="380" y="101" on="0"/>
        <pt x="155" y="331" on="0"/>
        <pt x="57" y="521" on="1"/>
        <pt x="198" y="587" on="1"/>
        <pt x="279" y="428" on="0"/>
        <pt x="458" y="235" on="0"/>
        <pt x="655" y="151" on="0"/>
        <pt x="774" y="151" on="1"/>
        <pt x="902" y="151" on="0"/>
        <pt x="1030" y="237" on="0"/>
        <pt x="1030" y="322" on="1"/>
        <pt x="1030" y="390" on="0"/>
        <pt x="920" y="468" on="0"/>
        <pt x="826" y="468" on="1"/>
        <pt x="777" y="468" on="0"/>
        <pt x="681" y="450" on="0"/>
      </contour>
      <contour>
        <pt x="1082" y="1128" on="1"/>
        <pt x="1082" y="953" on="1"/>
        <pt x="1387" y="953" on="1"/>
        <pt x="1517" y="953" on="0"/>
        <pt x="1663" y="888" on="0"/>
        <pt x="1740" y="766" on="0"/>
        <pt x="1740" y="695" on="1"/>
        <pt x="1740" y="593" on="0"/>
        <pt x="1639" y="470" on="0"/>
        <pt x="1527" y="430" on="1"/>
        <pt x="1568" y="357" on="0"/>
        <pt x="1680" y="282" on="0"/>
        <pt x="1767" y="282" on="1"/>
        <pt x="1840" y="282" on="0"/>
        <pt x="1979" y="340" on="0"/>
        <pt x="2039" y="392" on="1"/>
        <pt x="2039" y="1128" on="1"/>
      </contour>
      <contour>
        <pt x="1324" y="391" on="1"/>
      </contour>
    </TTGlyph>
    <TTGlyph name="dddhaaltdeva" xMin="0" yMin="0" xMax="1315" yMax="1274">
      <component glyphName="ddaaltdeva" x="0" y="0" flags="0x204"/>
      <component glyphName="nuktadeva" x="845" y="430" flags="0x4"/>
    </TTGlyph>
    <TTGlyph name="dddhadeva" xMin="0" yMin="-394" xMax="1315" yMax="1274">
      <component glyphName="ddadeva" x="0" y="0" flags="0x204"/>
      <component glyphName="nuktadeva" x="1265" y="0" flags="0x4"/>
    </TTGlyph>
    <TTGlyph name="ddhaaltdeva" xMin="0" yMin="0" xMax="1182" yMax="1274">
      <contour>
        <pt x="789" y="853" on="1"/>
        <pt x="661" y="853" on="1"/>
        <pt x="463" y="853" on="0"/>
        <pt x="259" y="751" on="0"/>
        <pt x="259" y="653" on="1"/>
        <pt x="259" y="560" on="0"/>
        <pt x="382" y="457" on="0"/>
        <pt x="503" y="442" on="1"/>
        <pt x="478" y="499" on="0"/>
        <pt x="478" y="558" on="1"/>
        <pt x="478" y="613" on="0"/>
        <pt x="544" y="707" on="0"/>
        <pt x="686" y="765" on="0"/>
        <pt x="789" y="765" on="1"/>
        <pt x="880" y="765" on="0"/>
        <pt x="1010" y="706" on="0"/>
        <pt x="1072" y="612" on="0"/>
        <pt x="1072" y="559" on="1"/>
        <pt x="1072" y="479" on="0"/>
        <pt x="975" y="360" on="0"/>
        <pt x="779" y="295" on="0"/>
        <pt x="637" y="295" on="1"/>
        <pt x="475" y="295" on="0"/>
        <pt x="227" y="381" on="0"/>
        <pt x="95" y="546" on="0"/>
        <pt x="95" y="659" on="1"/>
        <pt x="95" y="766" on="0"/>
        <pt x="229" y="917" on="0"/>
        <pt x="468" y="994" on="0"/>
        <pt x="624" y="997" on="1"/>
        <pt x="624" y="1128" on="1"/>
        <pt x="0" y="1128" on="1"/>
        <pt x="0" y="1274" on="1"/>
        <pt x="1182" y="1274" on="1"/>
        <pt x="1182" y="1128" on="1"/>
        <pt x="789" y="1128" on="1"/>
      </contour>
      <contour>
        <pt x="676" y="432" on="1"/>
        <pt x="797" y="432" on="0"/>
        <pt x="917" y="496" on="0"/>
        <pt x="917" y="554" on="1"/>
        <pt x="917" y="592" on="0"/>
        <pt x="856" y="634" on="0"/>
        <pt x="793" y="634" on="1"/>
        <pt x="713" y="634" on="0"/>
        <pt x="626" y="575" on="0"/>
        <pt x="626" y="520" on="1"/>
        <pt x="626" y="495" on="0"/>
        <pt x="639" y="453" on="0"/>
        <pt x="654" y="432" on="1"/>
      </contour>
      <contour>
        <pt x="624" y="1274" on="1"/>
      </contour>
      <contour>
        <pt x="656" y="0" on="1"/>
      </contour>
    </TTGlyph>
    <TTGlyph name="ddhaddhadeva" xMin="0" yMin="-548" xMax="1182" yMax="1274">
      <contour>
        <pt x="789" y="83" on="1"/>
        <pt x="661" y="83" on="1"/>
        <pt x="463" y="83" on="0"/>
        <pt x="259" y="-19" on="0"/>
        <pt x="259" y="-117" on="1"/>
        <pt x="259" y="-210" on="0"/>
        <pt x="382" y="-313" on="0"/>
        <pt x="503" y="-328" on="1"/>
        <pt x="478" y="-270" on="0"/>
        <pt x="478" y="-212" on="1"/>
        <pt x="478" y="-157" on="0"/>
        <pt x="544" y="-63" on="0"/>
        <pt x="686" y="-5" on="0"/>
        <pt x="789" y="-5" on="1"/>
        <pt x="880" y="-5" on="0"/>
        <pt x="1010" y="-64" on="0"/>
        <pt x="1072" y="-158" on="0"/>
        <pt x="1072" y="-211" on="1"/>
        <pt x="1072" y="-291" on="0"/>
        <pt x="975" y="-410" on="0"/>
        <pt x="779" y="-475" on="0"/>
        <pt x="637" y="-475" on="1"/>
        <pt x="475" y="-475" on="0"/>
        <pt x="227" y="-389" on="0"/>
        <pt x="95" y="-224" on="0"/>
        <pt x="95" y="-111" on="1"/>
        <pt x="95" y="-4" on="0"/>
        <pt x="229" y="147" on="0"/>
        <pt x="468" y="224" on="0"/>
        <pt x="624" y="227" on="1"/>
        <pt x="624" y="295" on="1"/>
        <pt x="464" y="296" on="0"/>
        <pt x="221" y="386" on="0"/>
        <pt x="95" y="548" on="0"/>
        <pt x="95" y="659" on="1"/>
        <pt x="95" y="766" on="0"/>
        <pt x="229" y="917" on="0"/>
        <pt x="468" y="994" on="0"/>
        <pt x="624" y="997" on="1"/>
        <pt x="624" y="1128" on="1"/>
        <pt x="0" y="1128" on="1"/>
        <pt x="0" y="1274" on="1"/>
        <pt x="1182" y="1274" on="1"/>
        <pt x="1182" y="1128" on="1"/>
        <pt x="789" y="1128" on="1"/>
        <pt x="789" y="853" on="1"/>
        <pt x="661" y="853" on="1"/>
        <pt x="463" y="853" on="0"/>
        <pt x="259" y="751" on="0"/>
        <pt x="259" y="653" on="1"/>
        <pt x="259" y="560" on="0"/>
        <pt x="382" y="457" on="0"/>
        <pt x="503" y="442" on="1"/>
        <pt x="478" y="499" on="0"/>
        <pt x="478" y="558" on="1"/>
        <pt x="478" y="613" on="0"/>
        <pt x="544" y="707" on="0"/>
        <pt x="686" y="765" on="0"/>
        <pt x="789" y="765" on="1"/>
        <pt x="880" y="765" on="0"/>
        <pt x="1010" y="706" on="0"/>
        <pt x="1072" y="612" on="0"/>
        <pt x="1072" y="559" on="1"/>
        <pt x="1072" y="459" on="0"/>
        <pt x="925" y="328" on="0"/>
        <pt x="789" y="306" on="1"/>
      </contour>
      <contour>
        <pt x="676" y="432" on="1"/>
        <pt x="797" y="432" on="0"/>
        <pt x="917" y="496" on="0"/>
        <pt x="917" y="554" on="1"/>
        <pt x="917" y="592" on="0"/>
        <pt x="856" y="634" on="0"/>
        <pt x="793" y="634" on="1"/>
        <pt x="713" y="634" on="0"/>
        <pt x="626" y="575" on="0"/>
        <pt x="626" y="520" on="1"/>
        <pt x="626" y="495" on="0"/>
        <pt x="639" y="453" on="0"/>
        <pt x="654" y="432" on="1"/>
      </contour>
      <contour>
        <pt x="676" y="-338" on="1"/>
        <pt x="797" y="-338" on="0"/>
        <pt x="917" y="-274" on="0"/>
        <pt x="917" y="-216" on="1"/>
        <pt x="917" y="-178" on="0"/>
        <pt x="856" y="-136" on="0"/>
        <pt x="793" y="-136" on="1"/>
        <pt x="713" y="-136" on="0"/>
        <pt x="626" y="-195" on="0"/>
        <pt x="626" y="-250" on="1"/>
        <pt x="626" y="-274" on="0"/>
        <pt x="639" y="-316" on="0"/>
        <pt x="654" y="-338" on="1"/>
      </contour>
      <contour>
        <pt x="624" y="1274" on="1"/>
      </contour>
      <contour>
        <pt x="583" y="-548" on="1"/>
      </contour>
    </TTGlyph>
    <TTGlyph name="ddhadeva" xMin="0" yMin="0" xMax="1182" yMax="1274">
      <contour>
        <pt x="789" y="769" on="1"/>
        <pt x="708" y="769" on="1"/>
        <pt x="593" y="769" on="0"/>
        <pt x="442" y="737" on="0"/>
        <pt x="319" y="653" on="0"/>
        <pt x="259" y="537" on="0"/>
        <pt x="259" y="468" on="1"/>
        <pt x="259" y="338" on="0"/>
        <pt x="389" y="177" on="0"/>
        <pt x="509" y="150" on="1"/>
        <pt x="478" y="228" on="0"/>
        <pt x="478" y="322" on="1"/>
        <pt x="478" y="392" on="0"/>
        <pt x="543" y="513" on="0"/>
        <pt x="680" y="590" on="0"/>
        <pt x="778" y="590" on="1"/>
        <pt x="854" y="590" on="0"/>
        <pt x="964" y="545" on="0"/>
        <pt x="1037" y="471" on="0"/>
        <pt x="1072" y="374" on="0"/>
        <pt x="1072" y="322" on="1"/>
        <pt x="1072" y="228" on="0"/>
        <pt x="965" y="81" on="0"/>
        <pt x="763" y="0" on="0"/>
        <pt x="628" y="0" on="1"/>
        <pt x="478" y="0" on="0"/>
        <pt x="231" y="119" on="0"/>
        <pt x="95" y="335" on="0"/>
        <pt x="95" y="473" on="1"/>
        <pt x="95" y="601" on="0"/>
        <pt x="222" y="797" on="0"/>
        <pt x="465" y="909" on="0"/>
        <pt x="624" y="913" on="1"/>
        <pt x="624" y="1128" on="1"/>
        <pt x="0" y="1128" on="1"/>
        <pt x="0" y="1274" on="1"/>
        <pt x="1182" y="1274" on="1"/>
        <pt x="1182" y="1128" on="1"/>
        <pt x="789" y="1128" on="1"/>
      </contour>
      <contour>
        <pt x="662" y="141" on="1"/>
        <pt x="780" y="143" on="0"/>
        <pt x="917" y="241" on="0"/>
        <pt x="917" y="322" on="1"/>
        <pt x="917" y="383" on="0"/>
        <pt x="846" y="453" on="0"/>
        <pt x="789" y="453" on="1"/>
        <pt x="742" y="453" on="0"/>
        <pt x="668" y="413" on="0"/>
        <pt x="626" y="337" on="0"/>
        <pt x="626" y="287" on="1"/>
        <pt x="626" y="246" on="0"/>
        <pt x="643" y="177" on="0"/>
      </contour>
      <contour>
        <pt x="624" y="1274" on="1"/>
      </contour>
      <contour>
        <pt x="624" y="0" on="1"/>
      </contour>
    </TTGlyph>
    <TTGlyph name="ddhanuktaprehalfdeva" xMin="0" yMin="-548" xMax="1228" yMax="1274">
      <component glyphName="ddhadeva" x="0" y="0" flags="0x204"/>
      <component glyphName="viramanuktadeva" x="918" y="0" flags="0x4"/>
    </TTGlyph>
    <TTGlyph name="ddhanuktaradeva" xMin="0" yMin="-548" xMax="1182" yMax="1274">
      <component glyphName="ddhadeva" x="0" y="0" flags="0x204"/>
      <component glyphName="vattudeva" x="1154" y="0" flags="0x4"/>
      <component glyphName="nuktadeva" x="784" y="189" flags="0x4"/>
    </TTGlyph>
    <TTGlyph name="ddhanuktaraprehalfUIdeva" xMin="0" yMin="-548" xMax="1189" yMax="1274">
      <component glyphName="ddhaaltdeva" x="0" y="0" flags="0x204"/>
      <component glyphName="vattuviramadeva" x="1129" y="0" flags="0x4"/>
      <component glyphName="nuktadeva" x="765" y="476" flags="0x4"/>
    </TTGlyph>
    <TTGlyph name="ddhanuktaraprehalfdeva" xMin="0" yMin="-806" xMax="1214" yMax="1274">
      <component glyphName="ddhadeva" x="0" y="0" flags="0x204"/>
      <component glyphName="vattuviramalowdeva" x="1154" y="0" flags="0x4"/>
      <component glyphName="nuktadeva" x="784" y="189" flags="0x4"/>
    </TTGlyph>
    <TTGlyph name="ddhaprehalfdeva" xMin="0" yMin="-548" xMax="1182" yMax="1274">
      <component glyphName="ddhadeva" x="0" y="0" flags="0x204"/>
      <component glyphName="viramadeva" x="818" y="0" flags="0x4"/>
    </TTGlyph>
    <TTGlyph name="ddharadeva" xMin="0" yMin="-548" xMax="1182" yMax="1274">
      <component glyphName="ddhadeva" x="0" y="0" flags="0x204"/>
      <component glyphName="vattudeva" x="1084" y="0" flags="0x4"/>
    </TTGlyph>
    <TTGlyph name="ddharaprehalfUIdeva" xMin="0" yMin="-548" xMax="1182" yMax="1274">
      <component glyphName="ddhaaltdeva" x="0" y="0" flags="0x204"/>
      <component glyphName="vattuviramadeva" x="1084" y="0" flags="0x4"/>
    </TTGlyph>
    <TTGlyph name="ddharaprehalfdeva" xMin="0" yMin="-806" xMax="1182" yMax="1274">
      <component glyphName="ddhadeva" x="0" y="0" flags="0x204"/>
      <component glyphName="vattuviramalowdeva" x="1084" y="0" flags="0x4"/>
    </TTGlyph>
    <TTGlyph name="ddhayadeva" xMin="0" yMin="0" xMax="2296" yMax="1274">
      <contour>
        <pt x="1250" y="769" on="1"/>
        <pt x="708" y="769" on="1"/>
        <pt x="593" y="769" on="0"/>
        <pt x="442" y="737" on="0"/>
        <pt x="319" y="653" on="0"/>
        <pt x="259" y="537" on="0"/>
        <pt x="259" y="468" on="1"/>
        <pt x="259" y="338" on="0"/>
        <pt x="389" y="177" on="0"/>
        <pt x="509" y="150" on="1"/>
        <pt x="478" y="228" on="0"/>
        <pt x="478" y="322" on="1"/>
        <pt x="478" y="392" on="0"/>
        <pt x="543" y="513" on="0"/>
        <pt x="680" y="590" on="0"/>
        <pt x="778" y="590" on="1"/>
        <pt x="854" y="590" on="0"/>
        <pt x="964" y="545" on="0"/>
        <pt x="1037" y="471" on="0"/>
        <pt x="1072" y="374" on="0"/>
        <pt x="1072" y="322" on="1"/>
        <pt x="1072" y="228" on="0"/>
        <pt x="965" y="81" on="0"/>
        <pt x="763" y="0" on="0"/>
        <pt x="628" y="0" on="1"/>
        <pt x="478" y="0" on="0"/>
        <pt x="231" y="119" on="0"/>
        <pt x="95" y="335" on="0"/>
        <pt x="95" y="473" on="1"/>
        <pt x="95" y="601" on="0"/>
        <pt x="222" y="797" on="0"/>
        <pt x="465" y="909" on="0"/>
        <pt x="624" y="913" on="1"/>
        <pt x="624" y="1128" on="1"/>
        <pt x="0" y="1128" on="1"/>
        <pt x="0" y="1274" on="1"/>
        <pt x="2296" y="1274" on="1"/>
        <pt x="2296" y="1128" on="1"/>
        <pt x="2083" y="1128" on="1"/>
        <pt x="2083" y="0" on="1"/>
        <pt x="1919" y="0" on="1"/>
        <pt x="1919" y="174" on="1"/>
        <pt x="1859" y="138" on="0"/>
        <pt x="1720" y="98" on="0"/>
        <pt x="1636" y="98" on="1"/>
        <pt x="1535" y="98" on="0"/>
        <pt x="1359" y="186" on="0"/>
        <pt x="1231" y="369" on="0"/>
        <pt x="1204" y="499" on="1"/>
        <pt x="1329" y="514" on="0"/>
        <pt x="1457" y="597" on="0"/>
        <pt x="1457" y="662" on="1"/>
        <pt x="1457" y="688" on="0"/>
        <pt x="1438" y="727" on="0"/>
        <pt x="1395" y="756" on="0"/>
        <pt x="1328" y="769" on="0"/>
      </contour>
      <contour>
        <pt x="1267" y="915" on="1"/>
        <pt x="1397" y="915" on="0"/>
        <pt x="1543" y="850" on="0"/>
        <pt x="1620" y="728" on="0"/>
        <pt x="1620" y="657" on="1"/>
        <pt x="1620" y="555" on="0"/>
        <pt x="1519" y="432" on="0"/>
        <pt x="1407" y="392" on="1"/>
        <pt x="1448" y="319" on="0"/>
        <pt x="1560" y="244" on="0"/>
        <pt x="1647" y="244" on="1"/>
        <pt x="1720" y="244" on="0"/>
        <pt x="1859" y="302" on="0"/>
        <pt x="1919" y="354" on="1"/>
        <pt x="1919" y="1128" on="1"/>
        <pt x="789" y="1128" on="1"/>
        <pt x="789" y="915" on="1"/>
      </contour>
      <contour>
        <pt x="662" y="141" on="1"/>
        <pt x="780" y="143" on="0"/>
        <pt x="917" y="241" on="0"/>
        <pt x="917" y="322" on="1"/>
        <pt x="917" y="383" on="0"/>
        <pt x="846" y="453" on="0"/>
        <pt x="789" y="453" on="1"/>
        <pt x="742" y="453" on="0"/>
        <pt x="668" y="413" on="0"/>
        <pt x="626" y="337" on="0"/>
        <pt x="626" y="287" on="1"/>
        <pt x="626" y="246" on="0"/>
        <pt x="643" y="177" on="0"/>
      </contour>
      <contour>
        <pt x="1204" y="353" on="1"/>
      </contour>
    </TTGlyph>
    <TTGlyph name="dhadeva" xMin="87" yMin="0" xMax="1290" yMax="1295">
      <contour>
        <pt x="1290" y="1274" on="1"/>
        <pt x="1290" y="1128" on="1"/>
        <pt x="1077" y="1128" on="1"/>
        <pt x="1077" y="0" on="1"/>
        <pt x="912" y="0" on="1"/>
        <pt x="912" y="308" on="1"/>
        <pt x="828" y="254" on="0"/>
        <pt x="675" y="211" on="0"/>
        <pt x="580" y="211" on="1"/>
        <pt x="476" y="211" on="0"/>
        <pt x="315" y="286" on="0"/>
        <pt x="227" y="425" on="0"/>
        <pt x="227" y="515" on="1"/>
        <pt x="227" y="569" on="0"/>
        <pt x="263" y="672" on="0"/>
        <pt x="303" y="712" on="1"/>
        <pt x="196" y="753" on="0"/>
        <pt x="87" y="904" on="0"/>
        <pt x="87" y="1010" on="1"/>
        <pt x="87" y="1090" on="0"/>
        <pt x="162" y="1221" on="0"/>
        <pt x="298" y="1295" on="0"/>
        <pt x="383" y="1295" on="1"/>
        <pt x="454" y="1295" on="0"/>
        <pt x="570" y="1244" on="0"/>
        <pt x="637" y="1148" on="0"/>
        <pt x="637" y="1087" on="1"/>
        <pt x="637" y="1039" on="0"/>
        <pt x="596" y="945" on="0"/>
        <pt x="556" y="908" on="1"/>
        <pt x="431" y="987" on="1"/>
        <pt x="472" y="1027" on="0"/>
        <pt x="472" y="1077" on="1"/>
        <pt x="472" y="1116" on="0"/>
        <pt x="422" y="1163" on="0"/>
        <pt x="376" y="1163" on="1"/>
        <pt x="338" y="1163" on="0"/>
        <pt x="275" y="1121" on="0"/>
        <pt x="238" y="1047" on="0"/>
        <pt x="238" y="1002" on="1"/>
        <pt x="238" y="951" on="0"/>
        <pt x="275" y="883" on="0"/>
        <pt x="337" y="839" on="0"/>
        <pt x="416" y="817" on="0"/>
        <pt x="457" y="813" on="1"/>
        <pt x="515" y="829" on="0"/>
        <pt x="589" y="829" on="1"/>
        <pt x="639" y="829" on="0"/>
        <pt x="681" y="823" on="1"/>
        <pt x="668" y="680" on="1"/>
        <pt x="642" y="683" on="0"/>
        <pt x="610" y="683" on="1"/>
        <pt x="506" y="683" on="0"/>
        <pt x="392" y="598" on="0"/>
        <pt x="392" y="520" on="1"/>
        <pt x="392" y="441" on="0"/>
        <pt x="500" y="355" on="0"/>
        <pt x="597" y="355" on="1"/>
        <pt x="687" y="355" on="0"/>
        <pt x="840" y="425" on="0"/>
        <pt x="912" y="501" on="1"/>
        <pt x="912" y="1128" on="1"/>
        <pt x="785" y="1128" on="1"/>
        <pt x="785" y="1274" on="1"/>
      </contour>
    </TTGlyph>
    <TTGlyph name="dhanuktadeva" xMin="87" yMin="-178" xMax="1290" yMax="1295">
      <component glyphName="dhadeva" x="0" y="0" flags="0x204"/>
      <component glyphName="nuktadeva" x="1059" y="216" flags="0x4"/>
    </TTGlyph>
    <TTGlyph name="dhanuktaprehalfdeva" xMin="87" yMin="-178" xMax="988" yMax="1295">
      <component glyphName="dhaprehalfdeva" x="0" y="0" flags="0x204"/>
      <component glyphName="nuktadeva" x="1059" y="216" flags="0x4"/>
    </TTGlyph>
    <TTGlyph name="dhanuktaradeva" xMin="87" yMin="-339" xMax="1290" yMax="1295">
      <component glyphName="dharadeva" x="0" y="0" flags="0x204"/>
      <component glyphName="nuktadeva" x="1177" y="55" flags="0x4"/>
    </TTGlyph>
    <TTGlyph name="dhanuktaraprehalfdeva" xMin="87" yMin="-339" xMax="988" yMax="1295">
      <component glyphName="dharaprehalfdeva" x="0" y="0" flags="0x204"/>
      <component glyphName="nuktadeva" x="1177" y="55" flags="0x4"/>
    </TTGlyph>
    <TTGlyph name="dhaprehalfdeva" xMin="87" yMin="211" xMax="988" yMax="1295">
      <contour>
        <pt x="988" y="365" on="1"/>
        <pt x="924" y="311" on="0"/>
        <pt x="810" y="248" on="0"/>
        <pt x="668" y="211" on="0"/>
        <pt x="580" y="211" on="1"/>
        <pt x="476" y="211" on="0"/>
        <pt x="315" y="286" on="0"/>
        <pt x="227" y="425" on="0"/>
        <pt x="227" y="515" on="1"/>
        <pt x="227" y="569" on="0"/>
        <pt x="263" y="672" on="0"/>
        <pt x="303" y="712" on="1"/>
        <pt x="196" y="753" on="0"/>
        <pt x="87" y="904" on="0"/>
        <pt x="87" y="1010" on="1"/>
        <pt x="87" y="1090" on="0"/>
        <pt x="162" y="1221" on="0"/>
        <pt x="298" y="1295" on="0"/>
        <pt x="383" y="1295" on="1"/>
        <pt x="454" y="1295" on="0"/>
        <pt x="570" y="1244" on="0"/>
        <pt x="637" y="1148" on="0"/>
        <pt x="637" y="1087" on="1"/>
        <pt x="637" y="1039" on="0"/>
        <pt x="596" y="945" on="0"/>
        <pt x="556" y="908" on="1"/>
        <pt x="431" y="987" on="1"/>
        <pt x="472" y="1027" on="0"/>
        <pt x="472" y="1077" on="1"/>
        <pt x="472" y="1116" on="0"/>
        <pt x="422" y="1163" on="0"/>
        <pt x="376" y="1163" on="1"/>
        <pt x="338" y="1163" on="0"/>
        <pt x="275" y="1121" on="0"/>
        <pt x="238" y="1047" on="0"/>
        <pt x="238" y="1002" on="1"/>
        <pt x="238" y="951" on="0"/>
        <pt x="275" y="883" on="0"/>
        <pt x="337" y="839" on="0"/>
        <pt x="416" y="817" on="0"/>
        <pt x="457" y="813" on="1"/>
        <pt x="515" y="829" on="0"/>
        <pt x="589" y="829" on="1"/>
        <pt x="639" y="829" on="0"/>
        <pt x="681" y="823" on="1"/>
        <pt x="668" y="680" on="1"/>
        <pt x="642" y="683" on="0"/>
        <pt x="610" y="683" on="1"/>
        <pt x="506" y="683" on="0"/>
        <pt x="392" y="598" on="0"/>
        <pt x="392" y="520" on="1"/>
        <pt x="392" y="441" on="0"/>
        <pt x="500" y="355" on="0"/>
        <pt x="597" y="355" on="1"/>
        <pt x="687" y="355" on="0"/>
        <pt x="840" y="425" on="0"/>
        <pt x="912" y="501" on="1"/>
      </contour>
      <contour>
        <pt x="741" y="1274" on="1"/>
      </contour>
    </TTGlyph>
    <TTGlyph name="dharadeva" xMin="87" yMin="-88" xMax="1290" yMax="1295">
      <contour>
        <pt x="1290" y="1274" on="1"/>
        <pt x="1290" y="1128" on="1"/>
        <pt x="1077" y="1128" on="1"/>
        <pt x="1077" y="0" on="1"/>
        <pt x="912" y="0" on="1"/>
        <pt x="912" y="320" on="1"/>
        <pt x="270" y="-88" on="1"/>
        <pt x="174" y="46" on="1"/>
        <pt x="493" y="226" on="1"/>
        <pt x="368" y="247" on="0"/>
        <pt x="227" y="401" on="0"/>
        <pt x="227" y="515" on="1"/>
        <pt x="227" y="569" on="0"/>
        <pt x="263" y="672" on="0"/>
        <pt x="303" y="712" on="1"/>
        <pt x="196" y="753" on="0"/>
        <pt x="87" y="904" on="0"/>
        <pt x="87" y="1010" on="1"/>
        <pt x="87" y="1090" on="0"/>
        <pt x="162" y="1221" on="0"/>
        <pt x="298" y="1295" on="0"/>
        <pt x="383" y="1295" on="1"/>
        <pt x="454" y="1295" on="0"/>
        <pt x="570" y="1244" on="0"/>
        <pt x="637" y="1148" on="0"/>
        <pt x="637" y="1087" on="1"/>
        <pt x="637" y="1039" on="0"/>
        <pt x="596" y="945" on="0"/>
        <pt x="556" y="908" on="1"/>
        <pt x="431" y="987" on="1"/>
        <pt x="472" y="1027" on="0"/>
        <pt x="472" y="1077" on="1"/>
        <pt x="472" y="1116" on="0"/>
        <pt x="422" y="1163" on="0"/>
        <pt x="376" y="1163" on="1"/>
        <pt x="338" y="1163" on="0"/>
        <pt x="275" y="1121" on="0"/>
        <pt x="238" y="1047" on="0"/>
        <pt x="238" y="1002" on="1"/>
        <pt x="238" y="951" on="0"/>
        <pt x="275" y="883" on="0"/>
        <pt x="337" y="839" on="0"/>
        <pt x="416" y="817" on="0"/>
        <pt x="457" y="813" on="1"/>
        <pt x="515" y="829" on="0"/>
        <pt x="589" y="829" on="1"/>
        <pt x="639" y="829" on="0"/>
        <pt x="681" y="823" on="1"/>
        <pt x="668" y="680" on="1"/>
        <pt x="642" y="683" on="0"/>
        <pt x="610" y="683" on="1"/>
        <pt x="506" y="683" on="0"/>
        <pt x="392" y="598" on="0"/>
        <pt x="392" y="520" on="1"/>
        <pt x="392" y="441" on="0"/>
        <pt x="500" y="355" on="0"/>
        <pt x="597" y="355" on="1"/>
        <pt x="687" y="355" on="0"/>
        <pt x="840" y="425" on="0"/>
        <pt x="912" y="501" on="1"/>
        <pt x="912" y="1128" on="1"/>
        <pt x="785" y="1128" on="1"/>
        <pt x="785" y="1274" on="1"/>
      </contour>
      <contour>
        <pt x="580" y="211" on="1"/>
      </contour>
    </TTGlyph>
    <TTGlyph name="dharaprehalfdeva" xMin="87" yMin="-88" xMax="988" yMax="1295">
      <contour>
        <pt x="988" y="359" on="1"/>
        <pt x="270" y="-88" on="1"/>
        <pt x="174" y="46" on="1"/>
        <pt x="493" y="226" on="1"/>
        <pt x="368" y="247" on="0"/>
        <pt x="227" y="401" on="0"/>
        <pt x="227" y="515" on="1"/>
        <pt x="227" y="569" on="0"/>
        <pt x="263" y="672" on="0"/>
        <pt x="303" y="712" on="1"/>
        <pt x="196" y="753" on="0"/>
        <pt x="87" y="904" on="0"/>
        <pt x="87" y="1010" on="1"/>
        <pt x="87" y="1090" on="0"/>
        <pt x="162" y="1221" on="0"/>
        <pt x="298" y="1295" on="0"/>
        <pt x="383" y="1295" on="1"/>
        <pt x="454" y="1295" on="0"/>
        <pt x="570" y="1244" on="0"/>
        <pt x="637" y="1148" on="0"/>
        <pt x="637" y="1087" on="1"/>
        <pt x="637" y="1039" on="0"/>
        <pt x="596" y="945" on="0"/>
        <pt x="556" y="908" on="1"/>
        <pt x="431" y="987" on="1"/>
        <pt x="472" y="1027" on="0"/>
        <pt x="472" y="1077" on="1"/>
        <pt x="472" y="1116" on="0"/>
        <pt x="422" y="1163" on="0"/>
        <pt x="376" y="1163" on="1"/>
        <pt x="338" y="1163" on="0"/>
        <pt x="275" y="1121" on="0"/>
        <pt x="238" y="1047" on="0"/>
        <pt x="238" y="1002" on="1"/>
        <pt x="238" y="951" on="0"/>
        <pt x="275" y="883" on="0"/>
        <pt x="337" y="839" on="0"/>
        <pt x="416" y="817" on="0"/>
        <pt x="457" y="813" on="1"/>
        <pt x="515" y="829" on="0"/>
        <pt x="589" y="829" on="1"/>
        <pt x="639" y="829" on="0"/>
        <pt x="681" y="823" on="1"/>
        <pt x="668" y="680" on="1"/>
        <pt x="642" y="683" on="0"/>
        <pt x="610" y="683" on="1"/>
        <pt x="506" y="683" on="0"/>
        <pt x="392" y="598" on="0"/>
        <pt x="392" y="520" on="1"/>
        <pt x="392" y="441" on="0"/>
        <pt x="500" y="355" on="0"/>
        <pt x="597" y="355" on="1"/>
        <pt x="687" y="355" on="0"/>
        <pt x="840" y="425" on="0"/>
        <pt x="912" y="501" on="1"/>
      </contour>
      <contour>
        <pt x="741" y="1274" on="1"/>
      </contour>
      <contour>
        <pt x="580" y="211" on="1"/>
      </contour>
    </TTGlyph>
    <TTGlyph name="divide.deva" xMin="102" yMin="195" xMax="1026" yMax="1274">
      <contour>
        <pt x="102" y="585" on="1"/>
        <pt x="102" y="735" on="1"/>
        <pt x="1026" y="735" on="1"/>
        <pt x="1026" y="585" on="1"/>
      </contour>
      <contour>
        <pt x="449" y="320" on="1"/>
        <pt x="449" y="355" on="0"/>
        <pt x="467" y="402" on="0"/>
        <pt x="498" y="432" on="0"/>
        <pt x="539" y="445" on="0"/>
        <pt x="563" y="445" on="1"/>
        <pt x="586" y="445" on="0"/>
        <pt x="628" y="432" on="0"/>
        <pt x="660" y="402" on="0"/>
        <pt x="678" y="355" on="0"/>
        <pt x="678" y="320" on="1"/>
        <pt x="678" y="287" on="0"/>
        <pt x="660" y="240" on="0"/>
        <pt x="628" y="209" on="0"/>
        <pt x="586" y="195" on="0"/>
        <pt x="563" y="195" on="1"/>
        <pt x="539" y="195" on="0"/>
        <pt x="498" y="209" on="0"/>
        <pt x="467" y="240" on="0"/>
        <pt x="449" y="287" on="0"/>
      </contour>
      <contour>
        <pt x="449" y="1018" on="1"/>
        <pt x="449" y="1053" on="0"/>
        <pt x="467" y="1100" on="0"/>
        <pt x="498" y="1130" on="0"/>
        <pt x="539" y="1143" on="0"/>
        <pt x="563" y="1143" on="1"/>
        <pt x="586" y="1143" on="0"/>
        <pt x="628" y="1130" on="0"/>
        <pt x="660" y="1100" on="0"/>
        <pt x="678" y="1053" on="0"/>
        <pt x="678" y="1018" on="1"/>
        <pt x="678" y="985" on="0"/>
        <pt x="660" y="938" on="0"/>
        <pt x="628" y="907" on="0"/>
        <pt x="586" y="893" on="0"/>
        <pt x="563" y="893" on="1"/>
        <pt x="539" y="893" on="0"/>
        <pt x="498" y="907" on="0"/>
        <pt x="467" y="938" on="0"/>
        <pt x="449" y="985" on="0"/>
      </contour>
      <contour>
        <pt x="453" y="1274" on="1"/>
      </contour>
    </TTGlyph>
    <TTGlyph name="ecandraanusvaradeva" xMin="0" yMin="-376" xMax="1163" yMax="1836">
      <component glyphName="edeva" x="0" y="0" flags="0x204"/>
      <component glyphName="ecandravowelsignanusvaradeva" x="1133" y="0" flags="0x4"/>
    </TTGlyph>
    <TTGlyph name="ecandradeva" xMin="0" yMin="-376" xMax="1163" yMax="1836">
      <component glyphName="edeva" x="0" y="0" flags="0x204"/>
      <component glyphName="ecandravowelsigndeva" x="953" y="0" flags="0x4"/>
    </TTGlyph>
    <TTGlyph name="ecandranuktaanusvaradeva" xMin="0" yMin="-376" xMax="1163" yMax="1836">
      <component glyphName="edeva" x="0" y="0" flags="0x204"/>
      <component glyphName="ecandravowelsignanusvaradeva" x="1133" y="0" flags="0x4"/>
      <component glyphName="nuktadeva" x="927" y="132" flags="0x4"/>
    </TTGlyph>
    <TTGlyph name="ecandranuktadeva" xMin="0" yMin="-376" xMax="1163" yMax="1836">
      <component glyphName="edeva" x="0" y="0" flags="0x204"/>
      <component glyphName="ecandravowelsigndeva" x="953" y="0" flags="0x4"/>
      <component glyphName="nuktadeva" x="927" y="132" flags="0x4"/>
    </TTGlyph>
    <TTGlyph name="ecandravowelsignanusvaradeva" xMin="-1060" yMin="1274" xMax="-5" yMax="1836">
      <contour>
        <pt x="-259" y="1768" on="1"/>
        <pt x="-299" y="1580" on="0"/>
        <pt x="-489" y="1393" on="0"/>
        <pt x="-647" y="1393" on="1"/>
        <pt x="-788" y="1393" on="0"/>
        <pt x="-994" y="1581" on="0"/>
        <pt x="-1060" y="1768" on="1"/>
        <pt x="-915" y="1817" on="1"/>
        <pt x="-867" y="1669" on="0"/>
        <pt x="-743" y="1534" on="0"/>
        <pt x="-649" y="1534" on="1"/>
        <pt x="-583" y="1534" on="0"/>
        <pt x="-494" y="1597" on="0"/>
        <pt x="-437" y="1716" on="0"/>
        <pt x="-414" y="1820" on="1"/>
      </contour>
      <contour>
        <pt x="-118" y="1660" on="1"/>
        <pt x="-88" y="1660" on="0"/>
        <pt x="-37" y="1629" on="0"/>
        <pt x="-5" y="1573" on="0"/>
        <pt x="-5" y="1541" on="1"/>
        <pt x="-5" y="1508" on="0"/>
        <pt x="-38" y="1452" on="0"/>
        <pt x="-89" y="1422" on="0"/>
        <pt x="-118" y="1422" on="1"/>
        <pt x="-148" y="1422" on="0"/>
        <pt x="-199" y="1453" on="0"/>
        <pt x="-231" y="1508" on="0"/>
        <pt x="-231" y="1541" on="1"/>
        <pt x="-231" y="1573" on="0"/>
        <pt x="-200" y="1629" on="0"/>
        <pt x="-148" y="1660" on="0"/>
      </contour>
      <contour>
        <pt x="-348" y="1274" on="1"/>
      </contour>
      <contour>
        <pt x="-638" y="1836" on="1"/>
      </contour>
    </TTGlyph>
    <TTGlyph name="ecandravowelsigncandrabindudeva" xMin="-1060" yMin="1274" xMax="341" yMax="1836">
      <contour>
        <pt x="-360" y="1733" on="1"/>
        <pt x="-365" y="1746" on="0"/>
        <pt x="-375" y="1773" on="0"/>
        <pt x="-380" y="1787" on="1"/>
        <pt x="-249" y="1833" on="1"/>
        <pt x="-228" y="1770" on="0"/>
        <pt x="-183" y="1678" on="0"/>
        <pt x="-127" y="1616" on="0"/>
        <pt x="-57" y="1586" on="0"/>
        <pt x="-10" y="1586" on="1"/>
        <pt x="40" y="1586" on="0"/>
        <pt x="108" y="1620" on="0"/>
        <pt x="155" y="1684" on="0"/>
        <pt x="186" y="1777" on="0"/>
        <pt x="200" y="1836" on="1"/>
        <pt x="341" y="1788" on="1"/>
        <pt x="321" y="1698" on="0"/>
        <pt x="257" y="1572" on="0"/>
        <pt x="168" y="1494" on="0"/>
        <pt x="56" y="1459" on="0"/>
        <pt x="-13" y="1459" on="1"/>
        <pt x="-101" y="1459" on="0"/>
        <pt x="-237" y="1529" on="0"/>
        <pt x="-290" y="1603" on="1"/>
        <pt x="-316" y="1538" on="0"/>
        <pt x="-389" y="1446" on="0"/>
        <pt x="-479" y="1389" on="0"/>
        <pt x="-586" y="1363" on="0"/>
        <pt x="-647" y="1363" on="1"/>
        <pt x="-783" y="1363" on="0"/>
        <pt x="-991" y="1527" on="0"/>
        <pt x="-1060" y="1703" on="1"/>
        <pt x="-915" y="1747" on="1"/>
        <pt x="-868" y="1622" on="0"/>
        <pt x="-745" y="1504" on="0"/>
        <pt x="-649" y="1504" on="1"/>
        <pt x="-597" y="1504" on="0"/>
        <pt x="-522" y="1537" on="0"/>
        <pt x="-467" y="1600" on="0"/>
        <pt x="-429" y="1691" on="0"/>
        <pt x="-414" y="1750" on="1"/>
      </contour>
      <contour>
        <pt x="-106" y="1751" on="1"/>
        <pt x="-106" y="1769" on="0"/>
        <pt x="-92" y="1800" on="0"/>
        <pt x="-67" y="1823" on="0"/>
        <pt x="-33" y="1836" on="0"/>
        <pt x="-14" y="1836" on="1"/>
        <pt x="5" y="1836" on="0"/>
        <pt x="39" y="1823" on="0"/>
        <pt x="64" y="1800" on="0"/>
        <pt x="78" y="1769" on="0"/>
        <pt x="78" y="1751" on="1"/>
        <pt x="78" y="1734" on="0"/>
        <pt x="64" y="1703" on="0"/>
        <pt x="39" y="1680" on="0"/>
        <pt x="5" y="1667" on="0"/>
        <pt x="-14" y="1667" on="1"/>
        <pt x="-33" y="1667" on="0"/>
        <pt x="-67" y="1680" on="0"/>
        <pt x="-92" y="1703" on="0"/>
        <pt x="-106" y="1734" on="0"/>
      </contour>
      <contour>
        <pt x="-348" y="1274" on="1"/>
      </contour>
    </TTGlyph>
    <TTGlyph name="ecandravowelsigndeva" xMin="-720" yMin="1274" xMax="141" yMax="1836">
      <contour>
        <pt x="141" y="1768" on="1"/>
        <pt x="98" y="1580" on="0"/>
        <pt x="-110" y="1393" on="0"/>
        <pt x="-282" y="1393" on="1"/>
        <pt x="-587" y="1393" on="0"/>
        <pt x="-720" y="1768" on="1"/>
        <pt x="-575" y="1817" on="1"/>
        <pt x="-521" y="1669" on="0"/>
        <pt x="-383" y="1534" on="0"/>
        <pt x="-277" y="1534" on="1"/>
        <pt x="-202" y="1534" on="0"/>
        <pt x="-103" y="1597" on="0"/>
        <pt x="-40" y="1716" on="0"/>
        <pt x="-14" y="1820" on="1"/>
      </contour>
      <contour>
        <pt x="-348" y="1274" on="1"/>
      </contour>
      <contour>
        <pt x="-238" y="1836" on="1"/>
      </contour>
    </TTGlyph>
</ttFont>
